<?xml version="1.0" encoding="UTF-8" standalone="no"?>
<svg
   version="1.1"
   viewBox="0 0 506 506"
   id="svg44"
   sodipodi:docname="logo risveglio cittadino.svg"
   inkscape:version="1.4-rc1 (61ec3f24, 2024-09-26)"
   xmlns:inkscape="http://www.inkscape.org/namespaces/inkscape"
   xmlns:sodipodi="http://sodipodi.sourceforge.net/DTD/sodipodi-0.dtd"
   xmlns="http://www.w3.org/2000/svg"
   xmlns:svg="http://www.w3.org/2000/svg">
  <sodipodi:namedview
     id="namedview44"
     pagecolor="#ffffff"
     bordercolor="#000000"
     borderopacity="0.25"
     inkscape:showpageshadow="2"
     inkscape:pageopacity="0.0"
     inkscape:pagecheckerboard="0"
     inkscape:deskcolor="#d1d1d1"
     inkscape:zoom="1.9887114"
     inkscape:cx="295.16601"
     inkscape:cy="195.35263"
     inkscape:current-layer="g43" />
  <defs
     id="defs1">
    <style
       id="style1">
      .cls-1 {
        fill: #e42320;
      }

      .cls-2 {
        fill: #0070b0;
      }

      .cls-3 {
        fill: #52dd80;
      }

      .cls-4 {
        fill: #fff;
      }

      .cls-5 {
        fill: #009640;
      }
    </style>
  </defs>
  <!-- Generator: Adobe Illustrator 28.7.0, SVG Export Plug-In . SVG Version: 1.2.0 Build 136)  -->
  <g
     id="g44">
    <g
       id="Layer_1">
      <g
         id="g43">
        <g
           id="g4">
          <path
             class="cls-5"
             d="M253,506c-67.6,0-131.1-26.3-178.9-74.1C26.3,384.1,0,320.6,0,253S26.3,121.9,74.1,74.1C121.9,26.3,185.4,0,253,0s131.1,26.3,178.9,74.1c47.8,47.8,74.1,111.3,74.1,178.9s-26.3,131.1-74.1,178.9c-47.8,47.8-111.3,74.1-178.9,74.1"
             id="path1" />
          <path
             class="cls-4"
             d="M253,500.4c-66.1,0-128.2-25.7-174.9-72.4C31.4,381.2,5.7,319.1,5.7,253S31.4,124.8,78.1,78.1C124.8,31.4,187,5.7,253,5.7s128.2,25.7,174.9,72.4c46.7,46.7,72.4,108.8,72.4,174.9s-25.7,128.2-72.4,174.9c-46.7,46.7-108.8,72.4-174.9,72.4"
             id="path2" />
          <path
             class="cls-1"
             d="M253,494.7c-64.6,0-125.2-25.1-170.9-70.8C36.5,378.3,11.3,317.6,11.3,253s25.1-125.2,70.8-170.9C127.8,36.5,188.5,11.3,253,11.3s125.2,25.1,170.9,70.8c45.6,45.6,70.8,106.3,70.8,170.9s-25.1,125.2-70.8,170.9c-45.6,45.6-106.3,70.8-170.9,70.8"
             id="path3" />
          <path
             class="cls-4"
             d="M489,253c0,130.3-105.7,236-236,236S17,383.4,17,253,122.7,17,253,17s236,105.7,236,236"
             id="path4" />
        </g>
        <g
           id="g22">
          <path
             class="cls-1"
             d="M47.5,369c40.5,71.6,117.4,120,205.6,120s165-48.4,205.6-120H47.5Z"
             id="path5" />
          <g
             id="g21">
            <path
               class="cls-4"
               d="M106.8,412.2c-1.2-.5-2.9-1.7-4.2-3-3.8-3.9-3.7-8.5.1-12.3,4.2-4.2,9-3.6,12.4-.2,1.5,1.5,2.4,3.1,2.9,4.3l4.3-2.5c-.4-1.2-1.6-3.3-3.8-5.5-5.8-5.8-14-6.8-20.5-.3-5.4,5.4-6.2,12.9.4,19.5,2.3,2.3,4.5,3.7,5.7,4.1l2.7-4Z"
               id="path6" />
            <path
               class="cls-4"
               d="M124.2,413.4c2.2,1.7,1.2,4.7-.7,7-2.2,2.7-4.9,3.6-6.7,2.2-2-1.6-1.5-4.5.6-7.1s4.5-3.9,6.8-2.1ZM127,410.2c-4.9-3.9-10.7-3.4-14.6,1.5s-2.9,10.6,1.6,14.2c4.1,3.3,10.1,3.9,14.6-1.7s3.1-10.3-1.5-14.1Z"
               id="path7" />
            <path
               class="cls-4"
               d="M126.7,435l5.1,3.4,5.5-8.3c.3-.4.6-.8.8-1.1,1.4-1.3,3.3-1.5,5.2-.3.6.4,1,.7,1.3,1l3.2-4.8c-.3-.3-.6-.5-1-.8-1.6-1-4.2-1.4-6.6.5h-.1c0,0,1.8-3.2,1.8-3.2l-4.4-2.9c-.9,1.4-1.8,3.1-3.4,5.5l-7.2,10.9Z"
               id="path8" />
            <path
               class="cls-4"
               d="M157,420.9c-1.7-1-3.5-.5-4.3,1.1-.9,1.4-.4,3.3,1.2,4.2s3.5.4,4.4-1c.8-1.5.4-3.3-1.3-4.3ZM145.7,446.7l9.7-17-5.3-3-9.7,17,5.3,3Z"
               id="path9" />
            <path
               class="cls-4"
               d="M166.2,447.2c-.2.5-.5,1-.9,1.4-1,1.1-2.5,1.6-3.9.9-2.3-1.1-2.7-3.8-1.4-6.4,1.5-3.2,4-4.3,6-3.4,1.5.7,2.1,2.2,1.8,3.8,0,.3-.2.7-.4,1.1l-1.2,2.6ZM171.6,437.8l-1.2,2h0c-.2-1.9-1.3-3.7-3.7-4.8-4.4-2-9.7-.1-12.4,5.6-2.4,5.1-.9,10.1,3.5,12.2,2,.9,4.1.9,5.9,0h0s-.5,1.2-.5,1.2c-1.5,3.3-4.2,3.8-6.8,2.5-2.1-1-3.7-2.6-4.5-3.7l-3,3.7c1.2,1.6,3.4,3.3,5.7,4.3s5.5,1.9,8.2,1.2c2.8-.8,4.8-3.3,6.4-6.7l4.6-9.9c1.2-2.6,2-4.1,2.6-5.2l-4.8-2.2Z"
               id="path10" />
            <rect
               class="cls-4"
               x="167.5"
               y="444.5"
               width="28.4"
               height="6.1"
               transform="translate(-301.1 464.1) rotate(-69.9)"
               id="rect10" />
            <path
               class="cls-4"
               d="M196.3,437.9c-1.9-.6-3.5.3-4,2-.5,1.6.3,3.3,2.1,3.8s3.5-.3,4-1.9c.5-1.7-.3-3.3-2.2-3.9ZM190.9,465.6l5.7-18.7-5.8-1.8-5.7,18.7,5.8,1.8Z"
               id="path11" />
            <path
               class="cls-4"
               d="M208.6,462.7c0,.4-.2.7-.3,1-.7,1.1-2.1,1.8-3.6,1.5-1.3-.3-2.2-1.3-1.8-2.8.5-2.3,3.1-2.5,6.2-1.8l-.5,2.1ZM213.1,471c0-1.1.4-2.9.8-4.7l1.5-6.6c1-4.5-.2-8.7-6.6-10.1-3.5-.8-6.3-.4-7.8,0l.2,4.1c1.4-.5,3.6-.7,5.6-.3,2.9.7,3.2,2.2,2.9,3.2v.3c-6.8-1.5-11.8-.1-12.9,4.8-.7,3,1,6.4,4.9,7.2,2.3.5,4.4.1,6-1.1h.1s0,2,0,2l5.3,1.2Z"
               id="path12" />
            <path
               class="cls-4"
               d="M219.4,472l6,.7,1.2-11.2c0-.6.2-1.1.4-1.5.5-1.1,1.6-2.1,3.3-1.9,2.2.2,2.9,2,2.6,4.6l-1.2,10.8,6,.7,1.3-11.5c.6-5.7-2.1-8.7-6-9.1-3.2-.4-5.4,1.3-6.3,2.4h-.1s0-2.7,0-2.7l-5.2-.6c-.1,1.7-.3,3.8-.5,6.2l-1.5,13.2Z"
               id="path13" />
            <path
               class="cls-4"
               d="M253.7,458.7c2.8,0,3.9,2.9,4,5.8,0,3.5-1.4,5.9-3.8,5.9-2.6,0-4-2.5-4.1-5.8s1-5.9,3.9-5.9ZM253.8,454.4c-6.3.1-10.4,4.2-10.3,10.5.1,6.3,4.6,10,10.3,9.9,5.2,0,10.3-3.4,10.2-10.6,0-5.9-4.2-9.9-10.2-9.8Z"
               id="path14" />
            <path
               class="cls-4"
               d="M280.9,450c.4-.1,1.2-.4,2.7-.6,2.8-.4,4.6.6,5,3,.4,2.3-1.2,4.1-4.2,4.6l-2.4.4-1.1-7.4ZM278.4,473.1l6-.9-1.6-10.5,1.8-.3c2.5-.3,3.7.4,5,3.6,1.3,3.2,2.3,5.2,2.8,5.9l6.2-1c-.7-.9-2-4.3-3.3-7.2-1.1-2.3-2.4-4-4.3-4.4h0c2.2-1.3,4.2-4,3.7-7.4-.4-2.5-1.5-4.2-3.3-5.2-2.1-1.2-5-1.4-8.9-.7-3.2.5-6,1.2-7.9,1.8l4.1,26.3Z"
               id="path15" />
            <path
               class="cls-4"
               d="M308.1,451.3c2.7-.7,4.5,1.8,5.3,4.6.9,3.4.1,6.1-2.2,6.7-2.5.7-4.5-1.4-5.4-4.6s-.5-6,2.3-6.7ZM307.1,447c-6.1,1.7-9,6.7-7.3,12.8,1.7,6.1,6.9,8.5,12.4,7,5.1-1.4,9.1-5.9,7.2-12.8-1.6-5.7-6.5-8.6-12.3-7Z"
               id="path16" />
            <path
               class="cls-4"
               d="M325.8,461.3c1.7.2,4,0,6.4-1,5.2-2,6.9-5.6,5.6-9-1.1-2.7-3.2-3.9-7.1-3.7-2.5,0-3.4,0-3.8-.9-.4-.9.2-1.8,1.6-2.3,1.6-.6,3.4-.6,4.4-.5l-.5-4.3c-1.3-.1-3.4.1-5.6.9-4.5,1.7-6.4,5.4-5.1,8.8.8,2.2,3.1,3.7,7.3,3.5,2.4-.1,3.1.1,3.5,1s-.1,1.8-1.8,2.5c-1.7.7-4.1.7-5.4.5l.6,4.5Z"
               id="path17" />
            <path
               class="cls-4"
               d="M343.2,454.4c1.7,0,4-.4,6.3-1.6,5-2.5,6.4-6.1,4.8-9.4-1.3-2.6-3.5-3.6-7.4-3.1-2.5.3-3.4.2-3.8-.6-.4-.9,0-1.8,1.4-2.5,1.5-.7,3.3-.9,4.3-.9l-.9-4.2c-1.3,0-3.4.4-5.5,1.4-4.3,2.1-5.9,6-4.3,9.2,1,2.1,3.4,3.4,7.6,2.8,2.4-.3,3.1-.2,3.6.7s0,1.8-1.6,2.6c-1.6.8-4.1,1.1-5.4,1l.9,4.4Z"
               id="path18" />
            <path
               class="cls-4"
               d="M366.7,434.7c.2.3.3.6.4.9.3,1.3-.2,2.8-1.5,3.6s-2.4.6-3.3-.7c-1.2-2,.5-4,3.2-5.6l1.1,1.8ZM375.7,437.5c-.7-.8-1.7-2.3-2.7-3.9l-3.5-5.8c-2.4-3.9-6.2-6.1-11.7-2.7s-4.8,4.1-5.6,5.4l3,2.8c.7-1.4,2.1-3,3.8-4.1,2.6-1.6,3.8-.6,4.4.3v.2c-5.8,3.6-8.4,8-5.7,12.4s5.1,3.9,8.5,1.8,3.2-3,3.5-5h.1c0,0,1.3,1.4,1.3,1.4l4.7-2.9Z"
               id="path19" />
            <path
               class="cls-4"
               d="M381,434l4.8-3.7-6.9-8.9c-.3-.4-.6-1-.7-1.3-.4-1.1-.3-2.7,1-3.7,1.7-1.3,3.5-.5,5,1.5l6.6,8.6,4.8-3.7-7.1-9.2c-3.5-4.6-7.5-4.8-10.7-2.4-2.6,2-3,4.7-2.9,6.2h0c0,0-1.9-1.9-1.9-1.9l-4.2,3.2c1.1,1.3,2.4,2.9,3.9,4.8l8.1,10.5Z"
               id="path20" />
            <path
               class="cls-4"
               d="M396.4,400.6c2-1.9,4.8-.6,6.9,1.5,2.5,2.5,3,5.3,1.3,6.9-1.9,1.8-4.6,1-7-1.4s-3.3-5-1.2-7ZM393.5,397.3c-4.5,4.4-4.7,10.2-.3,14.7,4.4,4.5,10.2,4.2,14.3.2,3.8-3.6,5.1-9.5.1-14.7-4.1-4.2-9.8-4.4-14.1-.2Z"
               id="path21" />
          </g>
        </g>
        <g
           id="g42">
          <g
             id="g23">
            <path
               class="cls-3"
               d="M370.3,245.6c-16.9,0-32.4-5.3-43-15-9-8.3-14.5-19.7-14.3-33.8,0-14.3,6.3-25.7,16.3-33.7,11.3-9.1,27.4-13.9,44.5-13.9h30.8l24.1-51.6h-66.3c-28.3,0-57.9,10-79.3,28.4-2.5,2.1-4.9,4.4-7.1,6.8,5.8,10.3,8.8,22,8.8,34.7,0,20.2-5.3,36.8-15.7,49.3-3.4,4-7.3,7.6-11.7,10.8,6.4,18.3,18,32.1,33.2,44.1,19.4,15.4,44.7,24.4,72.1,24.4h66l-23.5-50.3h-34.8Z"
               id="path22" />
            <path
               class="cls-2"
               d="M56.5,149.4l35-51.6h90.6c23,0,46,5.8,63.3,17.4,17.5,11.7,29.2,29.1,29.2,52.3s-4.9,32.7-13.4,42.8c-9.1,10.8-22.3,17.4-38.1,20.7l64.5,65.2h-83.4l-43.5-52h-42.6v52.8h-61.6v-102h117c10.9,0,20.4-1.5,27.1-5.2,6.7-3.6,10.8-9.3,10.8-17.6s-2.8-12.6-7.8-16.2c-6.4-4.7-16.4-6.6-28.8-6.6H56.5Z"
               id="path23" />
          </g>
          <g
             id="g41">
            <path
               class="cls-4"
               d="m 326.5,175.2 c -0.2,-0.5 -0.4,-0.8 -0.5,-1 0,0 0,0 -0.1,-0.1 -0.3,-0.5 -0.7,-0.9 -0.9,-1.5 v 0 c -0.6,-1.1 -1,-2.3 -1.4,-3.6 -0.4,-1.4 -0.7,-2.8 -1.1,-4.2 -0.4,-1.6 -1,-3.2 -1.7,-4.8 v 0 c -1.1,-2.5 -2.8,-4.8 -4.8,-6.6 -2.3,-2.1 -4.8,-3.7 -7.4,-5 -0.9,-0.4 -1.7,-0.8 -2.4,-1.1 0,0 0,0 0,0 0,-0.8 0,-1.7 0.1,-2.5 v 0 c 0,-0.5 0,-0.6 0,-0.7 0,-0.1 0,-0.3 0,-0.4 0.5,-0.5 1.1,-1 1.5,-1.5 1.6,-1.7 2.9,-3.8 3.5,-6.4 0.2,-0.9 0.3,-1.8 0.3,-2.7 0,-0.9 -0.1,-1.9 -0.3,-2.8 -0.6,-2.4 -1.8,-4.4 -3.4,-6 -2.1,-2.1 -4.7,-3.5 -7.3,-4.3 -1.3,-0.4 -2.7,-0.7 -4,-0.9 -1,-0.1 -2.1,-0.2 -3.1,-0.2 -2.8,0 -5.5,0.5 -8.1,1.2 -0.6,-1 -1.2,-2 -2.1,-3 -1.3,-1.4 -3,-2.5 -5,-3 -1.1,-0.3 -2.1,-0.4 -3.1,-0.4 H 275 c -1.4,0 -2.7,0.2 -3.9,0.4 v 0 c -0.6,0 -1.1,0.1 -1.7,0.1 -1,0 -2,-0.1 -3.1,-0.4 -1.3,-0.3 -2.7,-0.8 -4.3,-1.4 -0.5,-0.2 -1.2,-0.4 -2,-0.6 -1.4,-0.4 -2.9,-0.6 -4.5,-0.6 v 0 h -0.2 c -2,0 -4,0.3 -6,1.3 -1.3,0.6 -2.6,1.4 -3.6,2.5 -1,1 -1.9,2.3 -2.5,3.7 -0.6,1.5 -1,3.1 -1,4.7 0,0.5 0,1.1 0.1,1.6 v 0 c 0.2,1.5 0.7,2.9 1.3,4.2 0.7,1.3 1.5,2.4 2.5,3.4 0.1,0.1 0.3,0.3 0.4,0.4 h 0.1 c 0.1,0.2 0.3,0.3 0.4,0.3 0,0.3 0,0.6 0,0.9 v 0 c 0,0.1 0,0.1 0,0.1 0,0.7 0,1.3 0,1.9 0,0.3 0,0.6 0,0.9 -1.1,0 -2.2,0 -3.4,0.3 -0.8,0.2 -1.7,0.4 -2.5,0.8 -0.8,0.4 -1.6,1 -2.2,1.7 -0.6,0.7 -1.1,1.6 -1.4,2.5 v 0 c 0,0.3 -0.2,0.6 -0.2,0.9 -0.3,0.1 -0.5,0.2 -0.8,0.4 -1.3,0.6 -2.6,1.5 -3.7,2.7 -1,1.1 -1.7,2.5 -2.1,3.9 -0.2,0.8 -0.3,1.7 -0.3,2.5 0,0.6 0,1.2 0.1,1.7 0.4,3.1 1.6,5.9 3.4,8.4 v 0 c 0.3,0.5 0.6,0.9 0.9,1.3 v 0 c 1.3,1.8 2.6,3.6 4,5.4 1.4,1.9 3,3.8 4.7,5.6 2.2,2.2 4.6,4.2 7.5,5.7 -1.2,0.5 -2.4,1.1 -3.5,1.8 -2.3,1.6 -4.1,3.6 -5.6,5.6 -0.2,0.2 -0.3,0.5 -0.4,0.7 v 0.2 c -0.7,1.5 0,3.1 1.4,3.9 0.5,0.3 1.1,0.4 1.6,0.4 0.4,0 0.7,0 0.9,-0.1 v 0 c 0.8,-0.1 1.6,-0.2 2.3,-0.2 0.7,0 0.8,0 1.2,0 v 0 c 1.1,0.1 2.1,0.2 3.2,0.4 v 0 c 1.2,0.2 2.6,0.3 3.9,0.3 0.3,0 0.5,0 0.8,0 v 0 c 1.8,0 3.4,-0.6 4.8,-1.4 v 0 c 0.7,-0.4 1.3,-0.9 1.9,-1.4 -0.2,2.1 -0.4,4.3 -0.7,6.4 -0.6,4.7 -1.5,9.3 -2.6,13.8 -0.4,1.6 -0.8,3.1 -1.3,4.7 -0.5,1.6 -1,3.3 -1.5,4.9 -0.5,1.4 -1,2.9 -1.6,4.3 -0.3,0.8 -0.6,1.6 -1,2.5 -0.4,0.9 -0.7,1.7 -1,2.5 -0.3,-1.6 -0.6,-3.1 -1,-4.6 -0.9,-3.2 -2.3,-6.3 -4,-9.2 -1.5,-2.5 -3.3,-4.7 -5.2,-6.8 -2.2,-2.4 -4.7,-4.5 -7.2,-6.4 -2.4,-1.8 -4.9,-3.3 -7.5,-4.7 -1.6,-0.9 -3.3,-1.7 -4.9,-2.5 v 0 c -0.4,-0.2 -0.6,-0.2 -0.8,-0.3 h -0.1 c 0,0 0,0 0,0 v 0 c -1.5,-0.4 -3,0.4 -3.6,1.8 v 0 c 0,0 0,0 0,0.2 0,0.1 -0.1,0.4 -0.2,0.7 -0.1,0.7 -0.3,1.5 -0.4,2.3 -0.5,3 -0.7,6 -0.7,9 0,0.6 0,1.1 0,1.7 0.1,3 0.5,6 1.3,9 0.7,2.6 1.8,5.2 3.3,7.5 1.8,2.9 4.2,5.3 6.9,7.3 1.2,0.9 2.5,1.7 3.8,2.4 0.9,0.5 1.8,0.9 2.6,1.3 0.8,0.4 1.6,0.6 2.2,0.9 v 0 c 1.1,0.4 2.1,0.7 3,1 v 0 c 1.1,0.3 2.2,0.6 3.2,0.8 v 0 c 0.6,0.1 1.1,0.2 1.5,0.3 v 0 c 0,0 0.3,0 0.8,0 0.3,0 0.6,0 0.9,-0.1 0.2,0 0.4,-0.1 0.5,-0.2 -0.2,0.4 -0.4,0.8 -0.7,1.2 -1.2,2.1 -2.4,4.2 -3.7,6.2 -1.5,2.3 -3,4.6 -4.6,6.9 -2.1,3 -4.3,5.9 -6.6,8.7 -0.5,0.7 -1.1,1.3 -1.6,2 0,0 -0.2,0.2 -0.4,0.5 -0.1,0.2 -0.2,0.5 -0.3,0.8 0,0.3 -0.1,0.5 -0.1,0.8 -0.1,0.2 -0.3,0.3 -0.4,0.5 -1,1.1 -2.1,2.2 -3.2,3.3 v 0 c -0.6,0.6 -1.2,1.2 -1.9,1.8 v 0 c -0.8,0.8 -1.6,1.5 -2.4,2.2 -0.8,0.8 -1.7,1.5 -2.6,2.3 -1.1,1 -2.3,2 -3.6,3 -1.4,1.1 -2.8,2.2 -4.3,3.3 v 0 c -1.9,1.4 -3.9,2.8 -5.9,4.2 -2.3,1.5 -4.6,3 -7,4.4 -3.1,1.9 -6.3,3.6 -9.5,5.3 -0.8,0.4 -1.5,0.8 -2.3,1.2 0,0 0,0 -0.2,0 -0.2,0.1 -0.6,0.3 -1,0.8 -0.4,0.4 -0.7,1.1 -0.8,1.6 -0.2,0.9 0,1.8 0.6,2.5 l 0.2,0.2 0.2,0.2 c 0.2,0.2 0.4,0.4 0.5,0.5 1.4,1.4 2.7,2.7 4.1,4.1 0,0 0.2,0.2 0.5,0.5 0.3,0.3 0.9,0.6 1.6,0.7 0.8,0.2 1.5,0 2.2,-0.4 0,0 0.3,-0.2 0.6,-0.4 v 0 c 2.2,-1.5 4.5,-2.9 6.8,-4.4 1.7,-1.1 3.3,-2.2 4.9,-3.4 1.3,-0.9 2.5,-1.8 3.7,-2.7 v 0 c 1.1,-0.8 2.2,-1.6 3.2,-2.4 1.2,-0.9 2.4,-1.9 3.6,-2.8 0.9,-0.7 1.8,-1.4 2.7,-2.2 0.8,-0.7 1.6,-1.3 2.3,-2 1.1,-1 2.2,-1.9 3.4,-3 1.1,-1 2.2,-2 3.4,-3.1 1.3,-1.2 2.5,-2.5 3.7,-3.7 1.4,-1.4 2.8,-2.9 4.1,-4.3 0.8,-0.8 1.5,-1.7 2.2,-2.5 0.2,0 0.4,0 0.6,0 0.3,0 0.5,0 0.8,0 0.8,-0.2 1.4,-0.6 1.9,-1.2 0,0 0.2,-0.3 0.4,-0.6 v 0 c 1.5,-2.2 2.9,-4.5 4.4,-6.8 1.1,-1.7 2.1,-3.4 3.1,-5.1 0.8,-1.3 1.6,-2.7 2.3,-4 v 0 c 0.7,-1.2 1.3,-2.3 2,-3.5 v 0 c 0.7,-1.3 1.4,-2.7 2.1,-4 0.5,-1 1.1,-2 1.6,-3.1 0.5,-0.9 0.9,-1.8 1.3,-2.7 0.6,-1.3 1.3,-2.7 1.9,-4.1 0.6,-1.4 1.2,-2.8 1.8,-4.2 v 0 c 0.2,-0.5 0.4,-1.1 0.6,-1.6 0,0 0,0 0,0 0,0 0.1,0.2 0.3,0.4 0.2,0.2 0.4,0.4 0.7,0.6 v 0 c 0.5,0.3 1.1,0.7 1.7,1 0.9,0.5 1.8,1 2.8,1.4 0.9,0.4 1.9,0.9 2.9,1.3 1.6,0.7 3.3,1.2 5,1.6 v 0 c 1.6,0.4 3.3,0.7 5,0.8 0.8,0 1.5,0 2.3,0 2.1,0 4.1,-0.2 6.2,-0.7 3.3,-0.8 6.4,-2.2 9.1,-4.1 2.8,-1.8 5.2,-4 7.3,-6.4 2.6,-2.9 4.9,-6.1 6.9,-9.3 v 0 c 0.1,-0.2 0.2,-0.4 0.3,-0.5 v 0 c 0,-0.1 0,-0.1 0,-0.1 v 0 c 0.5,-1.1 0.3,-2.5 -0.5,-3.4 -0.5,-0.5 -1.1,-0.9 -1.5,-1 -0.2,0 -0.4,-0.1 -0.5,-0.1 v 0 c 0,0 0,0 0,0 v 0 c -1.8,-0.5 -3.5,-1 -5.3,-1.4 v 0 c -2.4,-0.5 -4.8,-1 -7.3,-1.3 -2.2,-0.3 -4.4,-0.4 -6.5,-0.4 -2,0 -4.1,0.1 -6.1,0.4 -3.8,0.5 -7.4,1.5 -10.9,3 -2.4,1.1 -4.7,2.4 -6.9,4 0.1,-0.4 0.3,-0.9 0.4,-1.4 v 0 c 0,0 0,0 0,0 0.5,-1.8 0.9,-3.6 1.3,-5.4 0.5,-2.1 0.9,-4.3 1.3,-6.4 0.7,-4.1 1.2,-8.3 1.4,-12.5 0.9,0.7 1.9,1.4 3,1.8 1,0.4 2,0.8 3.2,1.1 v 0 c 0.4,0 0.8,0.2 1.3,0.4 v 0 c 0.7,0.2 1.3,0.4 2,0.6 v 0 c 0.9,0.3 1.8,0.7 2.5,1.1 v 0 c 0.7,0.4 1.2,0.9 1.7,1.6 0,0.1 0.2,0.3 0.4,0.5 0.2,0.2 0.4,0.4 0.7,0.6 0.3,0.2 0.6,0.3 1,0.4 1.5,0.4 3,-0.5 3.6,-1.9 v 0 c 0,0 0,0 0,-0.3 0,-0.2 0.1,-0.4 0.2,-0.8 v 0 c 0,-0.5 0.1,-1.2 0.2,-2 v 0 c 0,0 0,-0.2 0,-0.3 0,-1.8 -0.4,-3.7 -1.1,-5.4 0.3,0 0.6,0 0.9,0 2.1,0 4.1,-0.4 6.1,-1.3 1.8,-0.8 3.4,-1.8 4.8,-3 1.6,-1.3 3.1,-2.8 4.4,-4.2 0.7,-0.7 1.4,-1.4 2,-2 v 0 c 1.3,-1.1 2.6,-2 4.1,-2.5 1.1,-0.4 2.1,-0.6 3.2,-0.6 1,0 2.1,0.2 3.2,0.5 0.3,0.1 0.7,0.3 1.3,0.5 0.3,0.1 0.6,0.2 0.7,0.2 h 0.1 c 0,0 0,0 0,0 v 0 c 0.9,0.1 1.9,-0.1 2.5,-0.7 0.7,-0.6 1.1,-1.5 1,-2.5 0,-0.3 0,-0.7 -0.2,-1 z"
               id="path24" />
            <g
               id="g30">
              <path
                 d="M240.4,271.9c-.3,0-.4,0-.6-.1-1.8-.7-3.6-1.4-5.4-2.1-.2,0-.4-.2-.6-.2,0,0-.2,0-.2-.1,0-.2,0-.3.2-.4.6-.7,1.1-1.4,1.7-2.1,2.3-2.9,4.5-5.9,6.7-8.9,1.6-2.3,3.2-4.6,4.7-7,1.3-2.1,2.6-4.2,3.8-6.4.9-1.6,1.8-3.2,2.6-4.9.7-1.4,1.5-2.9,2.1-4.4.5-1.1,1-2.1,1.4-3.2.4-1,.9-2,1.3-3.1.3-.8.7-1.7,1-2.6.5-1.5,1.1-2.9,1.6-4.4.6-1.7,1.1-3.3,1.6-5,.5-1.6.9-3.2,1.3-4.8,1.2-4.7,2.1-9.4,2.7-14.2.4-2.9.7-5.7.9-8.6,0-.2,0-.4,0-.6.2,0,.4.1.5.2.5.3,1,.6,1.5.9.4.3.9.5,1.3.8.3.1.3.3.3.6,0,.5,0,1,0,1.5-.2,4.4-.7,8.8-1.4,13.2-.4,2.1-.7,4.1-1.2,6.2-.4,1.8-.9,3.6-1.3,5.3-.2.9-.5,1.9-.8,2.8-.4,1.3-.8,2.5-1.2,3.7-.6,1.8-1.2,3.6-1.9,5.4-.6,1.6-1.2,3.2-1.9,4.8-.6,1.4-1.2,2.8-1.8,4.1-.6,1.3-1.2,2.7-1.9,4-.4.9-.8,1.8-1.3,2.7-.5,1-1,2-1.6,3-.7,1.3-1.4,2.6-2.1,4-.6,1.2-1.3,2.3-1.9,3.5-.8,1.3-1.5,2.6-2.3,3.9-1,1.7-2,3.3-3.1,5-1.4,2.3-2.9,4.5-4.4,6.7-.1.2-.2.3-.3.5"
                 id="path25" />
              <path
                 d="M193.6,309c-.3,0-.4-.2-.5-.4-1.4-1.4-2.8-2.7-4.1-4.1-.2-.2-.3-.3-.5-.5l-.2-.2c0-.2.2-.3.3-.3.8-.4,1.6-.8,2.4-1.2,3.3-1.7,6.5-3.5,9.7-5.4,2.4-1.4,4.8-3,7.1-4.5,2-1.4,4.1-2.8,6-4.3,1.5-1.1,2.9-2.2,4.4-3.4,1.3-1,2.5-2,3.7-3.1.9-.8,1.8-1.6,2.6-2.3.8-.7,1.6-1.5,2.4-2.3.7-.6,1.3-1.3,2-1.9,1.1-1.1,2.2-2.2,3.2-3.4,1.2-1.3,2.3-2.6,3.5-3.9,1.1-1.3,2.1-2.6,3.1-3.9,3-3.8,5.7-7.7,8.2-11.8,1.5-2.5,2.9-5,4.3-7.5,0-.2.2-.3.3-.5.2,0,.3.2.4.4.4.5.7,1,1,1.5.3.4.6.9.9,1.2.2.2.2.4,0,.7-.2.5-.4.9-.7,1.4-2,4-4.2,7.8-6.6,11.5-1.2,1.8-2.4,3.5-3.6,5.2-1.1,1.5-2.2,2.9-3.4,4.3-.6.8-1.2,1.5-1.9,2.2-.9,1-1.7,2-2.6,3-1.3,1.4-2.6,2.8-4,4.2-1.2,1.2-2.4,2.4-3.7,3.6-1.1,1-2.2,2-3.3,3-1.1,1-2.2,2-3.3,2.9-.7.6-1.5,1.3-2.2,1.9-.9.7-1.8,1.4-2.7,2.1-1.2.9-2.3,1.9-3.5,2.8-1,.8-2.1,1.6-3.2,2.4-1.2.9-2.4,1.8-3.7,2.7-1.6,1.1-3.2,2.2-4.8,3.3-2.2,1.5-4.5,2.9-6.7,4.4-.2.1-.3.2-.5.3"
                 id="path26" />
              <path
                 d="m 266.9,231.0889 c 0.3,0 0.6,0.1 0.8,0.2 0.9,0.3 1.9,0.6 2.8,0.8 1.2,0.3 2.5,0.6 3.7,0.9 1.8,0.4 3.6,0.6 5.4,0.8 2.6,0.2 5.2,0.2 7.8,-0.2 4.9,-0.7 9.2,-2.7 13,-5.8 2.1,-1.7 3.9,-3.7 5.6,-5.9 0.4,-0.5 0.7,-1 1.1,-1.5 0,0 0,-0.2 0.2,-0.3 0,0 -0.2,-0.1 -0.2,-0.2 -0.4,-0.2 -0.9,-0.3 -1.3,-0.5 -0.7,-0.2 -1.3,-0.4 -2,-0.6 -2.1,-0.6 -4.2,-1 -6.3,-1.3 -3.7,-0.4 -7.4,-0.2 -11,0.4 -3.4,0.6 -6.7,1.6 -10,2.9 -3.4,1.3 -6.7,3 -9.9,4.8 -0.1,0 -0.2,0.1 -0.4,0.2 h -0.1 c 0,-0.2 0.2,-0.3 0.3,-0.4 0.8,-0.9 1.7,-1.7 2.6,-2.4 2.6,-2.2 5.4,-4 8.5,-5.4 3.2,-1.4 6.6,-2.3 10.1,-2.8 4,-0.5 7.9,-0.5 11.9,0 2.3,0.3 4.7,0.7 7,1.2 1.7,0.4 3.5,0.9 5.2,1.4 0.2,0 0.5,0 0.7,0.3 0,0.1 -0.1,0.3 -0.2,0.4 -1.9,3.1 -4,6.1 -6.5,8.9 -2,2.2 -4.2,4.2 -6.7,5.9 -2.5,1.7 -5.2,2.9 -8.2,3.6 -2.5,0.6 -5,0.8 -7.5,0.6 -1.5,-0.1 -3,-0.4 -4.5,-0.7 -1.6,-0.4 -3.1,-0.9 -4.6,-1.5 -0.9,-0.4 -1.8,-0.8 -2.7,-1.2 -0.9,-0.4 -1.8,-0.9 -2.7,-1.4 -0.6,-0.3 -1.1,-0.6 -1.6,-1 0,0 0,0 -0.1,-0.2"
                 id="path27" />
              <path
                 d="M222.4,198.9c.1,0,.2,0,.3,0,1.6.8,3.2,1.6,4.8,2.4,2.5,1.4,4.9,2.9,7.2,4.5,2.4,1.8,4.7,3.8,6.8,6,1.8,1.9,3.4,4,4.8,6.3,1.6,2.6,2.8,5.4,3.7,8.4.8,2.8,1.3,5.7,1.4,8.6,0,.2,0,.4,0,.6-.2,0-.2-.2-.2-.3-.5-1.6-1.1-3.1-1.7-4.7-1.7-4.3-3.7-8.4-6.4-12.2-2-2.9-4.4-5.6-7.1-8-1.9-1.6-3.9-3-6-4.2-1.6-.9-3.3-1.7-5.1-2.4-.1,0-.3-.1-.5,0,0,.1,0,.3,0,.5-.4,2.8-.5,5.6-.2,8.4.3,2.7.9,5.3,1.9,7.7.9,2.2,2.1,4.2,3.5,6,1.8,2.3,3.8,4.2,6.1,6,1.8,1.4,3.7,2.6,5.7,3.7,1.1.6,2.1,1.2,3.3,1.7.7.3,1.4.7,2.2,1h.1c-.1.2-.3.2-.4.1-.5,0-.9-.2-1.3-.3-1-.3-2.1-.5-3.1-.8-.9-.3-1.8-.5-2.7-.9-.7-.3-1.4-.5-2.1-.8-.8-.4-1.6-.7-2.4-1.2-1.2-.6-2.4-1.3-3.5-2.2-2.4-1.8-4.5-3.9-6.1-6.5-1.3-2.1-2.3-4.4-3-6.7-.8-2.7-1.1-5.5-1.2-8.2-.1-3.4.2-6.8.7-10.2.1-.8.3-1.5.4-2.3,0,0,0-.2.1-.3"
                 id="path28" />
              <path
                 d="m 272.1,227.2889 c 0.1,0 0.3,0 0.4,0 2.3,-0.1 4.6,-0.7 6.7,-1.6 2.7,-1.2 5,-2.8 7.2,-4.7 0.3,-0.2 0.6,-0.5 0.8,-0.7 0,0 0.1,0 0.2,-0.1 -0.2,0.5 -0.6,1.3 -1.7,3 -0.6,0.9 -1.3,1.8 -2,2.7 0,0.1 0.2,0 0.3,0 1.4,0 2.7,-0.2 4.1,-0.4 4.1,-0.6 8.1,-1.6 12.1,-2.8 0.8,-0.3 1.7,-0.5 2.5,-0.8 0.1,0 0.3,0 0.4,-0.1 0,0.2 0,0.2 -0.2,0.2 -0.6,0.3 -1.2,0.5 -1.7,0.8 -1.3,0.6 -2.6,1.1 -3.9,1.7 -1,0.4 -2,0.9 -3,1.3 -0.1,0 -0.3,0 -0.4,0.3 0.2,0.2 0.7,0.5 1.4,0.7 0.5,0.2 1,0.3 1.5,0.5 0.5,0.2 1,0.2 1.5,0.4 0,0.2 -0.2,0.1 -0.3,0.1 -1.3,0 -2.6,0 -4,-0.2 -1,-0.1 -1.9,-0.3 -2.8,-0.6 -0.2,0 -0.5,0 -0.7,0 -0.9,0.2 -1.8,0.5 -2.8,0.6 -2.5,0.5 -5,0.6 -7.5,0.6 -2.7,0 -5.4,-0.3 -8,-0.8 H 272 c 0,0 0,-0.2 0,-0.2"
                 id="path29" />
              <path
                 d="M245.8,232.9c-.2-.1-.5-.3-.7-.4-2.4-1.6-4.7-3.2-6.8-5.1-2.3-2.1-4.3-4.4-6-7-.2-.2-.3-.4-.6-.5-2-1-3.8-2.4-5.5-3.9,0,0-.2-.2-.2-.3.7.4,1.4.7,2.1,1.1.7.3,1.5.6,2.3.7,0-.2,0-.3,0-.4-.5-1.2-1.1-2.4-1.6-3.5-.7-1.5-1.4-3-2-4.5,0-.2-.2-.3-.2-.5v-.2c.2,0,.2.2.3.3,1,1.8,2.1,3.5,3.2,5.2,1.8,2.7,3.6,5.3,5.7,7.7.7.8,1.5,1.6,2.2,2.4l.2.2c.2,0,.1-.2.1-.3,0-1.2.2-2.4.4-3.6.1-.8.3-1.6.5-2.5,0-.1,0-.2.1-.4.1,0,.1.2.1.3.1,1.4.3,2.9.7,4.3.4,2,1.1,4,2,5.9.9,1.8,2.1,3.5,3.6,4.9.1.1.2.2.3.3h0"
                 id="path30" />
            </g>
            <g
               id="g40">
              <path
                 class="cls-1"
                 d="M303.1,144.2c0,.2,0,.3,0,.5,0,3.1-.4,6.1-1,9.2-.3,1.4-.6,2.9-1,4.3-.6,2-1.3,4-2.2,5.9-1.4,3.1-3.2,6.1-5.3,8.8-1.4,1.8-2.9,3.5-4.5,5.2-1.3,1.4-2.6,2.6-4.1,3.8-1.4,1.2-2.9,2.2-4.6,3.1-2.9,1.5-6,2.3-9.2,2.1-1.6,0-3.1-.4-4.6-.8-1.1-.3-2.1-.7-3.1-1.1-1.2-.5-2.3-1.1-3.4-1.7-.4-.3-.8-.5-1.3-.8-.2-.1-.3-.3-.4-.5-.6-1.7-1.3-3.3-1.8-5-.6-2.1-.9-4.3-.8-6.4,0-1.3.3-2.5.6-3.8.2-.8.5-1.5.8-2.2.6-1.5,1.4-2.9,2.3-4.3.8-1.2,1.7-2.4,2.7-3.5l.2-.2c.2-.2.4-.3.7-.3,1.7,0,3.4-.1,5.1-.3,4-.3,7.9-.9,11.8-1.8,3.6-.9,7.1-2,10.5-3.5,4.1-1.7,8-3.9,11.8-6.3.2-.1.4-.3.8-.4"
                 id="path31" />
              <path
                 class="cls-1"
                 d="M240.1,145.6c0-.2,0-.4,0-.5,0-.5.1-1.1.3-1.6.4-1.1,1.1-1.9,2.1-2.4.6-.3,1.1-.4,1.7-.6,1-.2,2-.2,3-.3h.2c.1.2,0,.3,0,.4-.1.4-.3.7-.4,1.1-.4,1.1-.7,2.3-1,3.4-.8,3.1-1.3,6.3-1.3,9.6,0,2.8.5,5.6,1.3,8.3.9,2.8,2.1,5.4,3.5,7.9.8,1.4,1.7,2.8,2.6,4.1,0,.1.2.2.3.4h0s-.1-.2-.1-.2c-.7-1.4-1.5-2.7-2.1-4.1-1.2-2.4-2.2-4.8-2.9-7.4-.9-3.4-1.1-6.9-.6-10.5.3-1.7.6-3.3,1.1-4.9.3-1.2.7-2.3,1.1-3.5.6-1.7.9-3.6,1-5.4,0-1.7,0-3.4,0-5.1,0-.6,0-1.3,0-1.9,0-.1,0-.3,0-.4.2,0,.4,0,.6,0,1,.2,1.9.5,2.8.9,1.7.8,3.2,1.9,4.6,3.1,1.7,1.4,3.2,2.9,4.7,4.5,2.3,2.5,4.5,5.1,6.6,7.8,0,.1.2.2.3.4-.1,0-.2.2-.4.2-4.5,2.7-8.1,6.2-11,10.5-.7,1-1.3,2.1-1.8,3.1-.5,1-.9,2.1-1.3,3.2-.7,1.9-.9,3.9-.8,6,0,2.6.6,5.1,1.5,7.5,0,.2.2.3.1.5,0,.1-.2,0-.3,0-.9-.3-1.7-.7-2.5-1.1-2.8-1.4-5.3-3.3-7.5-5.6-1.6-1.7-3.1-3.4-4.5-5.3-1.3-1.8-2.7-3.6-4-5.4-.3-.4-.6-.8-.9-1.2-1.5-2.1-2.5-4.5-2.9-7.1-.1-1.1-.1-2.1.1-3.1.2-.9.7-1.8,1.3-2.5.8-.9,1.8-1.5,2.8-2,.5-.3,1.1-.5,1.7-.7.2,0,.4-.1.6-.2"
                 id="path32" />
              <path
                 class="cls-1"
                 d="m 324.13334,175.86666 c -0.1,0 -0.2,0 -0.4,0 -0.5,-0.2 -0.9,-0.3 -1.3,-0.5 -2.8,-0.9 -5.6,-0.9 -8.4,0 -1.9,0.7 -3.5,1.7 -5,3 -0.8,0.7 -1.5,1.4 -2.3,2.2 -1.3,1.4 -2.6,2.7 -4.1,3.9 -1.3,1 -2.6,1.9 -4.1,2.6 -2.2,1 -4.4,1.2 -6.7,0.9 -1.1,-0.2 -2.1,-0.5 -3.2,-0.9 -1.6,-0.6 -3,-1.4 -4.4,-2.2 -0.1,0 -0.1,0 -0.3,-0.3 0,0 0.2,-0.2 0.3,-0.2 2.7,-1.8 5,-3.9 7.2,-6.3 1.2,-1.3 2.4,-2.6 3.5,-4 1.3,-1.7 2.6,-3.4 3.7,-5.3 0.6,-1 1.1,-2 1.7,-3.1 0.3,-0.5 0.5,-1.1 0.8,-1.6 0.3,-0.6 0.6,-1.3 0.8,-1.9 0.3,-0.8 0.6,-1.7 0.9,-2.5 0.3,-0.9 0.6,-1.9 0.8,-2.8 0.4,-1.4 0.7,-2.9 1,-4.4 0.2,-0.9 0.3,-1.8 0.4,-2.8 0,-0.1 0,-0.3 0,-0.4 0.2,0 0.3,0 0.4,0 0.8,0.4 1.6,0.7 2.3,1.1 2.4,1.2 4.7,2.6 6.6,4.5 1.7,1.6 3.1,3.5 4.1,5.7 0.6,1.4 1.1,2.8 1.5,4.3 0.4,1.4 0.7,2.8 1.1,4.2 0.4,1.5 0.9,2.9 1.6,4.3 0.4,0.7 0.8,1.3 1.2,1.9 0,0.1 0.2,0.2 0.2,0.4"
                 id="path33" />
              <path
                 class="cls-1"
                 d="M289.8,133c0-.2,0-.3,0-.5,0-.5,0-.9,0-1.4,0-1-.5-1.8-1-2.6-.5-.7-1-1.3-1.6-1.9-.7-.8-1.4-1.6-1.9-2.6,0-.2-.2-.4-.2-.6h.2c3.5-1.2,7.1-1.7,10.7-1.2,1.2.1,2.3.4,3.4.7,2.3.7,4.3,1.8,6,3.6,1.3,1.3,2.2,2.8,2.6,4.6.3,1.3.3,2.7,0,4-.5,2-1.5,3.6-2.8,5.1-1.1,1.2-2.3,2.2-3.6,3.1-3.1,2-6.4,3.9-9.7,5.4-3,1.4-6.1,2.6-9.3,3.5-4,1.2-8,1.9-12.1,2.4-1.9.2-3.8.3-5.6.4-.2,0-.3,0-.5,0,0-.2,0-.2.2-.3.5-.4,1-.9,1.5-1.3,2-1.6,4.1-2.9,6.4-4,2.7-1.3,5.5-2.3,8.3-3.2,1.7-.6,3.5-1.1,5.2-1.8,1.6-.6,3.1-1.3,4.7-1.9.8-.3,1.5-.6,2.3-1,.3-.1.5-.2.8-.4.6-.3.9-.8.9-1.5,0-1-.1-1.9-.6-2.8-.4-.8-1-1.6-1.7-2.2-.6-.5-1.2-1-1.8-1.4-.2-.1-.5-.2-.7-.4"
                 id="path34" />
              <path
                 class="cls-1"
                 d="M259,135c-.3-.3-.6-.5-.9-.7-1.1-.8-2.2-1.5-3.4-2.2-1.3-.7-2.6-1.2-4-1.3-.6,0-1.2-.1-1.8-.1-.1,0-.3,0-.4,0h-.1c-1.6-1.8-2.7-3.7-3-6-.2-1.6,0-3.2.7-4.7.9-2.1,2.5-3.6,4.6-4.6,1.5-.7,3.1-1,4.8-1,1.3,0,2.5.2,3.7.5.6.2,1.2.4,1.8.6,1.5.5,3,1.1,4.6,1.4,2,.5,4,.6,6,.3,1.2-.2,2.3-.3,3.5-.3.9,0,1.7,0,2.5.3,1.4.3,2.5,1.1,3.5,2.1.9.9,1.5,2,2.1,3.1.2.3.3.7.5,1v.2c0,.1-.1,0-.2,0-.6-.2-1.2-.3-1.8-.5-1.7-.4-3.4-.6-5.2-.5-1.3,0-2.6.3-3.8.6-2.1.5-4.2,1.1-6.3,1.8-.8.3-1.6.5-2.4.8-.5.2-.9.3-1.3.6-.3.2-.6.4-.8.7-.2.3-.4.6-.4.9,0,.4,0,.7,0,1.1,0,.5,0,.9,0,1.4,0,1.2-.4,2.3-1.1,3.2-.2.3-.5.6-.8.9,0,0-.2.1-.3.3"
                 id="path35" />
              <path
                 class="cls-1"
                 d="M260.3,136.1c0-.2.2-.3.3-.5.5-.5,1-1.1,1.3-1.7.1-.2.3-.3.5-.4,2-.3,4.1-.5,6.1-.3,2.8.3,5.3,1.4,7.4,3.3.1.1.3.3.4.4,1.7,2.2,3.5,4.5,5.2,6.7.1.1.2.3.3.4,0,.2-.2.2-.4.3-.9.3-1.7.6-2.6.9-2.5.8-5,1.6-7.5,2.5-.6.2-.5.2-.9-.3-1.6-2-3.2-4.1-5-6-1.5-1.7-3.1-3.4-4.8-4.9-.1-.1-.2-.2-.3-.3"
                 id="path36" />
              <path
                 class="cls-1"
                 d="M262.8,131.9c0-.1,0-.2,0-.3,0-.8.1-1.5,0-2.3,0-.2,0-.4,0-.6,0-.4.2-.8.6-1,.3-.1.5-.3.8-.4,2.7-.9,5.4-1.9,8.1-2.5,1.1-.3,2.1-.5,3.2-.6,2-.2,3.9,0,5.9.4,1.2.3,2.4.8,3.5,1.4,1.1.7,2.1,1.6,2.7,2.7.5,1,.7,2.1.7,3.3,0,0,0,.2,0,.3,0,0-.2,0-.3,0-.3-.1-.6-.2-1-.3-.7-.2-1.4-.4-2.1-.5-1.5-.2-3,0-4.4.6-1,.4-2,1-2.9,1.6-.5.3-1,.6-1.5,1-.1,0-.3-.1-.4-.2-.7-.5-1.5-1-2.3-1.4-.6-.3-1.3-.5-1.9-.7-2.6-.8-5.3-.8-7.9-.5-.2,0-.4,0-.7,0"
                 id="path37" />
              <path
                 class="cls-1"
                 d="m 290.63334,198.76666 c -0.2,0 -0.3,-0.2 -0.4,-0.4 -0.7,-0.9 -1.6,-1.7 -2.6,-2.3 -1,-0.6 -2,-1 -3.1,-1.4 -0.7,-0.2 -1.4,-0.4 -2,-0.7 -0.5,-0.2 -1,-0.3 -1.5,-0.4 -0.9,-0.2 -1.8,-0.6 -2.7,-1 -1,-0.4 -1.9,-1.1 -2.8,-1.8 -0.9,-0.8 -1.6,-1.6 -2.3,-2.6 0,0 -0.1,-0.2 -0.2,-0.3 0.2,-0.1 0.4,0 0.6,-0.1 0.8,0 1.7,-0.1 2.5,-0.3 2.1,-0.4 4.2,-1.1 6.1,-2.2 0.4,-0.3 0.8,-0.3 1.2,0 1.4,0.9 2.8,1.9 4,3.1 1,1.1 1.9,2.3 2.5,3.6 0.6,1.4 0.9,2.9 0.9,4.5 0,0.6 0,1.2 -0.1,1.8 0,0 0,0.2 0,0.3"
                 id="path38" />
              <path
                 class="cls-1"
                 d="M283.4,143.6c-.2-.2-.3-.4-.4-.6-.9-1.5-1.9-2.9-3-4.3-.7-.9-1.5-1.8-2.4-2.6,0,0-.2-.2-.2-.3v-.2c1.3-.8,2.4-1.5,3.7-2.1,1.1-.5,2.2-.8,3.4-.7.6,0,1.1.1,1.7.3.9.2,1.7.6,2.6,1,0,0,.2,0,.3.1,1.2.4,2.1,1.2,2.9,2.1.6.7,1,1.4,1.1,2.4,0,.3,0,.6,0,1,0,.2-.1.3-.3.4-.7.3-1.5.6-2.2.9-2.2.9-4.4,1.7-6.6,2.6-.2,0-.3.1-.6.2"
                 id="path39" />
              <path
                 class="cls-1"
                 d="M263.9,186.7c0,.1-.1.2-.2.3-1,1.2-2.1,2.2-3.4,3-1.1.6-2.2,1-3.4,1-1.4,0-2.8,0-4.2-.3-1.1-.1-2.2-.3-3.3-.4-1.5-.2-3,0-4.5.2-.2,0-.3.1-.5,0v-.2c1.5-1.9,3-3.6,4.9-5,2.3-1.6,4.9-2.3,7.7-2.3.3,0,.5.1.8.3.6.4,1.2.8,1.8,1.1,1.1.7,2.2,1.2,3.4,1.7.3.1.6.3.9.4"
                 id="path40" />
            </g>
          </g>
          <polyline
             class="cls-2"
             points="223.1 231 287.6 296.2 204.2 296.2 160.7 244.2"
             id="polyline41" />
        </g>
        <path
           d="M420.9,328.3c5.1,0,7.1,5.1,7.1,9.1s-3.1,9.2-7.2,9.2-7.2-3.9-7.2-9.1,2.2-9.2,7.3-9.2ZM421,325c-6.6,0-11.7,4.6-11.7,12.6s4.9,12.2,11.3,12.2,11.8-3.8,11.8-12.6-4.6-12.2-11.4-12.2ZM383.8,349.2h4.3v-14.2c0-.7,0-1.5.3-2,.7-2.4,2.9-4.4,5.8-4.4,4.1,0,5.5,3.2,5.5,7v13.6h4.3v-14.1c0-8.1-5.1-10.1-8.4-10.1s-6.7,2.2-7.8,4.5h0l-.2-3.9h-3.8c.1,2,.2,4,.2,6.4v17.3ZM374.5,316.2c-1.6,0-2.7,1.2-2.7,2.7s1.1,2.6,2.6,2.6,2.8-1.2,2.7-2.6c0-1.5-1-2.7-2.6-2.7ZM376.7,349.2v-23.7h-4.3v23.7h4.3ZM360.9,339.3c0,.7,0,1.3-.2,1.9-.8,3.2-3.4,5.1-6.3,5.1-4.6,0-7-4-7-8.8s2.6-9.1,7.1-9.1,5.6,2.2,6.2,5c.1.5.2,1.3.2,1.8v4.1ZM360.9,314.5v14.1h0c-1.1-1.9-3.5-3.6-7.1-3.6-5.8,0-10.7,4.8-10.6,12.7,0,7.2,4.4,12,10.1,12s6.7-2,8.1-4.6h0l.2,4.1h3.9c-.1-1.6-.2-4-.2-6.1v-28.6h-4.3ZM333.7,341.3c0,.4,0,.9-.2,1.4-.7,2-2.6,4-5.7,4s-4.1-1.3-4.1-4.1c0-4.6,5.3-5.4,10-5.3v4.1ZM338.2,349.2c-.3-1.6-.4-3.6-.4-5.7v-8.9c0-4.7-1.8-9.7-9-9.7s-5.8.8-7.8,2.1l1,2.8c1.7-1.1,4-1.8,6.2-1.8,4.8,0,5.4,3.5,5.4,5.5v.5c-9.1,0-14.2,3.1-14.2,8.8s2.4,6.8,7.2,6.8,5.9-1.7,7.2-3.5h.1l.3,3h3.9ZM306,319.9v5.7h-3.7v3.3h3.7v12.9c0,2.8.4,4.9,1.7,6.2,1,1.2,2.6,1.8,4.6,1.8s3-.2,3.8-.6l-.2-3.2c-.5.1-1.4.3-2.5.3-2.4,0-3.2-1.7-3.2-4.6v-12.8h6.2v-3.3h-6.2v-6.8l-4.2,1.1ZM289.8,319.9v5.7h-3.7v3.3h3.7v12.9c0,2.8.4,4.9,1.7,6.2,1,1.2,2.6,1.8,4.6,1.8s3-.2,3.8-.6l-.2-3.2c-.5.1-1.4.3-2.5.3-2.4,0-3.2-1.7-3.2-4.6v-12.8h6.2v-3.3h-6.2v-6.8l-4.2,1.1ZM279.6,316.2c-1.6,0-2.7,1.2-2.7,2.7s1.1,2.6,2.6,2.6,2.8-1.2,2.7-2.6c0-1.5-1-2.7-2.6-2.7ZM281.7,349.2v-23.7h-4.3v23.7h4.3ZM271.5,344.8c-1.7.8-4.4,1.4-6.9,1.4-8,0-12.7-5.2-12.7-13.3s5.1-13.6,12.9-13.6,5,.6,6.7,1.4l1-3.5c-1.1-.6-3.7-1.5-7.8-1.5-10.2,0-17.2,7-17.2,17.3s7,16.7,16.3,16.7,7.1-.8,8.7-1.6l-.9-3.4ZM221.9,328.3c5.1,0,7.1,5.1,7.1,9.1s-3.1,9.2-7.2,9.2-7.2-3.9-7.2-9.1,2.2-9.2,7.3-9.2ZM222,325c-6.6,0-11.7,4.6-11.7,12.6s4.9,12.2,11.3,12.2,11.8-3.8,11.8-12.6-4.6-12.2-11.4-12.2ZM202.7,316.2c-1.6,0-2.7,1.2-2.7,2.7s1.1,2.6,2.6,2.6,2.8-1.2,2.7-2.6c0-1.5-1-2.7-2.6-2.7ZM204.8,349.2v-23.7h-4.3v23.7h4.3ZM189,349.2h4.3v-34.7h-4.3v34.7ZM177.6,339.2c0,.7,0,1.6-.3,2.3-.9,2.7-3.3,4.4-6,4.4-4.6,0-7-3.9-7-8.5s2.9-9,7-9,5.2,2.1,6,4.5c.2.6.2,1.2.2,2v4.3ZM178.3,325.6l-.2,3.6h0c-1-2-3.3-4.1-7.4-4.1s-10.7,4.5-10.7,12.6,4.2,11.5,10.1,11.5,6.2-1.8,7.5-4h0v2.6c0,6-3.2,8.3-7.6,8.3s-5.4-.9-6.9-1.9l-1.1,3.3c1.9,1.3,5,2,7.9,2s6.3-.7,8.6-2.8c2.3-2.1,3.4-5.4,3.4-10.8v-13.7c0-2.9,0-4.8.2-6.5h-3.8ZM139.6,335.1c.3-3,2.2-7,6.6-7s6,4.3,6,7h-12.6ZM156.2,338.2c0-.4.1-1.1.1-2,0-4.4-2.1-11.2-9.8-11.2s-11.1,5.6-11.1,12.8,4.4,11.9,11.6,11.9,6.4-.8,7.9-1.5l-.7-3.1c-1.6.7-3.5,1.2-6.6,1.2s-8-2.4-8.1-8.2h16.6ZM111.2,325.6l9,23.7h4.1l9.3-23.7h-4.5l-4.6,13.3c-.8,2.2-1.5,4.1-2,6.1h-.1c-.5-2-1.1-3.9-1.9-6.1l-4.6-13.3h-4.6ZM93.1,348.1c1.7,1,4.1,1.6,6.7,1.6,5.6,0,8.9-2.9,8.9-7.1s-2.1-5.6-6.2-7.1c-3.1-1.2-4.5-2.1-4.5-4s1.4-3.2,4-3.2,3.9.8,4.8,1.4l1.1-3.1c-1.3-.8-3.4-1.5-5.8-1.5-5.1,0-8.2,3.1-8.2,6.9s2,5.2,6.3,6.7c3.2,1.2,4.4,2.3,4.4,4.4s-1.5,3.5-4.6,3.5-4.4-.9-5.7-1.7l-1.1,3.3ZM85.5,316.2c-1.6,0-2.7,1.2-2.7,2.7s1.1,2.6,2.6,2.6,2.8-1.2,2.7-2.6c0-1.5-1-2.7-2.6-2.7ZM87.6,349.2v-23.7h-4.3v23.7h4.3ZM60.9,319.7c.7-.2,2.2-.4,4.2-.4,4.5,0,7.6,1.9,7.6,6.2s-2.9,6.3-7.4,6.3h-4.4v-12ZM56.7,349.2h4.3v-14.3h4c3.9.1,5.6,1.9,6.6,6.4.9,4.1,1.7,6.9,2.2,7.9h4.4c-.7-1.3-1.5-4.5-2.5-9-.8-3.4-2.3-5.8-4.8-6.7h0c3.5-1.3,6.2-4.2,6.2-8.6s-.9-4.8-2.6-6.3c-2.1-1.9-5-2.7-9.5-2.7s-6,.2-8.2.7v32.5Z"
           id="path42" />
      </g>
    </g>
  </g>
</svg>
