<?xml version="1.0" encoding="UTF-8" standalone="no"?>
<svg
   height="247.65283"
   viewBox="0 0 1280 247.65283"
   width="1280"
   version="1.1"
   id="svg2"
   sodipodi:docname="footer.svg"
   inkscape:version="1.4-rc1 (61ec3f24, 2024-09-26)"
   xml:space="preserve"
   xmlns:inkscape="http://www.inkscape.org/namespaces/inkscape"
   xmlns:sodipodi="http://sodipodi.sourceforge.net/DTD/sodipodi-0.dtd"
   xmlns="http://www.w3.org/2000/svg"
   xmlns:svg="http://www.w3.org/2000/svg"><defs
     id="defs2" /><sodipodi:namedview
     id="namedview2"
     pagecolor="#ffffff"
     bordercolor="#000000"
     borderopacity="0.25"
     inkscape:showpageshadow="2"
     inkscape:pageopacity="0.0"
     inkscape:pagecheckerboard="0"
     inkscape:deskcolor="#d1d1d1"
     inkscape:zoom="1.0890625"
     inkscape:cx="640"
     inkscape:cy="123.50072"
     inkscape:current-layer="layer1"
     inkscape:window-width="2512"
     inkscape:window-height="1395"
     inkscape:window-x="0"
     inkscape:window-y="23"
     inkscape:window-maximized="0" /><g
     inkscape:groupmode="layer"
     id="layer2"
     inkscape:label="Layer 2"><path
       d="M 1280,247.6528 H 0 V -1e-4 h 1280 z"
       fill="#003e78"
       id="path5"
       style="fill:#3f0000;fill-opacity:1;stroke-width:1" /></g><path
     id="path106-3"
     clip-path="none"
     style="fill:#ffffff;fill-opacity:1;fill-rule:nonzero;stroke:none;stroke-width:0.712543"
     d="m 1092.9529,159.4576 v -10.6297 h 3.5677 l 0.5344,-4.1413 h -4.1021 v -2.645 c 0,-1.1992 0.3328,-2.0165 2.0528,-2.0165 l 2.194,-7e-4 v -3.706 c -0.3798,-0.051 -1.6816,-0.1617 -3.1965,-0.1617 -3.163,0 -5.3277,1.9303 -5.3277,5.4738 v 3.0561 h -3.577 v 4.1413 h 3.577 v 10.6297 z m -1.8045,-29.4498 c -8.3659,0 -15.1484,6.7825 -15.1484,15.1485 0,8.3666 6.7825,15.1484 15.1484,15.1484 8.366,0 15.1504,-6.7818 15.1504,-15.1484 0,-8.366 -6.7844,-15.1485 -15.1504,-15.1485 z m 0,1.0098 c 7.8088,0 14.1387,6.3306 14.1387,14.1387 0,7.8087 -6.3299,14.1386 -14.1387,14.1386 -7.808,0 -14.1386,-6.3299 -14.1386,-14.1386 0,-7.8081 6.3306,-14.1387 14.1386,-14.1387 z" /><path
     id="path112-2"
     clip-path="none"
     style="fill:#ffffff;fill-opacity:1;fill-rule:nonzero;stroke:none;stroke-width:0.712543"
     d="m 1145.4719,138.5357 c -0.6705,0 -1.2149,0.5443 -1.2149,1.2149 0,0.6712 0.5444,1.2156 1.2149,1.2156 0.6712,0 1.2156,-0.5444 1.2156,-1.2156 0,-0.6706 -0.5444,-1.2149 -1.2156,-1.2149 m -5.4054,9.9962 c -1.8647,0 -3.3753,-1.5113 -3.3753,-3.3753 0,-1.864 1.5106,-3.3753 3.3753,-3.3753 1.8641,0 3.3754,1.5113 3.3754,3.3753 0,1.864 -1.5113,3.3753 -3.3754,3.3753 m 0,-8.5754 c -2.8722,0 -5.2008,2.3279 -5.2008,5.2001 0,2.8716 2.3286,5.2002 5.2008,5.2002 2.8716,0 5.2002,-2.3286 5.2002,-5.2002 0,-2.8722 -2.3286,-5.2001 -5.2002,-5.2001 m 0,-4.9273 c -2.7504,0 -3.0952,0.012 -4.1755,0.061 -1.078,0.049 -1.8141,0.2209 -2.4582,0.4703 -0.6655,0.2586 -1.2306,0.6057 -1.7935,1.1686 -0.5629,0.5629 -0.9092,1.1279 -1.1679,1.7934 -0.2508,0.6449 -0.4218,1.3802 -0.471,2.459 -0.049,1.0795 -0.061,1.4244 -0.061,4.1748 0,2.7497 0.012,3.0953 0.061,4.1748 0.049,1.0781 0.2202,1.8141 0.471,2.459 0.2587,0.6655 0.605,1.2306 1.1679,1.7935 0.5629,0.5629 1.128,0.9092 1.7935,1.1678 0.6441,0.2501 1.3802,0.4219 2.4582,0.471 1.0803,0.049 1.4251,0.061 4.1755,0.061 2.7498,0 3.0953,-0.011 4.1748,-0.061 1.0781,-0.049 1.8142,-0.2209 2.459,-0.471 0.6655,-0.2586 1.2299,-0.6049 1.7928,-1.1678 0.5636,-0.5629 0.9099,-1.128 1.1686,-1.7935 0.2501,-0.6449 0.4218,-1.3809 0.4709,-2.459 0.048,-1.0795 0.061,-1.4251 0.061,-4.1748 0,-2.7504 -0.012,-3.0953 -0.061,-4.1748 -0.049,-1.0788 -0.2208,-1.8141 -0.4709,-2.459 -0.2587,-0.6655 -0.605,-1.2305 -1.1686,-1.7934 -0.5629,-0.5629 -1.1273,-0.91 -1.7928,-1.1686 -0.6448,-0.2494 -1.3809,-0.4211 -2.459,-0.4703 -1.0795,-0.049 -1.425,-0.061 -4.1748,-0.061 m 0,1.8256 c 2.7041,0 3.0241,0.01 4.0922,0.059 0.9869,0.044 1.5234,0.2095 1.8804,0.3484 0.4724,0.1839 0.8101,0.4026 1.1643,0.7568 0.3548,0.3548 0.5736,0.6918 0.7574,1.165 0.139,0.357 0.3036,0.8928 0.3484,1.8804 0.049,1.0681 0.059,1.388 0.059,4.0921 0,2.7041 -0.01,3.0241 -0.059,4.0922 -0.045,0.9875 -0.2094,1.5234 -0.3484,1.8804 -0.1838,0.4724 -0.4026,0.8101 -0.7574,1.1643 -0.3542,0.3548 -0.6919,0.5735 -1.1643,0.7574 -0.357,0.1382 -0.8935,0.3042 -1.8804,0.3484 -1.0681,0.049 -1.3881,0.059 -4.0922,0.059 -2.7048,0 -3.0247,-0.01 -4.0921,-0.059 -0.9876,-0.044 -1.5241,-0.2102 -1.8811,-0.3484 -0.4724,-0.1839 -0.8095,-0.4026 -1.1643,-0.7574 -0.3541,-0.3542 -0.5736,-0.6919 -0.7574,-1.1643 -0.1383,-0.357 -0.3036,-0.8929 -0.3485,-1.8804 -0.049,-1.0681 -0.059,-1.3881 -0.059,-4.0922 0,-2.7041 0.01,-3.024 0.059,-4.0921 0.045,-0.9876 0.2102,-1.5234 0.3485,-1.8804 0.1838,-0.4732 0.4033,-0.8102 0.7574,-1.165 0.3548,-0.3542 0.6919,-0.5729 1.1643,-0.7568 0.357,-0.1389 0.8935,-0.3042 1.8811,-0.3484 1.0674,-0.049 1.388,-0.059 4.0921,-0.059 m -10e-5,-6.847 c -8.366,0 -15.1484,6.7825 -15.1484,15.1485 0,8.3666 6.7824,15.1484 15.1484,15.1484 8.366,0 15.1484,-6.7818 15.1484,-15.1484 0,-8.366 -6.7824,-15.1485 -15.1484,-15.1485 z m 0,1.0098 c 7.808,0 14.1386,6.3287 14.1386,14.1367 0,7.8088 -6.3306,14.1406 -14.1386,14.1406 -7.8088,0 -14.1387,-6.3318 -14.1387,-14.1406 0,-7.808 6.3299,-14.1367 14.1387,-14.1367 z" /><text
     xml:space="preserve"
     style="font-size:21.1975px;font-family:Miriam;-inkscape-font-specification:'Miriam, Normal';text-align:center;text-anchor:middle;fill:#ffffff;fill-opacity:1;stroke-width:3;stroke-linejoin:round;paint-order:markers stroke fill"
     x="494.32419"
     y="100.54562"
     id="text4-0"><tspan
       sodipodi:role="line"
       id="tspan4-3"
       style="fill:#ffffff;fill-opacity:1;stroke-width:3"
       x="494.32419"
       y="100.54562">telefono</tspan></text><path
     id="path6-6"
     d="m 438.33035,139.7046 7.22414,7.2188 v -14.4409 z m 6.41138,8.0322 -7.22143,-7.2214 c -1.42385,1.4198 -2.35165,2.3949 -3.32818,2.3949 -0.97314,0 -1.90772,-0.9751 -3.3275,-2.3949 l -7.22211,7.2214 z m -21.09922,-16.0684 9.1711,9.1718 c 1.01375,1.0151 1.74395,1.0151 2.75702,0 l 9.1711,-9.1718 z m -0.81073,15.255 7.22279,-7.2188 -7.22279,-7.2221 z"
     style="fill:#ffffff;fill-opacity:1;fill-rule:evenodd;stroke:none;stroke-width:0.676734"
     clip-path="none" /><text
     xml:space="preserve"
     style="font-style:normal;font-variant:normal;font-weight:normal;font-stretch:normal;font-size:21.1975px;font-family:Miriam;-inkscape-font-specification:'Miriam, Normal';font-variant-ligatures:normal;font-variant-caps:normal;font-variant-numeric:normal;font-variant-east-asian:normal;text-align:center;text-anchor:middle;fill:#ffffff;fill-opacity:1;stroke-width:3;stroke-linejoin:round;paint-order:markers stroke fill"
     x="452.87527"
     y="145.40889"
     id="text9-1"><tspan
       sodipodi:role="line"
       id="tspan1"
       x="452.87527"
       y="145.40889"
       style="text-align:start;text-anchor:start">info@risvegliocittadino.eu</tspan></text><path
     id="path10-5-6"
     d="m 427.66904,79.9127 c -0.0403,0.01 -0.0814,0.018 -0.12658,0.03 v 0.085 c 0.0105,0.8474 0.0218,1.6955 0.0363,2.5469 0.0185,0.9804 0.0403,1.9616 0.0629,2.942 0.0145,0.6789 0.0411,1.3529 0.0822,2.0278 0.01,0.1402 0.0282,0.2765 0.0427,0.416 0.0129,0.1104 0.0798,0.1669 0.1935,0.1733 0.0645,0.01 0.13222,0 0.19672,-0.01 0.26123,-0.044 0.49665,-0.1516 0.72724,-0.2733 0.2322,-0.1258 0.43537,-0.2766 0.60469,-0.479 0.12335,-0.1443 0.2451,-0.2886 0.37007,-0.4353 0.0395,-0.044 0.0516,-0.089 0.0492,-0.1476 -0.0161,-1.0062 -0.0306,-2.0164 -0.0452,-3.0226 -0.0129,-0.8409 -0.0266,-1.681 -0.0355,-2.522 -0.002,-0.1104 -0.0331,-0.2064 -0.0887,-0.2942 -0.0822,-0.1363 -0.19109,-0.2476 -0.31283,-0.3467 -0.21446,-0.1774 -0.45392,-0.3177 -0.70386,-0.4394 -0.21204,-0.099 -0.43134,-0.1806 -0.66435,-0.2242 -0.0605,-0.011 -0.12174,-0.023 -0.18382,-0.03 z m 14.26983,24.3343 c -0.009,-0.048 -0.0161,-0.099 -0.0306,-0.1476 -0.0782,-0.2693 -0.22897,-0.4902 -0.44263,-0.6595 -0.73208,-0.5789 -1.46335,-1.1578 -2.20268,-1.7254 -0.54744,-0.4241 -1.10053,-0.8409 -1.65362,-1.2537 -0.15963,-0.1217 -0.32814,-0.2209 -0.51277,-0.3023 -0.21285,-0.099 -0.43618,-0.1694 -0.67725,-0.1581 -0.0331,0 -0.0661,0.01 -0.0968,0.022 -0.57808,0.3023 -1.15455,0.6079 -1.73264,0.9143 -0.0145,0 -0.025,0.014 -0.0443,0.029 2.26637,1.7996 4.5279,3.5911 6.79427,5.3906 0.008,-0.023 0.0153,-0.037 0.0186,-0.056 0.16286,-0.5023 0.3233,-1.007 0.48133,-1.5085 0.0387,-0.125 0.0661,-0.254 0.0992,-0.3749 z M 420.58774,85.3686 c 0.003,-0.023 0.0105,-0.048 0.0121,-0.069 0.0169,-0.1774 0.0306,-0.3548 0.0484,-0.5281 0.0331,-0.2943 0.0919,-0.5862 0.17576,-0.87 0.27897,-0.9804 0.81754,-1.7947 1.61009,-2.4405 0.51761,-0.4201 1.0973,-0.7337 1.72053,-0.9731 0.52649,-0.1992 1.0707,-0.3427 1.62863,-0.4386 0.32169,-0.052 0.645,-0.092 0.97153,-0.1065 h 0.0444 c 0.004,0.025 0.007,0.052 0.01,0.073 0.004,0.1588 0.009,0.3169 0.0121,0.4757 0.0153,0.5192 0.029,1.0352 0.0452,1.5552 0.0234,0.7821 0.0476,1.5674 0.0718,2.3487 0.007,0.3321 0.0177,0.6635 0.0274,0.9989 0.0202,0.6821 0.0403,1.3601 0.0605,2.039 0.007,0.2685 0.0137,0.5378 0.0242,0.803 0.002,0.041 -0.0242,0.052 -0.0532,0.067 -0.23865,0.1105 -0.46037,0.2508 -0.66355,0.4201 -0.43537,0.3685 -0.69579,0.8329 -0.78932,1.3932 -0.0701,0.4241 -0.0411,0.8369 0.0589,1.2537 0.05,0.2169 0.12174,0.4273 0.22575,0.6297 0.93203,1.8471 1.87534,3.687 2.85251,5.5115 0.44264,0.8192 0.88849,1.6367 1.35854,2.4373 0.23381,0.4024 0.47327,0.7998 0.74658,1.1796 0.19915,0.2765 0.4386,0.5047 0.74095,0.6635 0.19753,0.1032 0.40554,0.1693 0.62323,0.2032 0.40877,0.055 0.80544,0 1.19245,-0.133 0.21768,-0.074 0.4257,-0.1629 0.62484,-0.2766 0.007,0 0.0145,-0.01 0.0258,-0.011 2.20026,1.7294 4.40213,3.458 6.60964,5.1947 -0.0218,0.018 -0.0403,0.03 -0.0605,0.04 -0.54422,0.3475 -1.11907,0.6378 -1.71247,0.8925 -0.93606,0.3983 -1.89872,0.716 -2.88799,0.9546 -0.0137,0 -0.025,0.01 -0.0355,0.011 h -1.66652 c -0.0105,0 -0.0218,-0.011 -0.0355,-0.011 -0.37652,-0.055 -0.74337,-0.1427 -1.10779,-0.2612 -0.66677,-0.2169 -1.29484,-0.5232 -1.89388,-0.8877 -0.70064,-0.4249 -1.34967,-0.9223 -1.96564,-1.4641 -0.6966,-0.612 -1.3416,-1.2755 -1.95355,-1.9721 -0.69902,-0.7926 -1.34885,-1.623 -1.97047,-2.4736 -0.5547,-0.7635 -1.08602,-1.548 -1.60847,-2.3373 -0.33218,-0.4942 -0.61598,-1.0183 -0.86672,-1.5561 -0.25075,-0.5418 -0.47005,-1.0949 -0.66274,-1.6584 -0.37652,-1.0917 -0.66113,-2.2051 -0.88123,-3.3371 -0.0798,-0.4015 -0.14835,-0.803 -0.21608,-1.2086 -0.05,-0.2991 -0.0903,-0.5934 -0.13142,-0.8917 -0.0387,-0.3023 -0.0734,-0.6014 -0.10642,-0.9038 -0.0315,-0.2798 -0.0597,-0.5603 -0.0847,-0.8401 -0.0258,-0.3096 -0.05,-0.616 -0.0685,-0.9256 -0.0234,-0.4096 -0.0427,-0.8183 -0.0629,-1.2271 -0.0105,-0.2403 -0.0169,-0.4797 -0.0274,-0.7192 0,-0.023 -0.006,-0.048 -0.009,-0.074 z"
     style="fill:#ffffff;fill-opacity:1;fill-rule:evenodd;stroke:none;stroke-width:0.806251"
     clip-path="none" /><path
     id="path1-7"
     clip-path="none"
     style="fill:#ffffff;fill-opacity:1;fill-rule:nonzero;stroke:none;stroke-width:0.261528"
     d="m 1190.8912,133.6345 c 0,0 -9.9336,-7e-4 -12.4112,0.6632 -1.367,0.3654 -2.4443,1.4426 -2.8097,2.8096 -0.6637,2.4778 -0.6632,7.6469 -0.6632,7.6469 0,0 -5e-4,5.1694 0.6632,7.6468 0.3654,1.367 1.4427,2.4442 2.8097,2.8096 2.4776,0.6641 12.4112,0.6632 12.4112,0.6632 0,0 9.9364,9e-4 12.414,-0.6632 1.367,-0.3654 2.4443,-1.4426 2.8097,-2.8096 0.664,-2.4774 0.6632,-7.6468 0.6632,-7.6468 0,0 8e-4,-5.1691 -0.6632,-7.6469 -0.3654,-1.367 -1.4427,-2.4442 -2.8097,-2.8096 -2.4776,-0.6639 -12.414,-0.6632 -12.414,-0.6632 z m -3.1763,6.3552 8.2536,4.7645 -8.2536,4.7671 z" /><g
     inkscape:groupmode="layer"
     id="layer1"
     inkscape:label="Layer 1"><g
       id="g44"
       transform="matrix(0.21969366,0,0,0.21969366,95.503587,56.021517)"><g
         id="Layer_1"><g
           id="g43"><g
             id="g4"><path
               class="cls-5"
               d="M 253,506 C 185.4,506 121.9,479.7 74.1,431.9 26.3,384.1 0,320.6 0,253 0,185.4 26.3,121.9 74.1,74.1 121.9,26.3 185.4,0 253,0 320.6,0 384.1,26.3 431.9,74.1 479.7,121.9 506,185.4 506,253 506,320.6 479.7,384.1 431.9,431.9 384.1,479.7 320.6,506 253,506"
               id="path1"
               style="fill:#009640" /><path
               class="cls-4"
               d="M 253,500.4 C 186.9,500.4 124.8,474.7 78.1,428 31.4,381.2 5.7,319.1 5.7,253 5.7,186.9 31.4,124.8 78.1,78.1 124.8,31.4 187,5.7 253,5.7 c 66,0 128.2,25.7 174.9,72.4 46.7,46.7 72.4,108.8 72.4,174.9 0,66.1 -25.7,128.2 -72.4,174.9 -46.7,46.7 -108.8,72.4 -174.9,72.4"
               id="path2"
               style="fill:#ffffff" /><path
               class="cls-1"
               d="M 253,494.7 C 188.4,494.7 127.8,469.6 82.1,423.9 36.5,378.3 11.3,317.6 11.3,253 11.3,188.4 36.4,127.8 82.1,82.1 127.8,36.5 188.5,11.3 253,11.3 c 64.5,0 125.2,25.1 170.9,70.8 45.6,45.6 70.8,106.3 70.8,170.9 0,64.6 -25.1,125.2 -70.8,170.9 -45.6,45.6 -106.3,70.8 -170.9,70.8"
               id="path3"
               style="fill:#e42320" /><path
               class="cls-4"
               d="M 489,253 C 489,383.3 383.3,489 253,489 122.7,489 17,383.4 17,253 17,122.6 122.7,17 253,17 383.3,17 489,122.7 489,253"
               id="path4"
               style="fill:#ffffff" /></g><g
             id="g22"><path
               class="cls-1"
               d="m 47.5,369 c 40.5,71.6 117.4,120 205.6,120 88.2,0 165,-48.4 205.6,-120 z"
               id="path5-7"
               style="fill:#e42320" /><g
               id="g21"><path
                 class="cls-4"
                 d="m 106.8,412.2 c -1.2,-0.5 -2.9,-1.7 -4.2,-3 -3.8,-3.9 -3.7,-8.5 0.1,-12.3 4.2,-4.2 9,-3.6 12.4,-0.2 1.5,1.5 2.4,3.1 2.9,4.3 l 4.3,-2.5 c -0.4,-1.2 -1.6,-3.3 -3.8,-5.5 -5.8,-5.8 -14,-6.8 -20.5,-0.3 -5.4,5.4 -6.2,12.9 0.4,19.5 2.3,2.3 4.5,3.7 5.7,4.1 l 2.7,-4 z"
                 id="path6"
                 style="fill:#ffffff" /><path
                 class="cls-4"
                 d="m 124.2,413.4 c 2.2,1.7 1.2,4.7 -0.7,7 -2.2,2.7 -4.9,3.6 -6.7,2.2 -2,-1.6 -1.5,-4.5 0.6,-7.1 2.1,-2.6 4.5,-3.9 6.8,-2.1 z m 2.8,-3.2 c -4.9,-3.9 -10.7,-3.4 -14.6,1.5 -3.9,4.9 -2.9,10.6 1.6,14.2 4.1,3.3 10.1,3.9 14.6,-1.7 4.5,-5.6 3.1,-10.3 -1.5,-14.1 z"
                 id="path7"
                 style="fill:#ffffff" /><path
                 class="cls-4"
                 d="m 126.7,435 5.1,3.4 5.5,-8.3 c 0.3,-0.4 0.6,-0.8 0.8,-1.1 1.4,-1.3 3.3,-1.5 5.2,-0.3 0.6,0.4 1,0.7 1.3,1 l 3.2,-4.8 c -0.3,-0.3 -0.6,-0.5 -1,-0.8 -1.6,-1 -4.2,-1.4 -6.6,0.5 h -0.1 c 0,0 1.8,-3.2 1.8,-3.2 l -4.4,-2.9 c -0.9,1.4 -1.8,3.1 -3.4,5.5 l -7.2,10.9 z"
                 id="path8"
                 style="fill:#ffffff" /><path
                 class="cls-4"
                 d="m 157,420.9 c -1.7,-1 -3.5,-0.5 -4.3,1.1 -0.9,1.4 -0.4,3.3 1.2,4.2 1.6,0.9 3.5,0.4 4.4,-1 0.8,-1.5 0.4,-3.3 -1.3,-4.3 z m -11.3,25.8 9.7,-17 -5.3,-3 -9.7,17 z"
                 id="path9-4"
                 style="fill:#ffffff" /><path
                 class="cls-4"
                 d="m 166.2,447.2 c -0.2,0.5 -0.5,1 -0.9,1.4 -1,1.1 -2.5,1.6 -3.9,0.9 -2.3,-1.1 -2.7,-3.8 -1.4,-6.4 1.5,-3.2 4,-4.3 6,-3.4 1.5,0.7 2.1,2.2 1.8,3.8 0,0.3 -0.2,0.7 -0.4,1.1 z m 5.4,-9.4 -1.2,2 v 0 c -0.2,-1.9 -1.3,-3.7 -3.7,-4.8 -4.4,-2 -9.7,-0.1 -12.4,5.6 -2.4,5.1 -0.9,10.1 3.5,12.2 2,0.9 4.1,0.9 5.9,0 v 0 c 0,0 -0.5,1.2 -0.5,1.2 -1.5,3.3 -4.2,3.8 -6.8,2.5 -2.1,-1 -3.7,-2.6 -4.5,-3.7 l -3,3.7 c 1.2,1.6 3.4,3.3 5.7,4.3 2.3,1 5.5,1.9 8.2,1.2 2.8,-0.8 4.8,-3.3 6.4,-6.7 l 4.6,-9.9 c 1.2,-2.6 2,-4.1 2.6,-5.2 l -4.8,-2.2 z"
                 id="path10"
                 style="fill:#ffffff" /><rect
                 class="cls-4"
                 x="167.5"
                 y="444.5"
                 width="28.4"
                 height="6.0999999"
                 transform="rotate(-69.9,181.46804,447.45752)"
                 id="rect10"
                 style="fill:#ffffff" /><path
                 class="cls-4"
                 d="m 196.3,437.9 c -1.9,-0.6 -3.5,0.3 -4,2 -0.5,1.6 0.3,3.3 2.1,3.8 1.8,0.5 3.5,-0.3 4,-1.9 0.5,-1.7 -0.3,-3.3 -2.2,-3.9 z m -5.4,27.7 5.7,-18.7 -5.8,-1.8 -5.7,18.7 z"
                 id="path11"
                 style="fill:#ffffff" /><path
                 class="cls-4"
                 d="m 208.6,462.7 c 0,0.4 -0.2,0.7 -0.3,1 -0.7,1.1 -2.1,1.8 -3.6,1.5 -1.3,-0.3 -2.2,-1.3 -1.8,-2.8 0.5,-2.3 3.1,-2.5 6.2,-1.8 z m 4.5,8.3 c 0,-1.1 0.4,-2.9 0.8,-4.7 l 1.5,-6.6 c 1,-4.5 -0.2,-8.7 -6.6,-10.1 -3.5,-0.8 -6.3,-0.4 -7.8,0 l 0.2,4.1 c 1.4,-0.5 3.6,-0.7 5.6,-0.3 2.9,0.7 3.2,2.2 2.9,3.2 v 0.3 c -6.8,-1.5 -11.8,-0.1 -12.9,4.8 -0.7,3 1,6.4 4.9,7.2 2.3,0.5 4.4,0.1 6,-1.1 h 0.1 c 0,0 0,2 0,2 z"
                 id="path12"
                 style="fill:#ffffff" /><path
                 class="cls-4"
                 d="m 219.4,472 6,0.7 1.2,-11.2 c 0,-0.6 0.2,-1.1 0.4,-1.5 0.5,-1.1 1.6,-2.1 3.3,-1.9 2.2,0.2 2.9,2 2.6,4.6 l -1.2,10.8 6,0.7 1.3,-11.5 c 0.6,-5.7 -2.1,-8.7 -6,-9.1 -3.2,-0.4 -5.4,1.3 -6.3,2.4 h -0.1 c 0,0 0,-2.7 0,-2.7 l -5.2,-0.6 c -0.1,1.7 -0.3,3.8 -0.5,6.2 l -1.5,13.2 z"
                 id="path13"
                 style="fill:#ffffff" /><path
                 class="cls-4"
                 d="m 253.7,458.7 c 2.8,0 3.9,2.9 4,5.8 0,3.5 -1.4,5.9 -3.8,5.9 -2.6,0 -4,-2.5 -4.1,-5.8 -0.1,-3.3 1,-5.9 3.9,-5.9 z m 0.1,-4.3 c -6.3,0.1 -10.4,4.2 -10.3,10.5 0.1,6.3 4.6,10 10.3,9.9 5.2,0 10.3,-3.4 10.2,-10.6 0,-5.9 -4.2,-9.9 -10.2,-9.8 z"
                 id="path14"
                 style="fill:#ffffff" /><path
                 class="cls-4"
                 d="m 280.9,450 c 0.4,-0.1 1.2,-0.4 2.7,-0.6 2.8,-0.4 4.6,0.6 5,3 0.4,2.3 -1.2,4.1 -4.2,4.6 l -2.4,0.4 z m -2.5,23.1 6,-0.9 -1.6,-10.5 1.8,-0.3 c 2.5,-0.3 3.7,0.4 5,3.6 1.3,3.2 2.3,5.2 2.8,5.9 l 6.2,-1 c -0.7,-0.9 -2,-4.3 -3.3,-7.2 -1.1,-2.3 -2.4,-4 -4.3,-4.4 v 0 c 2.2,-1.3 4.2,-4 3.7,-7.4 -0.4,-2.5 -1.5,-4.2 -3.3,-5.2 -2.1,-1.2 -5,-1.4 -8.9,-0.7 -3.2,0.5 -6,1.2 -7.9,1.8 l 4.1,26.3 z"
                 id="path15"
                 style="fill:#ffffff" /><path
                 class="cls-4"
                 d="m 308.1,451.3 c 2.7,-0.7 4.5,1.8 5.3,4.6 0.9,3.4 0.1,6.1 -2.2,6.7 -2.5,0.7 -4.5,-1.4 -5.4,-4.6 -0.9,-3.2 -0.5,-6 2.3,-6.7 z m -1,-4.3 c -6.1,1.7 -9,6.7 -7.3,12.8 1.7,6.1 6.9,8.5 12.4,7 5.1,-1.4 9.1,-5.9 7.2,-12.8 -1.6,-5.7 -6.5,-8.6 -12.3,-7 z"
                 id="path16"
                 style="fill:#ffffff" /><path
                 class="cls-4"
                 d="m 325.8,461.3 c 1.7,0.2 4,0 6.4,-1 5.2,-2 6.9,-5.6 5.6,-9 -1.1,-2.7 -3.2,-3.9 -7.1,-3.7 -2.5,0 -3.4,0 -3.8,-0.9 -0.4,-0.9 0.2,-1.8 1.6,-2.3 1.6,-0.6 3.4,-0.6 4.4,-0.5 l -0.5,-4.3 c -1.3,-0.1 -3.4,0.1 -5.6,0.9 -4.5,1.7 -6.4,5.4 -5.1,8.8 0.8,2.2 3.1,3.7 7.3,3.5 2.4,-0.1 3.1,0.1 3.5,1 0.4,0.9 -0.1,1.8 -1.8,2.5 -1.7,0.7 -4.1,0.7 -5.4,0.5 l 0.6,4.5 z"
                 id="path17"
                 style="fill:#ffffff" /><path
                 class="cls-4"
                 d="m 343.2,454.4 c 1.7,0 4,-0.4 6.3,-1.6 5,-2.5 6.4,-6.1 4.8,-9.4 -1.3,-2.6 -3.5,-3.6 -7.4,-3.1 -2.5,0.3 -3.4,0.2 -3.8,-0.6 -0.4,-0.9 0,-1.8 1.4,-2.5 1.5,-0.7 3.3,-0.9 4.3,-0.9 l -0.9,-4.2 c -1.3,0 -3.4,0.4 -5.5,1.4 -4.3,2.1 -5.9,6 -4.3,9.2 1,2.1 3.4,3.4 7.6,2.8 2.4,-0.3 3.1,-0.2 3.6,0.7 0.5,0.9 0,1.8 -1.6,2.6 -1.6,0.8 -4.1,1.1 -5.4,1 l 0.9,4.4 z"
                 id="path18"
                 style="fill:#ffffff" /><path
                 class="cls-4"
                 d="m 366.7,434.7 c 0.2,0.3 0.3,0.6 0.4,0.9 0.3,1.3 -0.2,2.8 -1.5,3.6 -1.3,0.8 -2.4,0.6 -3.3,-0.7 -1.2,-2 0.5,-4 3.2,-5.6 l 1.1,1.8 z m 9,2.8 c -0.7,-0.8 -1.7,-2.3 -2.7,-3.9 l -3.5,-5.8 c -2.4,-3.9 -6.2,-6.1 -11.7,-2.7 -5.5,3.4 -4.8,4.1 -5.6,5.4 l 3,2.8 c 0.7,-1.4 2.1,-3 3.8,-4.1 2.6,-1.6 3.8,-0.6 4.4,0.3 v 0.2 c -5.8,3.6 -8.4,8 -5.7,12.4 2.7,4.4 5.1,3.9 8.5,1.8 3.4,-2.1 3.2,-3 3.5,-5 h 0.1 c 0,0 1.3,1.4 1.3,1.4 l 4.7,-2.9 z"
                 id="path19"
                 style="fill:#ffffff" /><path
                 class="cls-4"
                 d="m 381,434 4.8,-3.7 -6.9,-8.9 c -0.3,-0.4 -0.6,-1 -0.7,-1.3 -0.4,-1.1 -0.3,-2.7 1,-3.7 1.7,-1.3 3.5,-0.5 5,1.5 l 6.6,8.6 4.8,-3.7 -7.1,-9.2 c -3.5,-4.6 -7.5,-4.8 -10.7,-2.4 -2.6,2 -3,4.7 -2.9,6.2 v 0 c 0,0 -1.9,-1.9 -1.9,-1.9 l -4.2,3.2 c 1.1,1.3 2.4,2.9 3.9,4.8 l 8.1,10.5 z"
                 id="path20"
                 style="fill:#ffffff" /><path
                 class="cls-4"
                 d="m 396.4,400.6 c 2,-1.9 4.8,-0.6 6.9,1.5 2.5,2.5 3,5.3 1.3,6.9 -1.9,1.8 -4.6,1 -7,-1.4 -2.4,-2.4 -3.3,-5 -1.2,-7 z m -2.9,-3.3 c -4.5,4.4 -4.7,10.2 -0.3,14.7 4.4,4.5 10.2,4.2 14.3,0.2 3.8,-3.6 5.1,-9.5 0.1,-14.7 -4.1,-4.2 -9.8,-4.4 -14.1,-0.2 z"
                 id="path21"
                 style="fill:#ffffff" /></g></g><g
             id="g42"><g
               id="g23"><path
                 class="cls-3"
                 d="m 370.3,245.6 c -16.9,0 -32.4,-5.3 -43,-15 -9,-8.3 -14.5,-19.7 -14.3,-33.8 0,-14.3 6.3,-25.7 16.3,-33.7 11.3,-9.1 27.4,-13.9 44.5,-13.9 h 30.8 l 24.1,-51.6 h -66.3 c -28.3,0 -57.9,10 -79.3,28.4 -2.5,2.1 -4.9,4.4 -7.1,6.8 5.8,10.3 8.8,22 8.8,34.7 0,20.2 -5.3,36.8 -15.7,49.3 -3.4,4 -7.3,7.6 -11.7,10.8 6.4,18.3 18,32.1 33.2,44.1 19.4,15.4 44.7,24.4 72.1,24.4 h 66 l -23.5,-50.3 h -34.8 z"
                 id="path22"
                 style="fill:#52dd80" /><path
                 class="cls-2"
                 d="m 56.5,149.4 35,-51.6 h 90.6 c 23,0 46,5.8 63.3,17.4 17.5,11.7 29.2,29.1 29.2,52.3 0,23.2 -4.9,32.7 -13.4,42.8 -9.1,10.8 -22.3,17.4 -38.1,20.7 l 64.5,65.2 h -83.4 l -43.5,-52 H 118.1 V 297 H 56.5 V 195 h 117 c 10.9,0 20.4,-1.5 27.1,-5.2 6.7,-3.6 10.8,-9.3 10.8,-17.6 0,-8.3 -2.8,-12.6 -7.8,-16.2 -6.4,-4.7 -16.4,-6.6 -28.8,-6.6 z"
                 id="path23"
                 style="fill:#0070b0" /></g><g
               id="g41"><path
                 class="cls-4"
                 d="m 326.5,175.2 c -0.2,-0.5 -0.4,-0.8 -0.5,-1 0,0 0,0 -0.1,-0.1 -0.3,-0.5 -0.7,-0.9 -0.9,-1.5 v 0 c -0.6,-1.1 -1,-2.3 -1.4,-3.6 -0.4,-1.4 -0.7,-2.8 -1.1,-4.2 -0.4,-1.6 -1,-3.2 -1.7,-4.8 v 0 c -1.1,-2.5 -2.8,-4.8 -4.8,-6.6 -2.3,-2.1 -4.8,-3.7 -7.4,-5 -0.9,-0.4 -1.7,-0.8 -2.4,-1.1 0,0 0,0 0,0 0,-0.8 0,-1.7 0.1,-2.5 v 0 c 0,-0.5 0,-0.6 0,-0.7 0,-0.1 0,-0.3 0,-0.4 0.5,-0.5 1.1,-1 1.5,-1.5 1.6,-1.7 2.9,-3.8 3.5,-6.4 0.2,-0.9 0.3,-1.8 0.3,-2.7 0,-0.9 -0.1,-1.9 -0.3,-2.8 -0.6,-2.4 -1.8,-4.4 -3.4,-6 -2.1,-2.1 -4.7,-3.5 -7.3,-4.3 -1.3,-0.4 -2.7,-0.7 -4,-0.9 -1,-0.1 -2.1,-0.2 -3.1,-0.2 -2.8,0 -5.5,0.5 -8.1,1.2 -0.6,-1 -1.2,-2 -2.1,-3 -1.3,-1.4 -3,-2.5 -5,-3 -1.1,-0.3 -2.1,-0.4 -3.1,-0.4 H 275 c -1.4,0 -2.7,0.2 -3.9,0.4 v 0 c -0.6,0 -1.1,0.1 -1.7,0.1 -1,0 -2,-0.1 -3.1,-0.4 -1.3,-0.3 -2.7,-0.8 -4.3,-1.4 -0.5,-0.2 -1.2,-0.4 -2,-0.6 -1.4,-0.4 -2.9,-0.6 -4.5,-0.6 v 0 h -0.2 c -2,0 -4,0.3 -6,1.3 -1.3,0.6 -2.6,1.4 -3.6,2.5 -1,1 -1.9,2.3 -2.5,3.7 -0.6,1.5 -1,3.1 -1,4.7 0,0.5 0,1.1 0.1,1.6 v 0 c 0.2,1.5 0.7,2.9 1.3,4.2 0.7,1.3 1.5,2.4 2.5,3.4 0.1,0.1 0.3,0.3 0.4,0.4 h 0.1 c 0.1,0.2 0.3,0.3 0.4,0.3 0,0.3 0,0.6 0,0.9 v 0 c 0,0.1 0,0.1 0,0.1 0,0.7 0,1.3 0,1.9 0,0.3 0,0.6 0,0.9 -1.1,0 -2.2,0 -3.4,0.3 -0.8,0.2 -1.7,0.4 -2.5,0.8 -0.8,0.4 -1.6,1 -2.2,1.7 -0.6,0.7 -1.1,1.6 -1.4,2.5 v 0 c 0,0.3 -0.2,0.6 -0.2,0.9 -0.3,0.1 -0.5,0.2 -0.8,0.4 -1.3,0.6 -2.6,1.5 -3.7,2.7 -1,1.1 -1.7,2.5 -2.1,3.9 -0.2,0.8 -0.3,1.7 -0.3,2.5 0,0.6 0,1.2 0.1,1.7 0.4,3.1 1.6,5.9 3.4,8.4 v 0 c 0.3,0.5 0.6,0.9 0.9,1.3 v 0 c 1.3,1.8 2.6,3.6 4,5.4 1.4,1.9 3,3.8 4.7,5.6 2.2,2.2 4.6,4.2 7.5,5.7 -1.2,0.5 -2.4,1.1 -3.5,1.8 -2.3,1.6 -4.1,3.6 -5.6,5.6 -0.2,0.2 -0.3,0.5 -0.4,0.7 v 0.2 c -0.7,1.5 0,3.1 1.4,3.9 0.5,0.3 1.1,0.4 1.6,0.4 0.4,0 0.7,0 0.9,-0.1 v 0 c 0.8,-0.1 1.6,-0.2 2.3,-0.2 0.7,0 0.8,0 1.2,0 v 0 c 1.1,0.1 2.1,0.2 3.2,0.4 v 0 c 1.2,0.2 2.6,0.3 3.9,0.3 0.3,0 0.5,0 0.8,0 v 0 c 1.8,0 3.4,-0.6 4.8,-1.4 v 0 c 0.7,-0.4 1.3,-0.9 1.9,-1.4 -0.2,2.1 -0.4,4.3 -0.7,6.4 -0.6,4.7 -1.5,9.3 -2.6,13.8 -0.4,1.6 -0.8,3.1 -1.3,4.7 -0.5,1.6 -1,3.3 -1.5,4.9 -0.5,1.4 -1,2.9 -1.6,4.3 -0.3,0.8 -0.6,1.6 -1,2.5 -0.4,0.9 -0.7,1.7 -1,2.5 -0.3,-1.6 -0.6,-3.1 -1,-4.6 -0.9,-3.2 -2.3,-6.3 -4,-9.2 -1.5,-2.5 -3.3,-4.7 -5.2,-6.8 -2.2,-2.4 -4.7,-4.5 -7.2,-6.4 -2.4,-1.8 -4.9,-3.3 -7.5,-4.7 -1.6,-0.9 -3.3,-1.7 -4.9,-2.5 v 0 c -0.4,-0.2 -0.6,-0.2 -0.8,-0.3 h -0.1 c 0,0 0,0 0,0 v 0 c -1.5,-0.4 -3,0.4 -3.6,1.8 v 0 c 0,0 0,0 0,0.2 0,0.1 -0.1,0.4 -0.2,0.7 -0.1,0.7 -0.3,1.5 -0.4,2.3 -0.5,3 -0.7,6 -0.7,9 0,0.6 0,1.1 0,1.7 0.1,3 0.5,6 1.3,9 0.7,2.6 1.8,5.2 3.3,7.5 1.8,2.9 4.2,5.3 6.9,7.3 1.2,0.9 2.5,1.7 3.8,2.4 0.9,0.5 1.8,0.9 2.6,1.3 0.8,0.4 1.6,0.6 2.2,0.9 v 0 c 1.1,0.4 2.1,0.7 3,1 v 0 c 1.1,0.3 2.2,0.6 3.2,0.8 v 0 c 0.6,0.1 1.1,0.2 1.5,0.3 v 0 c 0,0 0.3,0 0.8,0 0.3,0 0.6,0 0.9,-0.1 0.2,0 0.4,-0.1 0.5,-0.2 -0.2,0.4 -0.4,0.8 -0.7,1.2 -1.2,2.1 -2.4,4.2 -3.7,6.2 -1.5,2.3 -3,4.6 -4.6,6.9 -2.1,3 -4.3,5.9 -6.6,8.7 -0.5,0.7 -1.1,1.3 -1.6,2 0,0 -0.2,0.2 -0.4,0.5 -0.1,0.2 -0.2,0.5 -0.3,0.8 0,0.3 -0.1,0.5 -0.1,0.8 -0.1,0.2 -0.3,0.3 -0.4,0.5 -1,1.1 -2.1,2.2 -3.2,3.3 v 0 c -0.6,0.6 -1.2,1.2 -1.9,1.8 v 0 c -0.8,0.8 -1.6,1.5 -2.4,2.2 -0.8,0.8 -1.7,1.5 -2.6,2.3 -1.1,1 -2.3,2 -3.6,3 -1.4,1.1 -2.8,2.2 -4.3,3.3 v 0 c -1.9,1.4 -3.9,2.8 -5.9,4.2 -2.3,1.5 -4.6,3 -7,4.4 -3.1,1.9 -6.3,3.6 -9.5,5.3 -0.8,0.4 -1.5,0.8 -2.3,1.2 0,0 0,0 -0.2,0 -0.2,0.1 -0.6,0.3 -1,0.8 -0.4,0.4 -0.7,1.1 -0.8,1.6 -0.2,0.9 0,1.8 0.6,2.5 l 0.2,0.2 0.2,0.2 c 0.2,0.2 0.4,0.4 0.5,0.5 1.4,1.4 2.7,2.7 4.1,4.1 0,0 0.2,0.2 0.5,0.5 0.3,0.3 0.9,0.6 1.6,0.7 0.8,0.2 1.5,0 2.2,-0.4 0,0 0.3,-0.2 0.6,-0.4 v 0 c 2.2,-1.5 4.5,-2.9 6.8,-4.4 1.7,-1.1 3.3,-2.2 4.9,-3.4 1.3,-0.9 2.5,-1.8 3.7,-2.7 v 0 c 1.1,-0.8 2.2,-1.6 3.2,-2.4 1.2,-0.9 2.4,-1.9 3.6,-2.8 0.9,-0.7 1.8,-1.4 2.7,-2.2 0.8,-0.7 1.6,-1.3 2.3,-2 1.1,-1 2.2,-1.9 3.4,-3 1.1,-1 2.2,-2 3.4,-3.1 1.3,-1.2 2.5,-2.5 3.7,-3.7 1.4,-1.4 2.8,-2.9 4.1,-4.3 0.8,-0.8 1.5,-1.7 2.2,-2.5 0.2,0 0.4,0 0.6,0 0.3,0 0.5,0 0.8,0 0.8,-0.2 1.4,-0.6 1.9,-1.2 0,0 0.2,-0.3 0.4,-0.6 v 0 c 1.5,-2.2 2.9,-4.5 4.4,-6.8 1.1,-1.7 2.1,-3.4 3.1,-5.1 0.8,-1.3 1.6,-2.7 2.3,-4 v 0 c 0.7,-1.2 1.3,-2.3 2,-3.5 v 0 c 0.7,-1.3 1.4,-2.7 2.1,-4 0.5,-1 1.1,-2 1.6,-3.1 0.5,-0.9 0.9,-1.8 1.3,-2.7 0.6,-1.3 1.3,-2.7 1.9,-4.1 0.6,-1.4 1.2,-2.8 1.8,-4.2 v 0 c 0.2,-0.5 0.4,-1.1 0.6,-1.6 0,0 0,0 0,0 0,0 0.1,0.2 0.3,0.4 0.2,0.2 0.4,0.4 0.7,0.6 v 0 c 0.5,0.3 1.1,0.7 1.7,1 0.9,0.5 1.8,1 2.8,1.4 0.9,0.4 1.9,0.9 2.9,1.3 1.6,0.7 3.3,1.2 5,1.6 v 0 c 1.6,0.4 3.3,0.7 5,0.8 0.8,0 1.5,0 2.3,0 2.1,0 4.1,-0.2 6.2,-0.7 3.3,-0.8 6.4,-2.2 9.1,-4.1 2.8,-1.8 5.2,-4 7.3,-6.4 2.6,-2.9 4.9,-6.1 6.9,-9.3 v 0 c 0.1,-0.2 0.2,-0.4 0.3,-0.5 v 0 c 0,-0.1 0,-0.1 0,-0.1 v 0 c 0.5,-1.1 0.3,-2.5 -0.5,-3.4 -0.5,-0.5 -1.1,-0.9 -1.5,-1 -0.2,0 -0.4,-0.1 -0.5,-0.1 v 0 c 0,0 0,0 0,0 v 0 c -1.8,-0.5 -3.5,-1 -5.3,-1.4 v 0 c -2.4,-0.5 -4.8,-1 -7.3,-1.3 -2.2,-0.3 -4.4,-0.4 -6.5,-0.4 -2,0 -4.1,0.1 -6.1,0.4 -3.8,0.5 -7.4,1.5 -10.9,3 -2.4,1.1 -4.7,2.4 -6.9,4 0.1,-0.4 0.3,-0.9 0.4,-1.4 v 0 c 0,0 0,0 0,0 0.5,-1.8 0.9,-3.6 1.3,-5.4 0.5,-2.1 0.9,-4.3 1.3,-6.4 0.7,-4.1 1.2,-8.3 1.4,-12.5 0.9,0.7 1.9,1.4 3,1.8 1,0.4 2,0.8 3.2,1.1 v 0 c 0.4,0 0.8,0.2 1.3,0.4 v 0 c 0.7,0.2 1.3,0.4 2,0.6 v 0 c 0.9,0.3 1.8,0.7 2.5,1.1 v 0 c 0.7,0.4 1.2,0.9 1.7,1.6 0,0.1 0.2,0.3 0.4,0.5 0.2,0.2 0.4,0.4 0.7,0.6 0.3,0.2 0.6,0.3 1,0.4 1.5,0.4 3,-0.5 3.6,-1.9 v 0 c 0,0 0,0 0,-0.3 0,-0.2 0.1,-0.4 0.2,-0.8 v 0 c 0,-0.5 0.1,-1.2 0.2,-2 v 0 c 0,0 0,-0.2 0,-0.3 0,-1.8 -0.4,-3.7 -1.1,-5.4 0.3,0 0.6,0 0.9,0 2.1,0 4.1,-0.4 6.1,-1.3 1.8,-0.8 3.4,-1.8 4.8,-3 1.6,-1.3 3.1,-2.8 4.4,-4.2 0.7,-0.7 1.4,-1.4 2,-2 v 0 c 1.3,-1.1 2.6,-2 4.1,-2.5 1.1,-0.4 2.1,-0.6 3.2,-0.6 1,0 2.1,0.2 3.2,0.5 0.3,0.1 0.7,0.3 1.3,0.5 0.3,0.1 0.6,0.2 0.7,0.2 h 0.1 c 0,0 0,0 0,0 v 0 c 0.9,0.1 1.9,-0.1 2.5,-0.7 0.7,-0.6 1.1,-1.5 1,-2.5 0,-0.3 0,-0.7 -0.2,-1 z"
                 id="path24"
                 style="fill:#ffffff" /><g
                 id="g30"><path
                   d="m 240.4,271.9 c -0.3,0 -0.4,0 -0.6,-0.1 -1.8,-0.7 -3.6,-1.4 -5.4,-2.1 -0.2,0 -0.4,-0.2 -0.6,-0.2 0,0 -0.2,0 -0.2,-0.1 0,-0.2 0,-0.3 0.2,-0.4 0.6,-0.7 1.1,-1.4 1.7,-2.1 2.3,-2.9 4.5,-5.9 6.7,-8.9 1.6,-2.3 3.2,-4.6 4.7,-7 1.3,-2.1 2.6,-4.2 3.8,-6.4 0.9,-1.6 1.8,-3.2 2.6,-4.9 0.7,-1.4 1.5,-2.9 2.1,-4.4 0.5,-1.1 1,-2.1 1.4,-3.2 0.4,-1 0.9,-2 1.3,-3.1 0.3,-0.8 0.7,-1.7 1,-2.6 0.5,-1.5 1.1,-2.9 1.6,-4.4 0.6,-1.7 1.1,-3.3 1.6,-5 0.5,-1.6 0.9,-3.2 1.3,-4.8 1.2,-4.7 2.1,-9.4 2.7,-14.2 0.4,-2.9 0.7,-5.7 0.9,-8.6 0,-0.2 0,-0.4 0,-0.6 0.2,0 0.4,0.1 0.5,0.2 0.5,0.3 1,0.6 1.5,0.9 0.4,0.3 0.9,0.5 1.3,0.8 0.3,0.1 0.3,0.3 0.3,0.6 0,0.5 0,1 0,1.5 -0.2,4.4 -0.7,8.8 -1.4,13.2 -0.4,2.1 -0.7,4.1 -1.2,6.2 -0.4,1.8 -0.9,3.6 -1.3,5.3 -0.2,0.9 -0.5,1.9 -0.8,2.8 -0.4,1.3 -0.8,2.5 -1.2,3.7 -0.6,1.8 -1.2,3.6 -1.9,5.4 -0.6,1.6 -1.2,3.2 -1.9,4.8 -0.6,1.4 -1.2,2.8 -1.8,4.1 -0.6,1.3 -1.2,2.7 -1.9,4 -0.4,0.9 -0.8,1.8 -1.3,2.7 -0.5,1 -1,2 -1.6,3 -0.7,1.3 -1.4,2.6 -2.1,4 -0.6,1.2 -1.3,2.3 -1.9,3.5 -0.8,1.3 -1.5,2.6 -2.3,3.9 -1,1.7 -2,3.3 -3.1,5 -1.4,2.3 -2.9,4.5 -4.4,6.7 -0.1,0.2 -0.2,0.3 -0.3,0.5"
                   id="path25" /><path
                   d="m 193.6,309 c -0.3,0 -0.4,-0.2 -0.5,-0.4 -1.4,-1.4 -2.8,-2.7 -4.1,-4.1 -0.2,-0.2 -0.3,-0.3 -0.5,-0.5 l -0.2,-0.2 c 0,-0.2 0.2,-0.3 0.3,-0.3 0.8,-0.4 1.6,-0.8 2.4,-1.2 3.3,-1.7 6.5,-3.5 9.7,-5.4 2.4,-1.4 4.8,-3 7.1,-4.5 2,-1.4 4.1,-2.8 6,-4.3 1.5,-1.1 2.9,-2.2 4.4,-3.4 1.3,-1 2.5,-2 3.7,-3.1 0.9,-0.8 1.8,-1.6 2.6,-2.3 0.8,-0.7 1.6,-1.5 2.4,-2.3 0.7,-0.6 1.3,-1.3 2,-1.9 1.1,-1.1 2.2,-2.2 3.2,-3.4 1.2,-1.3 2.3,-2.6 3.5,-3.9 1.1,-1.3 2.1,-2.6 3.1,-3.9 3,-3.8 5.7,-7.7 8.2,-11.8 1.5,-2.5 2.9,-5 4.3,-7.5 0,-0.2 0.2,-0.3 0.3,-0.5 0.2,0 0.3,0.2 0.4,0.4 0.4,0.5 0.7,1 1,1.5 0.3,0.4 0.6,0.9 0.9,1.2 0.2,0.2 0.2,0.4 0,0.7 -0.2,0.5 -0.4,0.9 -0.7,1.4 -2,4 -4.2,7.8 -6.6,11.5 -1.2,1.8 -2.4,3.5 -3.6,5.2 -1.1,1.5 -2.2,2.9 -3.4,4.3 -0.6,0.8 -1.2,1.5 -1.9,2.2 -0.9,1 -1.7,2 -2.6,3 -1.3,1.4 -2.6,2.8 -4,4.2 -1.2,1.2 -2.4,2.4 -3.7,3.6 -1.1,1 -2.2,2 -3.3,3 -1.1,1 -2.2,2 -3.3,2.9 -0.7,0.6 -1.5,1.3 -2.2,1.9 -0.9,0.7 -1.8,1.4 -2.7,2.1 -1.2,0.9 -2.3,1.9 -3.5,2.8 -1,0.8 -2.1,1.6 -3.2,2.4 -1.2,0.9 -2.4,1.8 -3.7,2.7 -1.6,1.1 -3.2,2.2 -4.8,3.3 -2.2,1.5 -4.5,2.9 -6.7,4.4 -0.2,0.1 -0.3,0.2 -0.5,0.3"
                   id="path26" /><path
                   d="m 266.9,232.2 c 0.3,0 0.6,0.1 0.8,0.2 0.9,0.3 1.9,0.6 2.8,0.8 1.2,0.3 2.5,0.6 3.7,0.9 1.8,0.4 3.6,0.6 5.4,0.8 2.6,0.2 5.2,0.2 7.8,-0.2 4.9,-0.7 9.2,-2.7 13,-5.8 2.1,-1.7 3.9,-3.7 5.6,-5.9 0.4,-0.5 0.7,-1 1.1,-1.5 0,0 0,-0.2 0.2,-0.3 0,0 -0.2,-0.1 -0.2,-0.2 -0.4,-0.2 -0.9,-0.3 -1.3,-0.5 -0.7,-0.2 -1.3,-0.4 -2,-0.6 -2.1,-0.6 -4.2,-1 -6.3,-1.3 -3.7,-0.4 -7.4,-0.2 -11,0.4 -3.4,0.6 -6.7,1.6 -10,2.9 -3.4,1.3 -6.7,3 -9.9,4.8 -0.1,0 -0.2,0.1 -0.4,0.2 h -0.1 c 0,-0.2 0.2,-0.3 0.3,-0.4 0.8,-0.9 1.7,-1.7 2.6,-2.4 2.6,-2.2 5.4,-4 8.5,-5.4 3.2,-1.4 6.6,-2.3 10.1,-2.8 4,-0.5 7.9,-0.5 11.9,0 2.3,0.3 4.7,0.7 7,1.2 1.7,0.4 3.5,0.9 5.2,1.4 0.2,0 0.5,0 0.7,0.3 0,0.1 -0.1,0.3 -0.2,0.4 -1.9,3.1 -4,6.1 -6.5,8.9 -2,2.2 -4.2,4.2 -6.7,5.9 -2.5,1.7 -5.2,2.9 -8.2,3.6 -2.5,0.6 -5,0.8 -7.5,0.6 -1.5,-0.1 -3,-0.4 -4.5,-0.7 -1.6,-0.4 -3.1,-0.9 -4.6,-1.5 -0.9,-0.4 -1.8,-0.8 -2.7,-1.2 -0.9,-0.4 -1.8,-0.9 -2.7,-1.4 -0.6,-0.3 -1.1,-0.6 -1.6,-1 0,0 0,0 -0.1,-0.2"
                   id="path27" /><path
                   d="m 222.4,198.9 c 0.1,0 0.2,0 0.3,0 1.6,0.8 3.2,1.6 4.8,2.4 2.5,1.4 4.9,2.9 7.2,4.5 2.4,1.8 4.7,3.8 6.8,6 1.8,1.9 3.4,4 4.8,6.3 1.6,2.6 2.8,5.4 3.7,8.4 0.8,2.8 1.3,5.7 1.4,8.6 0,0.2 0,0.4 0,0.6 -0.2,0 -0.2,-0.2 -0.2,-0.3 -0.5,-1.6 -1.1,-3.1 -1.7,-4.7 -1.7,-4.3 -3.7,-8.4 -6.4,-12.2 -2,-2.9 -4.4,-5.6 -7.1,-8 -1.9,-1.6 -3.9,-3 -6,-4.2 -1.6,-0.9 -3.3,-1.7 -5.1,-2.4 -0.1,0 -0.3,-0.1 -0.5,0 0,0.1 0,0.3 0,0.5 -0.4,2.8 -0.5,5.6 -0.2,8.4 0.3,2.7 0.9,5.3 1.9,7.7 0.9,2.2 2.1,4.2 3.5,6 1.8,2.3 3.8,4.2 6.1,6 1.8,1.4 3.7,2.6 5.7,3.7 1.1,0.6 2.1,1.2 3.3,1.7 0.7,0.3 1.4,0.7 2.2,1 h 0.1 c -0.1,0.2 -0.3,0.2 -0.4,0.1 -0.5,0 -0.9,-0.2 -1.3,-0.3 -1,-0.3 -2.1,-0.5 -3.1,-0.8 -0.9,-0.3 -1.8,-0.5 -2.7,-0.9 -0.7,-0.3 -1.4,-0.5 -2.1,-0.8 -0.8,-0.4 -1.6,-0.7 -2.4,-1.2 -1.2,-0.6 -2.4,-1.3 -3.5,-2.2 -2.4,-1.8 -4.5,-3.9 -6.1,-6.5 -1.3,-2.1 -2.3,-4.4 -3,-6.7 -0.8,-2.7 -1.1,-5.5 -1.2,-8.2 -0.1,-3.4 0.2,-6.8 0.7,-10.2 0.1,-0.8 0.3,-1.5 0.4,-2.3 0,0 0,-0.2 0.1,-0.3"
                   id="path28" /><path
                   d="m 272.1,228.4 c 0.1,0 0.3,0 0.4,0 2.3,-0.1 4.6,-0.7 6.7,-1.6 2.7,-1.2 5,-2.8 7.2,-4.7 0.3,-0.2 0.6,-0.5 0.8,-0.7 0,0 0.1,0 0.2,-0.1 -0.2,0.5 -0.6,1.3 -1.7,3 -0.6,0.9 -1.3,1.8 -2,2.7 0,0.1 0.2,0 0.3,0 1.4,0 2.7,-0.2 4.1,-0.4 4.1,-0.6 8.1,-1.6 12.1,-2.8 0.8,-0.3 1.7,-0.5 2.5,-0.8 0.1,0 0.3,0 0.4,-0.1 0,0.2 0,0.2 -0.2,0.2 -0.6,0.3 -1.2,0.5 -1.7,0.8 -1.3,0.6 -2.6,1.1 -3.9,1.7 -1,0.4 -2,0.9 -3,1.3 -0.1,0 -0.3,0 -0.4,0.3 0.2,0.2 0.7,0.5 1.4,0.7 0.5,0.2 1,0.3 1.5,0.5 0.5,0.2 1,0.2 1.5,0.4 0,0.2 -0.2,0.1 -0.3,0.1 -1.3,0 -2.6,0 -4,-0.2 -1,-0.1 -1.9,-0.3 -2.8,-0.6 -0.2,0 -0.5,0 -0.7,0 -0.9,0.2 -1.8,0.5 -2.8,0.6 -2.5,0.5 -5,0.6 -7.5,0.6 -2.7,0 -5.4,-0.3 -8,-0.8 H 272 c 0,0 0,-0.2 0,-0.2"
                   id="path29" /><path
                   d="m 245.8,232.9 c -0.2,-0.1 -0.5,-0.3 -0.7,-0.4 -2.4,-1.6 -4.7,-3.2 -6.8,-5.1 -2.3,-2.1 -4.3,-4.4 -6,-7 -0.2,-0.2 -0.3,-0.4 -0.6,-0.5 -2,-1 -3.8,-2.4 -5.5,-3.9 0,0 -0.2,-0.2 -0.2,-0.3 0.7,0.4 1.4,0.7 2.1,1.1 0.7,0.3 1.5,0.6 2.3,0.7 0,-0.2 0,-0.3 0,-0.4 -0.5,-1.2 -1.1,-2.4 -1.6,-3.5 -0.7,-1.5 -1.4,-3 -2,-4.5 0,-0.2 -0.2,-0.3 -0.2,-0.5 v -0.2 c 0.2,0 0.2,0.2 0.3,0.3 1,1.8 2.1,3.5 3.2,5.2 1.8,2.7 3.6,5.3 5.7,7.7 0.7,0.8 1.5,1.6 2.2,2.4 l 0.2,0.2 c 0.2,0 0.1,-0.2 0.1,-0.3 0,-1.2 0.2,-2.4 0.4,-3.6 0.1,-0.8 0.3,-1.6 0.5,-2.5 0,-0.1 0,-0.2 0.1,-0.4 0.1,0 0.1,0.2 0.1,0.3 0.1,1.4 0.3,2.9 0.7,4.3 0.4,2 1.1,4 2,5.9 0.9,1.8 2.1,3.5 3.6,4.9 0.1,0.1 0.2,0.2 0.3,0.3 v 0"
                   id="path30" /></g><g
                 id="g40"><path
                   class="cls-1"
                   d="m 303.1,144.2 c 0,0.2 0,0.3 0,0.5 0,3.1 -0.4,6.1 -1,9.2 -0.3,1.4 -0.6,2.9 -1,4.3 -0.6,2 -1.3,4 -2.2,5.9 -1.4,3.1 -3.2,6.1 -5.3,8.8 -1.4,1.8 -2.9,3.5 -4.5,5.2 -1.3,1.4 -2.6,2.6 -4.1,3.8 -1.4,1.2 -2.9,2.2 -4.6,3.1 -2.9,1.5 -6,2.3 -9.2,2.1 -1.6,0 -3.1,-0.4 -4.6,-0.8 -1.1,-0.3 -2.1,-0.7 -3.1,-1.1 -1.2,-0.5 -2.3,-1.1 -3.4,-1.7 -0.4,-0.3 -0.8,-0.5 -1.3,-0.8 -0.2,-0.1 -0.3,-0.3 -0.4,-0.5 -0.6,-1.7 -1.3,-3.3 -1.8,-5 -0.6,-2.1 -0.9,-4.3 -0.8,-6.4 0,-1.3 0.3,-2.5 0.6,-3.8 0.2,-0.8 0.5,-1.5 0.8,-2.2 0.6,-1.5 1.4,-2.9 2.3,-4.3 0.8,-1.2 1.7,-2.4 2.7,-3.5 l 0.2,-0.2 c 0.2,-0.2 0.4,-0.3 0.7,-0.3 1.7,0 3.4,-0.1 5.1,-0.3 4,-0.3 7.9,-0.9 11.8,-1.8 3.6,-0.9 7.1,-2 10.5,-3.5 4.1,-1.7 8,-3.9 11.8,-6.3 0.2,-0.1 0.4,-0.3 0.8,-0.4"
                   id="path31"
                   style="fill:#e42320" /><path
                   class="cls-1"
                   d="m 240.1,145.6 c 0,-0.2 0,-0.4 0,-0.5 0,-0.5 0.1,-1.1 0.3,-1.6 0.4,-1.1 1.1,-1.9 2.1,-2.4 0.6,-0.3 1.1,-0.4 1.7,-0.6 1,-0.2 2,-0.2 3,-0.3 h 0.2 c 0.1,0.2 0,0.3 0,0.4 -0.1,0.4 -0.3,0.7 -0.4,1.1 -0.4,1.1 -0.7,2.3 -1,3.4 -0.8,3.1 -1.3,6.3 -1.3,9.6 0,2.8 0.5,5.6 1.3,8.3 0.9,2.8 2.1,5.4 3.5,7.9 0.8,1.4 1.7,2.8 2.6,4.1 0,0.1 0.2,0.2 0.3,0.4 v 0 c 0,0 -0.1,-0.2 -0.1,-0.2 -0.7,-1.4 -1.5,-2.7 -2.1,-4.1 -1.2,-2.4 -2.2,-4.8 -2.9,-7.4 -0.9,-3.4 -1.1,-6.9 -0.6,-10.5 0.3,-1.7 0.6,-3.3 1.1,-4.9 0.3,-1.2 0.7,-2.3 1.1,-3.5 0.6,-1.7 0.9,-3.6 1,-5.4 0,-1.7 0,-3.4 0,-5.1 0,-0.6 0,-1.3 0,-1.9 0,-0.1 0,-0.3 0,-0.4 0.2,0 0.4,0 0.6,0 1,0.2 1.9,0.5 2.8,0.9 1.7,0.8 3.2,1.9 4.6,3.1 1.7,1.4 3.2,2.9 4.7,4.5 2.3,2.5 4.5,5.1 6.6,7.8 0,0.1 0.2,0.2 0.3,0.4 -0.1,0 -0.2,0.2 -0.4,0.2 -4.5,2.7 -8.1,6.2 -11,10.5 -0.7,1 -1.3,2.1 -1.8,3.1 -0.5,1 -0.9,2.1 -1.3,3.2 -0.7,1.9 -0.9,3.9 -0.8,6 0,2.6 0.6,5.1 1.5,7.5 0,0.2 0.2,0.3 0.1,0.5 0,0.1 -0.2,0 -0.3,0 -0.9,-0.3 -1.7,-0.7 -2.5,-1.1 -2.8,-1.4 -5.3,-3.3 -7.5,-5.6 -1.6,-1.7 -3.1,-3.4 -4.5,-5.3 -1.3,-1.8 -2.7,-3.6 -4,-5.4 -0.3,-0.4 -0.6,-0.8 -0.9,-1.2 -1.5,-2.1 -2.5,-4.5 -2.9,-7.1 -0.1,-1.1 -0.1,-2.1 0.1,-3.1 0.2,-0.9 0.7,-1.8 1.3,-2.5 0.8,-0.9 1.8,-1.5 2.8,-2 0.5,-0.3 1.1,-0.5 1.7,-0.7 0.2,0 0.4,-0.1 0.6,-0.2"
                   id="path32"
                   style="fill:#e42320" /><path
                   class="cls-1"
                   d="m 323.6,176.4 c -0.1,0 -0.2,0 -0.4,0 -0.5,-0.2 -0.9,-0.3 -1.3,-0.5 -2.8,-0.9 -5.6,-0.9 -8.4,0 -1.9,0.7 -3.5,1.7 -5,3 -0.8,0.7 -1.5,1.4 -2.3,2.2 -1.3,1.4 -2.6,2.7 -4.1,3.9 -1.3,1 -2.6,1.9 -4.1,2.6 -2.2,1 -4.4,1.2 -6.7,0.9 -1.1,-0.2 -2.1,-0.5 -3.2,-0.9 -1.6,-0.6 -3,-1.4 -4.4,-2.2 -0.1,0 -0.1,0 -0.3,-0.3 0,0 0.2,-0.2 0.3,-0.2 2.7,-1.8 5,-3.9 7.2,-6.3 1.2,-1.3 2.4,-2.6 3.5,-4 1.3,-1.7 2.6,-3.4 3.7,-5.3 0.6,-1 1.1,-2 1.7,-3.1 0.3,-0.5 0.5,-1.1 0.8,-1.6 0.3,-0.6 0.6,-1.3 0.8,-1.9 0.3,-0.8 0.6,-1.7 0.9,-2.5 0.3,-0.9 0.6,-1.9 0.8,-2.8 0.4,-1.4 0.7,-2.9 1,-4.4 0.2,-0.9 0.3,-1.8 0.4,-2.8 0,-0.1 0,-0.3 0,-0.4 0.2,0 0.3,0 0.4,0 0.8,0.4 1.6,0.7 2.3,1.1 2.4,1.2 4.7,2.6 6.6,4.5 1.7,1.6 3.1,3.5 4.1,5.7 0.6,1.4 1.1,2.8 1.5,4.3 0.4,1.4 0.7,2.8 1.1,4.2 0.4,1.5 0.9,2.9 1.6,4.3 0.4,0.7 0.8,1.3 1.2,1.9 0,0.1 0.2,0.2 0.2,0.4"
                   id="path33"
                   style="fill:#e42320" /><path
                   class="cls-1"
                   d="m 289.8,133 c 0,-0.2 0,-0.3 0,-0.5 0,-0.5 0,-0.9 0,-1.4 0,-1 -0.5,-1.8 -1,-2.6 -0.5,-0.7 -1,-1.3 -1.6,-1.9 -0.7,-0.8 -1.4,-1.6 -1.9,-2.6 0,-0.2 -0.2,-0.4 -0.2,-0.6 h 0.2 c 3.5,-1.2 7.1,-1.7 10.7,-1.2 1.2,0.1 2.3,0.4 3.4,0.7 2.3,0.7 4.3,1.8 6,3.6 1.3,1.3 2.2,2.8 2.6,4.6 0.3,1.3 0.3,2.7 0,4 -0.5,2 -1.5,3.6 -2.8,5.1 -1.1,1.2 -2.3,2.2 -3.6,3.1 -3.1,2 -6.4,3.9 -9.7,5.4 -3,1.4 -6.1,2.6 -9.3,3.5 -4,1.2 -8,1.9 -12.1,2.4 -1.9,0.2 -3.8,0.3 -5.6,0.4 -0.2,0 -0.3,0 -0.5,0 0,-0.2 0,-0.2 0.2,-0.3 0.5,-0.4 1,-0.9 1.5,-1.3 2,-1.6 4.1,-2.9 6.4,-4 2.7,-1.3 5.5,-2.3 8.3,-3.2 1.7,-0.6 3.5,-1.1 5.2,-1.8 1.6,-0.6 3.1,-1.3 4.7,-1.9 0.8,-0.3 1.5,-0.6 2.3,-1 0.3,-0.1 0.5,-0.2 0.8,-0.4 0.6,-0.3 0.9,-0.8 0.9,-1.5 0,-1 -0.1,-1.9 -0.6,-2.8 -0.4,-0.8 -1,-1.6 -1.7,-2.2 -0.6,-0.5 -1.2,-1 -1.8,-1.4 -0.2,-0.1 -0.5,-0.2 -0.7,-0.4"
                   id="path34"
                   style="fill:#e42320" /><path
                   class="cls-1"
                   d="m 259,135 c -0.3,-0.3 -0.6,-0.5 -0.9,-0.7 -1.1,-0.8 -2.2,-1.5 -3.4,-2.2 -1.3,-0.7 -2.6,-1.2 -4,-1.3 -0.6,0 -1.2,-0.1 -1.8,-0.1 -0.1,0 -0.3,0 -0.4,0 h -0.1 c -1.6,-1.8 -2.7,-3.7 -3,-6 -0.2,-1.6 0,-3.2 0.7,-4.7 0.9,-2.1 2.5,-3.6 4.6,-4.6 1.5,-0.7 3.1,-1 4.8,-1 1.3,0 2.5,0.2 3.7,0.5 0.6,0.2 1.2,0.4 1.8,0.6 1.5,0.5 3,1.1 4.6,1.4 2,0.5 4,0.6 6,0.3 1.2,-0.2 2.3,-0.3 3.5,-0.3 0.9,0 1.7,0 2.5,0.3 1.4,0.3 2.5,1.1 3.5,2.1 0.9,0.9 1.5,2 2.1,3.1 0.2,0.3 0.3,0.7 0.5,1 v 0.2 c 0,0.1 -0.1,0 -0.2,0 -0.6,-0.2 -1.2,-0.3 -1.8,-0.5 -1.7,-0.4 -3.4,-0.6 -5.2,-0.5 -1.3,0 -2.6,0.3 -3.8,0.6 -2.1,0.5 -4.2,1.1 -6.3,1.8 -0.8,0.3 -1.6,0.5 -2.4,0.8 -0.5,0.2 -0.9,0.3 -1.3,0.6 -0.3,0.2 -0.6,0.4 -0.8,0.7 -0.2,0.3 -0.4,0.6 -0.4,0.9 0,0.4 0,0.7 0,1.1 0,0.5 0,0.9 0,1.4 0,1.2 -0.4,2.3 -1.1,3.2 -0.2,0.3 -0.5,0.6 -0.8,0.9 0,0 -0.2,0.1 -0.3,0.3"
                   id="path35"
                   style="fill:#e42320" /><path
                   class="cls-1"
                   d="m 260.3,136.1 c 0,-0.2 0.2,-0.3 0.3,-0.5 0.5,-0.5 1,-1.1 1.3,-1.7 0.1,-0.2 0.3,-0.3 0.5,-0.4 2,-0.3 4.1,-0.5 6.1,-0.3 2.8,0.3 5.3,1.4 7.4,3.3 0.1,0.1 0.3,0.3 0.4,0.4 1.7,2.2 3.5,4.5 5.2,6.7 0.1,0.1 0.2,0.3 0.3,0.4 0,0.2 -0.2,0.2 -0.4,0.3 -0.9,0.3 -1.7,0.6 -2.6,0.9 -2.5,0.8 -5,1.6 -7.5,2.5 -0.6,0.2 -0.5,0.2 -0.9,-0.3 -1.6,-2 -3.2,-4.1 -5,-6 -1.5,-1.7 -3.1,-3.4 -4.8,-4.9 -0.1,-0.1 -0.2,-0.2 -0.3,-0.3"
                   id="path36"
                   style="fill:#e42320" /><path
                   class="cls-1"
                   d="m 262.8,131.9 c 0,-0.1 0,-0.2 0,-0.3 0,-0.8 0.1,-1.5 0,-2.3 0,-0.2 0,-0.4 0,-0.6 0,-0.4 0.2,-0.8 0.6,-1 0.3,-0.1 0.5,-0.3 0.8,-0.4 2.7,-0.9 5.4,-1.9 8.1,-2.5 1.1,-0.3 2.1,-0.5 3.2,-0.6 2,-0.2 3.9,0 5.9,0.4 1.2,0.3 2.4,0.8 3.5,1.4 1.1,0.7 2.1,1.6 2.7,2.7 0.5,1 0.7,2.1 0.7,3.3 0,0 0,0.2 0,0.3 0,0 -0.2,0 -0.3,0 -0.3,-0.1 -0.6,-0.2 -1,-0.3 -0.7,-0.2 -1.4,-0.4 -2.1,-0.5 -1.5,-0.2 -3,0 -4.4,0.6 -1,0.4 -2,1 -2.9,1.6 -0.5,0.3 -1,0.6 -1.5,1 -0.1,0 -0.3,-0.1 -0.4,-0.2 -0.7,-0.5 -1.5,-1 -2.3,-1.4 -0.6,-0.3 -1.3,-0.5 -1.9,-0.7 -2.6,-0.8 -5.3,-0.8 -7.9,-0.5 -0.2,0 -0.4,0 -0.7,0"
                   id="path37"
                   style="fill:#e42320" /><path
                   class="cls-1"
                   d="m 290.1,199.3 c -0.2,0 -0.3,-0.2 -0.4,-0.4 -0.7,-0.9 -1.6,-1.7 -2.6,-2.3 -1,-0.6 -2,-1 -3.1,-1.4 -0.7,-0.2 -1.4,-0.4 -2,-0.7 -0.5,-0.2 -1,-0.3 -1.5,-0.4 -0.9,-0.2 -1.8,-0.6 -2.7,-1 -1,-0.4 -1.9,-1.1 -2.8,-1.8 -0.9,-0.8 -1.6,-1.6 -2.3,-2.6 0,0 -0.1,-0.2 -0.2,-0.3 0.2,-0.1 0.4,0 0.6,-0.1 0.8,0 1.7,-0.1 2.5,-0.3 2.1,-0.4 4.2,-1.1 6.1,-2.2 0.4,-0.3 0.8,-0.3 1.2,0 1.4,0.9 2.8,1.9 4,3.1 1,1.1 1.9,2.3 2.5,3.6 0.6,1.4 0.9,2.9 0.9,4.5 0,0.6 0,1.2 -0.1,1.8 0,0 0,0.2 0,0.3"
                   id="path38"
                   style="fill:#e42320" /><path
                   class="cls-1"
                   d="m 283.4,143.6 c -0.2,-0.2 -0.3,-0.4 -0.4,-0.6 -0.9,-1.5 -1.9,-2.9 -3,-4.3 -0.7,-0.9 -1.5,-1.8 -2.4,-2.6 0,0 -0.2,-0.2 -0.2,-0.3 v -0.2 c 1.3,-0.8 2.4,-1.5 3.7,-2.1 1.1,-0.5 2.2,-0.8 3.4,-0.7 0.6,0 1.1,0.1 1.7,0.3 0.9,0.2 1.7,0.6 2.6,1 0,0 0.2,0 0.3,0.1 1.2,0.4 2.1,1.2 2.9,2.1 0.6,0.7 1,1.4 1.1,2.4 0,0.3 0,0.6 0,1 0,0.2 -0.1,0.3 -0.3,0.4 -0.7,0.3 -1.5,0.6 -2.2,0.9 -2.2,0.9 -4.4,1.7 -6.6,2.6 -0.2,0 -0.3,0.1 -0.6,0.2"
                   id="path39"
                   style="fill:#e42320" /><path
                   class="cls-1"
                   d="m 263.9,186.7 c 0,0.1 -0.1,0.2 -0.2,0.3 -1,1.2 -2.1,2.2 -3.4,3 -1.1,0.6 -2.2,1 -3.4,1 -1.4,0 -2.8,0 -4.2,-0.3 -1.1,-0.1 -2.2,-0.3 -3.3,-0.4 -1.5,-0.2 -3,0 -4.5,0.2 -0.2,0 -0.3,0.1 -0.5,0 v -0.2 c 1.5,-1.9 3,-3.6 4.9,-5 2.3,-1.6 4.9,-2.3 7.7,-2.3 0.3,0 0.5,0.1 0.8,0.3 0.6,0.4 1.2,0.8 1.8,1.1 1.1,0.7 2.2,1.2 3.4,1.7 0.3,0.1 0.6,0.3 0.9,0.4"
                   id="path40"
                   style="fill:#e42320" /></g></g><polyline
               class="cls-2"
               points="223.1 231 287.6 296.2 204.2 296.2 160.7 244.2"
               id="polyline41"
               style="fill:#0070b0" /></g><path
             d="m 420.9,328.3 c 5.1,0 7.1,5.1 7.1,9.1 0,4 -3.1,9.2 -7.2,9.2 -4.1,0 -7.2,-3.9 -7.2,-9.1 0,-5.2 2.2,-9.2 7.3,-9.2 z M 421,325 c -6.6,0 -11.7,4.6 -11.7,12.6 0,8 4.9,12.2 11.3,12.2 6.4,0 11.8,-3.8 11.8,-12.6 0,-8.8 -4.6,-12.2 -11.4,-12.2 z m -37.2,24.2 h 4.3 V 335 c 0,-0.7 0,-1.5 0.3,-2 0.7,-2.4 2.9,-4.4 5.8,-4.4 4.1,0 5.5,3.2 5.5,7 v 13.6 h 4.3 v -14.1 c 0,-8.1 -5.1,-10.1 -8.4,-10.1 -3.3,0 -6.7,2.2 -7.8,4.5 v 0 l -0.2,-3.9 h -3.8 c 0.1,2 0.2,4 0.2,6.4 v 17.3 z m -9.3,-33 c -1.6,0 -2.7,1.2 -2.7,2.7 0,1.5 1.1,2.6 2.6,2.6 1.5,0 2.8,-1.2 2.7,-2.6 0,-1.5 -1,-2.7 -2.6,-2.7 z m 2.2,33 v -23.7 h -4.3 v 23.7 z m -15.8,-9.9 c 0,0.7 0,1.3 -0.2,1.9 -0.8,3.2 -3.4,5.1 -6.3,5.1 -4.6,0 -7,-4 -7,-8.8 0,-4.8 2.6,-9.1 7.1,-9.1 4.5,0 5.6,2.2 6.2,5 0.1,0.5 0.2,1.3 0.2,1.8 z m 0,-24.8 v 14.1 0 c -1.1,-1.9 -3.5,-3.6 -7.1,-3.6 -5.8,0 -10.7,4.8 -10.6,12.7 0,7.2 4.4,12 10.1,12 5.7,0 6.7,-2 8.1,-4.6 v 0 l 0.2,4.1 h 3.9 c -0.1,-1.6 -0.2,-4 -0.2,-6.1 V 314.5 H 361 Z m -27.2,26.8 c 0,0.4 0,0.9 -0.2,1.4 -0.7,2 -2.6,4 -5.7,4 -3.1,0 -4.1,-1.3 -4.1,-4.1 0,-4.6 5.3,-5.4 10,-5.3 v 4.1 z m 4.5,7.9 c -0.3,-1.6 -0.4,-3.6 -0.4,-5.7 v -8.9 c 0,-4.7 -1.8,-9.7 -9,-9.7 -7.2,0 -5.8,0.8 -7.8,2.1 l 1,2.8 c 1.7,-1.1 4,-1.8 6.2,-1.8 4.8,0 5.4,3.5 5.4,5.5 v 0.5 c -9.1,0 -14.2,3.1 -14.2,8.8 0,5.7 2.4,6.8 7.2,6.8 4.8,0 5.9,-1.7 7.2,-3.5 h 0.1 l 0.3,3 h 3.9 z M 306,319.9 v 5.7 h -3.7 v 3.3 h 3.7 v 12.9 c 0,2.8 0.4,4.9 1.7,6.2 1,1.2 2.6,1.8 4.6,1.8 2,0 3,-0.2 3.8,-0.6 l -0.2,-3.2 c -0.5,0.1 -1.4,0.3 -2.5,0.3 -2.4,0 -3.2,-1.7 -3.2,-4.6 v -12.8 h 6.2 v -3.3 h -6.2 v -6.8 z m -16.2,0 v 5.7 h -3.7 v 3.3 h 3.7 v 12.9 c 0,2.8 0.4,4.9 1.7,6.2 1,1.2 2.6,1.8 4.6,1.8 2,0 3,-0.2 3.8,-0.6 l -0.2,-3.2 c -0.5,0.1 -1.4,0.3 -2.5,0.3 -2.4,0 -3.2,-1.7 -3.2,-4.6 v -12.8 h 6.2 v -3.3 H 294 v -6.8 z m -10.2,-3.7 c -1.6,0 -2.7,1.2 -2.7,2.7 0,1.5 1.1,2.6 2.6,2.6 1.5,0 2.8,-1.2 2.7,-2.6 0,-1.5 -1,-2.7 -2.6,-2.7 z m 2.1,33 v -23.7 h -4.3 v 23.7 z m -10.2,-4.4 c -1.7,0.8 -4.4,1.4 -6.9,1.4 -8,0 -12.7,-5.2 -12.7,-13.3 0,-8.1 5.1,-13.6 12.9,-13.6 7.8,0 5,0.6 6.7,1.4 l 1,-3.5 c -1.1,-0.6 -3.7,-1.5 -7.8,-1.5 -10.2,0 -17.2,7 -17.2,17.3 0,10.3 7,16.7 16.3,16.7 9.3,0 7.1,-0.8 8.7,-1.6 l -0.9,-3.4 z m -49.6,-16.5 c 5.1,0 7.1,5.1 7.1,9.1 0,4 -3.1,9.2 -7.2,9.2 -4.1,0 -7.2,-3.9 -7.2,-9.1 0,-5.2 2.2,-9.2 7.3,-9.2 z M 222,325 c -6.6,0 -11.7,4.6 -11.7,12.6 0,8 4.9,12.2 11.3,12.2 6.4,0 11.8,-3.8 11.8,-12.6 0,-8.8 -4.6,-12.2 -11.4,-12.2 z m -19.3,-8.8 c -1.6,0 -2.7,1.2 -2.7,2.7 0,1.5 1.1,2.6 2.6,2.6 1.5,0 2.8,-1.2 2.7,-2.6 0,-1.5 -1,-2.7 -2.6,-2.7 z m 2.1,33 v -23.7 h -4.3 v 23.7 z m -15.8,0 h 4.3 V 314.5 H 189 Z m -11.4,-10 c 0,0.7 0,1.6 -0.3,2.3 -0.9,2.7 -3.3,4.4 -6,4.4 -4.6,0 -7,-3.9 -7,-8.5 0,-4.6 2.9,-9 7,-9 4.1,0 5.2,2.1 6,4.5 0.2,0.6 0.2,1.2 0.2,2 v 4.3 z m 0.7,-13.6 -0.2,3.6 v 0 c -1,-2 -3.3,-4.1 -7.4,-4.1 -4.1,0 -10.7,4.5 -10.7,12.6 0,8.1 4.2,11.5 10.1,11.5 5.9,0 6.2,-1.8 7.5,-4 v 0 2.6 c 0,6 -3.2,8.3 -7.6,8.3 -4.4,0 -5.4,-0.9 -6.9,-1.9 l -1.1,3.3 c 1.9,1.3 5,2 7.9,2 2.9,0 6.3,-0.7 8.6,-2.8 2.3,-2.1 3.4,-5.4 3.4,-10.8 v -13.7 c 0,-2.9 0,-4.8 0.2,-6.5 h -3.8 z m -38.7,9.5 c 0.3,-3 2.2,-7 6.6,-7 4.4,0 6,4.3 6,7 z m 16.6,3.1 c 0,-0.4 0.1,-1.1 0.1,-2 0,-4.4 -2.1,-11.2 -9.8,-11.2 -7.7,0 -11.1,5.6 -11.1,12.8 0,7.2 4.4,11.9 11.6,11.9 7.2,0 6.4,-0.8 7.9,-1.5 l -0.7,-3.1 c -1.6,0.7 -3.5,1.2 -6.6,1.2 -3.1,0 -8,-2.4 -8.1,-8.2 h 16.6 z m -45,-12.6 9,23.7 h 4.1 l 9.3,-23.7 h -4.5 l -4.6,13.3 c -0.8,2.2 -1.5,4.1 -2,6.1 h -0.1 c -0.5,-2 -1.1,-3.9 -1.9,-6.1 l -4.6,-13.3 h -4.6 z m -18.1,22.5 c 1.7,1 4.1,1.6 6.7,1.6 5.6,0 8.9,-2.9 8.9,-7.1 0,-4.2 -2.1,-5.6 -6.2,-7.1 -3.1,-1.2 -4.5,-2.1 -4.5,-4 0,-1.9 1.4,-3.2 4,-3.2 2.6,0 3.9,0.8 4.8,1.4 l 1.1,-3.1 c -1.3,-0.8 -3.4,-1.5 -5.8,-1.5 -5.1,0 -8.2,3.1 -8.2,6.9 0,3.8 2,5.2 6.3,6.7 3.2,1.2 4.4,2.3 4.4,4.4 0,2.1 -1.5,3.5 -4.6,3.5 -3.1,0 -4.4,-0.9 -5.7,-1.7 l -1.1,3.3 z m -7.6,-31.9 c -1.6,0 -2.7,1.2 -2.7,2.7 0,1.5 1.1,2.6 2.6,2.6 1.5,0 2.8,-1.2 2.7,-2.6 0,-1.5 -1,-2.7 -2.6,-2.7 z m 2.1,33 v -23.7 h -4.3 v 23.7 z M 60.9,319.7 c 0.7,-0.2 2.2,-0.4 4.2,-0.4 4.5,0 7.6,1.9 7.6,6.2 0,4.3 -2.9,6.3 -7.4,6.3 h -4.4 v -12 z m -4.2,29.5 H 61 v -14.3 h 4 c 3.9,0.1 5.6,1.9 6.6,6.4 0.9,4.1 1.7,6.9 2.2,7.9 h 4.4 c -0.7,-1.3 -1.5,-4.5 -2.5,-9 -0.8,-3.4 -2.3,-5.8 -4.8,-6.7 v 0 c 3.5,-1.3 6.2,-4.2 6.2,-8.6 0,-4.4 -0.9,-4.8 -2.6,-6.3 -2.1,-1.9 -5,-2.7 -9.5,-2.7 -4.5,0 -6,0.2 -8.2,0.7 v 32.5 z"
             id="path42" /></g></g></g></g></svg>
