<?xml version="1.0" encoding="UTF-8" standalone="no"?>
<svg
   version="1.1"
   viewBox="0 0 506 506"
   id="svg44"
   sodipodi:docname="logo.svg"
   inkscape:version="1.4-rc1 (61ec3f24, 2024-09-26)"
   xmlns:inkscape="http://www.inkscape.org/namespaces/inkscape"
   xmlns:sodipodi="http://sodipodi.sourceforge.net/DTD/sodipodi-0.dtd"
   xmlns="http://www.w3.org/2000/svg"
   xmlns:svg="http://www.w3.org/2000/svg">
  <sodipodi:namedview
     id="namedview44"
     pagecolor="#ffffff"
     bordercolor="#000000"
     borderopacity="0.25"
     inkscape:showpageshadow="2"
     inkscape:pageopacity="0.0"
     inkscape:pagecheckerboard="0"
     inkscape:deskcolor="#d1d1d1"
     inkscape:zoom="2.1837945"
     inkscape:cx="252.77104"
     inkscape:cy="253"
     inkscape:current-layer="g43" />
  <defs
     id="defs1">
    <style
       id="style1">
      .cls-1 {
        fill: #e42320;
      }

      .cls-2 {
        fill: #0070b0;
      }

      .cls-3 {
        fill: #52dd80;
      }

      .cls-4 {
        fill: #fff;
      }

      .cls-5 {
        fill: #009640;
      }
    </style>
  </defs>
  <!-- Generator: Adobe Illustrator 28.7.0, SVG Export Plug-In . SVG Version: 1.2.0 Build 136)  -->
  <g
     id="g44">
    <g
       id="Layer_1">
      <g
         id="g43">
        <g
           id="g4">
          <path
             class="cls-5"
             d="M253,506c-67.6,0-131.1-26.3-178.9-74.1C26.3,384.1,0,320.6,0,253S26.3,121.9,74.1,74.1C121.9,26.3,185.4,0,253,0s131.1,26.3,178.9,74.1c47.8,47.8,74.1,111.3,74.1,178.9s-26.3,131.1-74.1,178.9c-47.8,47.8-111.3,74.1-178.9,74.1"
             id="path1" />
          <path
             class="cls-4"
             d="M253,500.4c-66.1,0-128.2-25.7-174.9-72.4C31.4,381.2,5.7,319.1,5.7,253S31.4,124.8,78.1,78.1C124.8,31.4,187,5.7,253,5.7s128.2,25.7,174.9,72.4c46.7,46.7,72.4,108.8,72.4,174.9s-25.7,128.2-72.4,174.9c-46.7,46.7-108.8,72.4-174.9,72.4"
             id="path2" />
          <path
             class="cls-1"
             d="M253,494.7c-64.6,0-125.2-25.1-170.9-70.8C36.5,378.3,11.3,317.6,11.3,253s25.1-125.2,70.8-170.9C127.8,36.5,188.5,11.3,253,11.3s125.2,25.1,170.9,70.8c45.6,45.6,70.8,106.3,70.8,170.9s-25.1,125.2-70.8,170.9c-45.6,45.6-106.3,70.8-170.9,70.8"
             id="path3" />
          <path
             class="cls-4"
             d="M489,253c0,130.3-105.7,236-236,236S17,383.4,17,253,122.7,17,253,17s236,105.7,236,236"
             id="path4" />
        </g>
        <g
           id="g22">
          <path
             class="cls-1"
             d="M47.5,369c40.5,71.6,117.4,120,205.6,120s165-48.4,205.6-120H47.5Z"
             id="path5" />
          <g
             id="g21">
            <path
               class="cls-4"
               d="M106.8,412.2c-1.2-.5-2.9-1.7-4.2-3-3.8-3.9-3.7-8.5.1-12.3,4.2-4.2,9-3.6,12.4-.2,1.5,1.5,2.4,3.1,2.9,4.3l4.3-2.5c-.4-1.2-1.6-3.3-3.8-5.5-5.8-5.8-14-6.8-20.5-.3-5.4,5.4-6.2,12.9.4,19.5,2.3,2.3,4.5,3.7,5.7,4.1l2.7-4Z"
               id="path6" />
            <path
               class="cls-4"
               d="M124.2,413.4c2.2,1.7,1.2,4.7-.7,7-2.2,2.7-4.9,3.6-6.7,2.2-2-1.6-1.5-4.5.6-7.1s4.5-3.9,6.8-2.1ZM127,410.2c-4.9-3.9-10.7-3.4-14.6,1.5s-2.9,10.6,1.6,14.2c4.1,3.3,10.1,3.9,14.6-1.7s3.1-10.3-1.5-14.1Z"
               id="path7" />
            <path
               class="cls-4"
               d="M126.7,435l5.1,3.4,5.5-8.3c.3-.4.6-.8.8-1.1,1.4-1.3,3.3-1.5,5.2-.3.6.4,1,.7,1.3,1l3.2-4.8c-.3-.3-.6-.5-1-.8-1.6-1-4.2-1.4-6.6.5h-.1c0,0,1.8-3.2,1.8-3.2l-4.4-2.9c-.9,1.4-1.8,3.1-3.4,5.5l-7.2,10.9Z"
               id="path8" />
            <path
               class="cls-4"
               d="M157,420.9c-1.7-1-3.5-.5-4.3,1.1-.9,1.4-.4,3.3,1.2,4.2s3.5.4,4.4-1c.8-1.5.4-3.3-1.3-4.3ZM145.7,446.7l9.7-17-5.3-3-9.7,17,5.3,3Z"
               id="path9" />
            <path
               class="cls-4"
               d="M166.2,447.2c-.2.5-.5,1-.9,1.4-1,1.1-2.5,1.6-3.9.9-2.3-1.1-2.7-3.8-1.4-6.4,1.5-3.2,4-4.3,6-3.4,1.5.7,2.1,2.2,1.8,3.8,0,.3-.2.7-.4,1.1l-1.2,2.6ZM171.6,437.8l-1.2,2h0c-.2-1.9-1.3-3.7-3.7-4.8-4.4-2-9.7-.1-12.4,5.6-2.4,5.1-.9,10.1,3.5,12.2,2,.9,4.1.9,5.9,0h0s-.5,1.2-.5,1.2c-1.5,3.3-4.2,3.8-6.8,2.5-2.1-1-3.7-2.6-4.5-3.7l-3,3.7c1.2,1.6,3.4,3.3,5.7,4.3s5.5,1.9,8.2,1.2c2.8-.8,4.8-3.3,6.4-6.7l4.6-9.9c1.2-2.6,2-4.1,2.6-5.2l-4.8-2.2Z"
               id="path10" />
            <rect
               class="cls-4"
               x="167.5"
               y="444.5"
               width="28.4"
               height="6.1"
               transform="translate(-301.1 464.1) rotate(-69.9)"
               id="rect10" />
            <path
               class="cls-4"
               d="M196.3,437.9c-1.9-.6-3.5.3-4,2-.5,1.6.3,3.3,2.1,3.8s3.5-.3,4-1.9c.5-1.7-.3-3.3-2.2-3.9ZM190.9,465.6l5.7-18.7-5.8-1.8-5.7,18.7,5.8,1.8Z"
               id="path11" />
            <path
               class="cls-4"
               d="M208.6,462.7c0,.4-.2.7-.3,1-.7,1.1-2.1,1.8-3.6,1.5-1.3-.3-2.2-1.3-1.8-2.8.5-2.3,3.1-2.5,6.2-1.8l-.5,2.1ZM213.1,471c0-1.1.4-2.9.8-4.7l1.5-6.6c1-4.5-.2-8.7-6.6-10.1-3.5-.8-6.3-.4-7.8,0l.2,4.1c1.4-.5,3.6-.7,5.6-.3,2.9.7,3.2,2.2,2.9,3.2v.3c-6.8-1.5-11.8-.1-12.9,4.8-.7,3,1,6.4,4.9,7.2,2.3.5,4.4.1,6-1.1h.1s0,2,0,2l5.3,1.2Z"
               id="path12" />
            <path
               class="cls-4"
               d="M219.4,472l6,.7,1.2-11.2c0-.6.2-1.1.4-1.5.5-1.1,1.6-2.1,3.3-1.9,2.2.2,2.9,2,2.6,4.6l-1.2,10.8,6,.7,1.3-11.5c.6-5.7-2.1-8.7-6-9.1-3.2-.4-5.4,1.3-6.3,2.4h-.1s0-2.7,0-2.7l-5.2-.6c-.1,1.7-.3,3.8-.5,6.2l-1.5,13.2Z"
               id="path13" />
            <path
               class="cls-4"
               d="M253.7,458.7c2.8,0,3.9,2.9,4,5.8,0,3.5-1.4,5.9-3.8,5.9-2.6,0-4-2.5-4.1-5.8s1-5.9,3.9-5.9ZM253.8,454.4c-6.3.1-10.4,4.2-10.3,10.5.1,6.3,4.6,10,10.3,9.9,5.2,0,10.3-3.4,10.2-10.6,0-5.9-4.2-9.9-10.2-9.8Z"
               id="path14" />
            <path
               class="cls-4"
               d="M280.9,450c.4-.1,1.2-.4,2.7-.6,2.8-.4,4.6.6,5,3,.4,2.3-1.2,4.1-4.2,4.6l-2.4.4-1.1-7.4ZM278.4,473.1l6-.9-1.6-10.5,1.8-.3c2.5-.3,3.7.4,5,3.6,1.3,3.2,2.3,5.2,2.8,5.9l6.2-1c-.7-.9-2-4.3-3.3-7.2-1.1-2.3-2.4-4-4.3-4.4h0c2.2-1.3,4.2-4,3.7-7.4-.4-2.5-1.5-4.2-3.3-5.2-2.1-1.2-5-1.4-8.9-.7-3.2.5-6,1.2-7.9,1.8l4.1,26.3Z"
               id="path15" />
            <path
               class="cls-4"
               d="M308.1,451.3c2.7-.7,4.5,1.8,5.3,4.6.9,3.4.1,6.1-2.2,6.7-2.5.7-4.5-1.4-5.4-4.6s-.5-6,2.3-6.7ZM307.1,447c-6.1,1.7-9,6.7-7.3,12.8,1.7,6.1,6.9,8.5,12.4,7,5.1-1.4,9.1-5.9,7.2-12.8-1.6-5.7-6.5-8.6-12.3-7Z"
               id="path16" />
            <path
               class="cls-4"
               d="M325.8,461.3c1.7.2,4,0,6.4-1,5.2-2,6.9-5.6,5.6-9-1.1-2.7-3.2-3.9-7.1-3.7-2.5,0-3.4,0-3.8-.9-.4-.9.2-1.8,1.6-2.3,1.6-.6,3.4-.6,4.4-.5l-.5-4.3c-1.3-.1-3.4.1-5.6.9-4.5,1.7-6.4,5.4-5.1,8.8.8,2.2,3.1,3.7,7.3,3.5,2.4-.1,3.1.1,3.5,1s-.1,1.8-1.8,2.5c-1.7.7-4.1.7-5.4.5l.6,4.5Z"
               id="path17" />
            <path
               class="cls-4"
               d="M343.2,454.4c1.7,0,4-.4,6.3-1.6,5-2.5,6.4-6.1,4.8-9.4-1.3-2.6-3.5-3.6-7.4-3.1-2.5.3-3.4.2-3.8-.6-.4-.9,0-1.8,1.4-2.5,1.5-.7,3.3-.9,4.3-.9l-.9-4.2c-1.3,0-3.4.4-5.5,1.4-4.3,2.1-5.9,6-4.3,9.2,1,2.1,3.4,3.4,7.6,2.8,2.4-.3,3.1-.2,3.6.7s0,1.8-1.6,2.6c-1.6.8-4.1,1.1-5.4,1l.9,4.4Z"
               id="path18" />
            <path
               class="cls-4"
               d="M366.7,434.7c.2.3.3.6.4.9.3,1.3-.2,2.8-1.5,3.6s-2.4.6-3.3-.7c-1.2-2,.5-4,3.2-5.6l1.1,1.8ZM375.7,437.5c-.7-.8-1.7-2.3-2.7-3.9l-3.5-5.8c-2.4-3.9-6.2-6.1-11.7-2.7s-4.8,4.1-5.6,5.4l3,2.8c.7-1.4,2.1-3,3.8-4.1,2.6-1.6,3.8-.6,4.4.3v.2c-5.8,3.6-8.4,8-5.7,12.4s5.1,3.9,8.5,1.8,3.2-3,3.5-5h.1c0,0,1.3,1.4,1.3,1.4l4.7-2.9Z"
               id="path19" />
            <path
               class="cls-4"
               d="M381,434l4.8-3.7-6.9-8.9c-.3-.4-.6-1-.7-1.3-.4-1.1-.3-2.7,1-3.7,1.7-1.3,3.5-.5,5,1.5l6.6,8.6,4.8-3.7-7.1-9.2c-3.5-4.6-7.5-4.8-10.7-2.4-2.6,2-3,4.7-2.9,6.2h0c0,0-1.9-1.9-1.9-1.9l-4.2,3.2c1.1,1.3,2.4,2.9,3.9,4.8l8.1,10.5Z"
               id="path20" />
            <path
               class="cls-4"
               d="M396.4,400.6c2-1.9,4.8-.6,6.9,1.5,2.5,2.5,3,5.3,1.3,6.9-1.9,1.8-4.6,1-7-1.4s-3.3-5-1.2-7ZM393.5,397.3c-4.5,4.4-4.7,10.2-.3,14.7,4.4,4.5,10.2,4.2,14.3.2,3.8-3.6,5.1-9.5.1-14.7-4.1-4.2-9.8-4.4-14.1-.2Z"
               id="path21" />
          </g>
        </g>
        <g
           id="g42">
          <g
             id="g23">
            <path
               class="cls-3"
               d="M370.3,245.6c-16.9,0-32.4-5.3-43-15-9-8.3-14.5-19.7-14.3-33.8,0-14.3,6.3-25.7,16.3-33.7,11.3-9.1,27.4-13.9,44.5-13.9h30.8l24.1-51.6h-66.3c-28.3,0-57.9,10-79.3,28.4-2.5,2.1-4.9,4.4-7.1,6.8,5.8,10.3,8.8,22,8.8,34.7,0,20.2-5.3,36.8-15.7,49.3-3.4,4-7.3,7.6-11.7,10.8,6.4,18.3,18,32.1,33.2,44.1,19.4,15.4,44.7,24.4,72.1,24.4h66l-23.5-50.3h-34.8Z"
               id="path22" />
            <path
               class="cls-2"
               d="M56.5,149.4l35-51.6h90.6c23,0,46,5.8,63.3,17.4,17.5,11.7,29.2,29.1,29.2,52.3s-4.9,32.7-13.4,42.8c-9.1,10.8-22.3,17.4-38.1,20.7l64.5,65.2h-83.4l-43.5-52h-42.6v52.8h-61.6v-102h117c10.9,0,20.4-1.5,27.1-5.2,6.7-3.6,10.8-9.3,10.8-17.6s-2.8-12.6-7.8-16.2c-6.4-4.7-16.4-6.6-28.8-6.6H56.5Z"
               id="path23" />
          </g>
          <g
             id="g41">
            <path
               class="cls-4"
               d="m 326.5,175.78561 c -0.2,-0.50457 -0.4,-0.80732 -0.5,-1.00915 0,0 0,0 -0.1,-0.10091 -0.3,-0.50458 -0.7,-0.90824 -0.9,-1.51373 v 0 c -0.6,-1.11006 -1,-2.32104 -1.4,-3.63294 -0.4,-1.41281 -0.7,-2.82562 -1.1,-4.23843 -0.4,-1.61464 -1,-3.22928 -1.7,-4.84392 v 0 c -1.1,-2.52288 -2.8,-4.84392 -4.8,-6.66039 -2.3,-2.11922 -4.8,-3.73386 -7.4,-5.04575 -0.9,-0.40366 -1.7,-0.80732 -2.4,-1.11007 0,0 0,0 0,0 0,-0.80732 0,-1.71555 0.1,-2.52287 v 0 c 0,-0.50458 0,-0.60549 0,-0.70641 0,-0.10091 0,-0.30274 0,-0.40366 0.5,-0.50457 1.1,-1.00915 1.5,-1.51372 1.6,-1.71556 2.9,-3.83477 3.5,-6.45856 0.2,-0.90824 0.3,-1.81648 0.3,-2.72471 0,-0.90824 -0.1,-1.91739 -0.3,-2.82562 -0.6,-2.42196 -1.8,-4.44026 -3.4,-6.0549 -2.1,-2.11922 -4.7,-3.53203 -7.3,-4.33935 -1.3,-0.40366 -2.7,-0.7064 -4,-0.90823 -1,-0.10092 -2.1,-0.20183 -3.1,-0.20183 -2.8,0 -5.5,0.50457 -8.1,1.21098 -0.6,-1.00915 -1.2,-2.0183 -2.1,-3.02745 -1.3,-1.41281 -3,-2.52288 -5,-3.02745 -1.1,-0.30275 -2.1,-0.40366 -3.1,-0.40366 H 275 c -1.4,0 -2.7,0.20183 -3.9,0.40366 v 0 c -0.6,0 -1.1,0.10091 -1.7,0.10091 -1,0 -2,-0.10091 -3.1,-0.40366 -1.3,-0.30274 -2.7,-0.80732 -4.3,-1.41281 -0.5,-0.20183 -1.2,-0.40366 -2,-0.60549 -1.4,-0.40366 -2.9,-0.60549 -4.5,-0.60549 v 0 h -0.2 c -2,0 -4,0.30275 -6,1.3119 -1.3,0.60549 -2.6,1.41281 -3.6,2.52287 -1,1.00915 -1.9,2.32105 -2.5,3.73386 -0.6,1.51372 -1,3.12836 -1,4.743 0,0.50458 0,1.11007 0.1,1.61464 v 0 c 0.2,1.51373 0.7,2.92654 1.3,4.23843 0.7,1.3119 1.5,2.42196 2.5,3.43111 0.1,0.10092 0.3,0.30275 0.4,0.40366 h 0.1 c 0.1,0.20183 0.3,0.30275 0.4,0.30275 0,0.30274 0,0.60549 0,0.90823 v 0 c 0,0.10092 0,0.10092 0,0.10092 0,0.7064 0,1.3119 0,1.91739 0,0.30274 0,0.60549 0,0.90823 -1.1,0 -2.2,0 -3.4,0.30275 -0.8,0.20183 -1.7,0.40366 -2.5,0.80732 -0.8,0.40366 -1.6,1.00915 -2.2,1.71555 -0.6,0.70641 -1.1,1.61464 -1.4,2.52288 v 0 c 0,0.30274 -0.2,0.60549 -0.2,0.90823 -0.3,0.10092 -0.5,0.20183 -0.8,0.40366 -1.3,0.60549 -2.6,1.51373 -3.7,2.72471 -1,1.11006 -1.7,2.52287 -2.1,3.93568 -0.2,0.80732 -0.3,1.71556 -0.3,2.52288 0,0.60549 0,1.21098 0.1,1.71555 0.4,3.12837 1.6,5.95399 3.4,8.47687 v 0 c 0.3,0.50457 0.6,0.90823 0.9,1.31189 v 0 c 1.3,1.81647 2.6,3.63294 4,5.44941 1.4,1.91739 3,3.83477 4.7,5.65124 2.2,2.22013 4.6,4.23843 7.5,5.75216 -1.2,0.50457 -2.4,1.11006 -3.5,1.81647 -2.3,1.61464 -4.1,3.63294 -5.6,5.65124 -0.2,0.20183 -0.3,0.50458 -0.4,0.70641 v 0.20183 c -0.7,1.51372 0,3.12836 1.4,3.93568 0.5,0.30275 1.1,0.40366 1.6,0.40366 0.4,0 0.7,0 0.9,-0.10091 v 0 c 0.8,-0.10092 1.6,-0.20183 2.3,-0.20183 0.7,0 0.8,0 1.2,0 v 0 c 1.1,0.10091 2.1,0.20183 3.2,0.40366 v 0 c 1.2,0.20183 2.6,0.30274 3.9,0.30274 0.3,0 0.5,0 0.8,0 v 0 c 1.8,0 3.4,-0.60549 4.8,-1.41281 v 0 c 0.7,-0.40366 1.3,-0.90823 1.9,-1.41281 -0.2,2.11922 -0.4,4.33935 -0.7,6.45856 -0.6,4.74301 -1.5,9.3851 -2.6,13.92628 -0.4,1.61464 -0.8,3.12836 -1.3,4.743 -0.5,1.61464 -1,3.3302 -1.5,4.94484 -0.5,1.41281 -1,2.92653 -1.6,4.33934 -0.3,0.80732 -0.6,1.61464 -1,2.52288 -0.4,0.90823 -0.7,1.71555 -1,2.52287 -0.3,-1.61464 -0.6,-3.12836 -1,-4.64209 -0.9,-3.22928 -2.3,-6.35764 -4,-9.28418 -1.5,-2.52287 -3.3,-4.743 -5.2,-6.86222 -2.2,-2.42196 -4.7,-4.54118 -7.2,-6.45856 -2.4,-1.81647 -4.9,-3.3302 -7.5,-4.74301 -1.6,-0.90823 -3.3,-1.71555 -4.9,-2.52287 v 0 c -0.4,-0.20183 -0.6,-0.20183 -0.8,-0.30275 h -0.1 c 0,0 0,0 0,0 v 0 c -1.5,-0.40366 -3,0.40366 -3.6,1.81647 v 0 c 0,0 0,0 0,0.20183 0,0.10092 -0.1,0.40366 -0.2,0.70641 -0.1,0.7064 -0.3,1.51372 -0.4,2.32104 -0.5,3.02745 -0.7,6.0549 -0.7,9.08236 0,0.60549 0,1.11006 0,1.71555 0.1,3.02745 0.5,6.0549 1.3,9.08235 0.7,2.62379 1.8,5.24758 3.3,7.56863 1.8,2.92653 4.2,5.3485 6.9,7.3668 1.2,0.90823 2.5,1.71555 3.8,2.42196 0.9,0.50457 1.8,0.90823 2.6,1.31189 0.8,0.40366 1.6,0.60549 2.2,0.90824 v 0 c 1.1,0.40366 2.1,0.7064 3,1.00915 v 0 c 1.1,0.30274 2.2,0.60549 3.2,0.80732 v 0 c 0.6,0.10091 1.1,0.20183 1.5,0.30274 v 0 c 0,0 0.3,0 0.8,0 0.3,0 0.6,0 0.9,-0.10091 0.2,0 0.4,-0.10092 0.5,-0.20183 -0.2,0.40366 -0.4,0.80732 -0.7,1.21098 -1.2,2.11921 -2.4,4.23843 -3.7,6.25673 -1.5,2.32104 -3,4.64209 -4.6,6.96313 -2.1,3.02746 -4.3,5.95399 -6.6,8.77961 -0.5,0.70641 -1.1,1.3119 -1.6,2.0183 0,0 -0.2,0.20183 -0.4,0.50458 -0.1,0.20183 -0.2,0.50457 -0.3,0.80732 0,0.30274 -0.1,0.50457 -0.1,0.80732 -0.1,0.20183 -0.3,0.30274 -0.4,0.50457 -1,1.11007 -2.1,2.22013 -3.2,3.3302 v 0 c -0.6,0.60549 -1.2,1.21098 -1.9,1.81647 v 0 c -0.8,0.80732 -1.6,1.51372 -2.4,2.22013 -0.8,0.80732 -1.7,1.51372 -2.6,2.32104 -1.1,1.00915 -2.3,2.0183 -3.6,3.02746 -1.4,1.11006 -2.8,2.22013 -4.3,3.33019 v 0 c -1.9,1.41281 -3.9,2.82562 -5.9,4.23843 -2.3,1.51373 -4.6,3.02745 -7,4.44026 -3.1,1.91739 -6.3,3.63294 -9.5,5.3485 -0.8,0.40366 -1.5,0.80732 -2.3,1.21098 0,0 0,0 -0.2,0 -0.2,0.10091 -0.6,0.30274 -1,0.80732 -0.4,0.40366 -0.7,1.11006 -0.8,1.61464 -0.2,0.90823 0,1.81647 0.6,2.52287 l 0.2,0.20184 0.2,0.20183 c 0.2,0.20183 0.4,0.40366 0.5,0.50457 1.4,1.41281 2.7,2.72471 4.1,4.13752 0,0 0.2,0.20183 0.5,0.50457 0.3,0.30275 0.9,0.60549 1.6,0.70641 0.8,0.20183 1.5,0 2.2,-0.40366 0,0 0.3,-0.20183 0.6,-0.40366 v 0 c 2.2,-1.51373 4.5,-2.92654 6.8,-4.44026 1.7,-1.11007 3.3,-2.22014 4.9,-3.43112 1.3,-0.90823 2.5,-1.81647 3.7,-2.7247 v 0 c 1.1,-0.80732 2.2,-1.61464 3.2,-2.42196 1.2,-0.90824 2.4,-1.91739 3.6,-2.82562 0.9,-0.70641 1.8,-1.41281 2.7,-2.22013 0.8,-0.70641 1.6,-1.3119 2.3,-2.0183 1.1,-1.00915 2.2,-1.91739 3.4,-3.02745 1.1,-1.00915 2.2,-2.0183 3.4,-3.12837 1.3,-1.21098 2.5,-2.52287 3.7,-3.73386 1.4,-1.41281 2.8,-2.92653 4.1,-4.33934 0.8,-0.80732 1.5,-1.71556 2.2,-2.52288 0.2,0 0.4,0 0.6,0 0.3,0 0.5,0 0.8,0 0.8,-0.20183 1.4,-0.60549 1.9,-1.21098 0,0 0.2,-0.30274 0.4,-0.60549 v 0 c 1.5,-2.22013 2.9,-4.54117 4.4,-6.86222 1.1,-1.71555 2.1,-3.43111 3.1,-5.14666 0.8,-1.3119 1.6,-2.72471 2.3,-4.03661 v 0 c 0.7,-1.21098 1.3,-2.32104 2,-3.53202 v 0 c 0.7,-1.3119 1.4,-2.72471 2.1,-4.0366 0.5,-1.00915 1.1,-2.0183 1.6,-3.12837 0.5,-0.90823 0.9,-1.81647 1.3,-2.7247 0.6,-1.3119 1.3,-2.72471 1.9,-4.13752 0.6,-1.41281 1.2,-2.82562 1.8,-4.23843 v 0 c 0.2,-0.50457 0.4,-1.11006 0.6,-1.61464 0,0 0,0 0,0 0,0 0.1,0.20183 0.3,0.40366 0.2,0.20183 0.4,0.40366 0.7,0.60549 v 0 c 0.5,0.30275 1.1,0.70641 1.7,1.00915 0.9,0.50458 1.8,1.00915 2.8,1.41281 0.9,0.40366 1.9,0.90824 2.9,1.3119 1.6,0.7064 3.3,1.21098 5,1.61464 v 0 c 1.6,0.40366 3.3,0.7064 5,0.80732 0.8,0 1.5,0 2.3,0 2.1,0 4.1,-0.20183 6.2,-0.70641 3.3,-0.80732 6.4,-2.22013 9.1,-4.13751 2.8,-1.81647 5.2,-4.03661 7.3,-6.45857 2.6,-2.92653 4.9,-6.15581 6.9,-9.38509 v 0 c 0.1,-0.20183 0.2,-0.40366 0.3,-0.50458 v 0 c 0,-0.10091 0,-0.10091 0,-0.10091 v 0 c 0.5,-1.11007 0.3,-2.52288 -0.5,-3.43111 -0.5,-0.50458 -1.1,-0.90824 -1.5,-1.00915 -0.2,0 -0.4,-0.10092 -0.5,-0.10092 v 0 c 0,0 0,0 0,0 v 0 c -1.8,-0.50457 -3.5,-1.00915 -5.3,-1.41281 v 0 c -2.4,-0.50457 -4.8,-1.00915 -7.3,-1.31189 -2.2,-0.30275 -4.4,-0.40366 -6.5,-0.40366 -2,0 -4.1,0.10091 -6.1,0.40366 -3.8,0.50457 -7.4,1.51372 -10.9,3.02745 -2.4,1.11006 -4.7,2.42196 -6.9,4.0366 0.1,-0.40366 0.3,-0.90824 0.4,-1.41281 v 0 c 0,0 0,0 0,0 0.5,-1.81647 0.9,-3.63294 1.3,-5.44941 0.5,-2.11922 0.9,-4.33935 1.3,-6.45857 0.7,-4.13751 1.2,-8.37594 1.4,-12.61437 0.9,0.7064 1.9,1.41281 3,1.81647 1,0.40366 2,0.80732 3.2,1.11006 v 0 c 0.4,0 0.8,0.20183 1.3,0.40366 v 0 c 0.7,0.20183 1.3,0.40366 2,0.60549 v 0 c 0.9,0.30275 1.8,0.70641 2.5,1.11007 v 0 c 0.7,0.40366 1.2,0.90823 1.7,1.61464 0,0.10091 0.2,0.30274 0.4,0.50457 0.2,0.20183 0.4,0.40366 0.7,0.60549 0.3,0.20183 0.6,0.30275 1,0.40366 1.5,0.40366 3,-0.50457 3.6,-1.91738 v 0 c 0,0 0,0 0,-0.30275 0,-0.20183 0.1,-0.40366 0.2,-0.80732 v 0 c 0,-0.50457 0.1,-1.21098 0.2,-2.0183 v 0 c 0,0 0,-0.20183 0,-0.30274 0,-1.81647 -0.4,-3.73386 -1.1,-5.44941 0.3,0 0.6,0 0.9,0 2.1,0 4.1,-0.40366 6.1,-1.3119 1.8,-0.80732 3.4,-1.81647 4.8,-3.02745 1.6,-1.31189 3.1,-2.82562 4.4,-4.23843 0.7,-0.70641 1.4,-1.41281 2,-2.0183 v 0 c 1.3,-1.11007 2.6,-2.0183 4.1,-2.52288 1.1,-0.40366 2.1,-0.60549 3.2,-0.60549 1,0 2.1,0.20183 3.2,0.50458 0.3,0.10091 0.7,0.30274 1.3,0.50457 0.3,0.10092 0.6,0.20183 0.7,0.20183 h 0.1 c 0,0 0,0 0,0 v 0 c 0.9,0.10092 1.9,-0.10091 2.5,-0.7064 0.7,-0.60549 1.1,-1.51373 1,-2.52288 0,-0.30274 0,-0.7064 -0.2,-1.00915 z"
               id="path24"
               style="stroke-width:1.00456" />
            <g
               id="g30">
              <path
                 d="M240.4,271.9c-.3,0-.4,0-.6-.1-1.8-.7-3.6-1.4-5.4-2.1-.2,0-.4-.2-.6-.2,0,0-.2,0-.2-.1,0-.2,0-.3.2-.4.6-.7,1.1-1.4,1.7-2.1,2.3-2.9,4.5-5.9,6.7-8.9,1.6-2.3,3.2-4.6,4.7-7,1.3-2.1,2.6-4.2,3.8-6.4.9-1.6,1.8-3.2,2.6-4.9.7-1.4,1.5-2.9,2.1-4.4.5-1.1,1-2.1,1.4-3.2.4-1,.9-2,1.3-3.1.3-.8.7-1.7,1-2.6.5-1.5,1.1-2.9,1.6-4.4.6-1.7,1.1-3.3,1.6-5,.5-1.6.9-3.2,1.3-4.8,1.2-4.7,2.1-9.4,2.7-14.2.4-2.9.7-5.7.9-8.6,0-.2,0-.4,0-.6.2,0,.4.1.5.2.5.3,1,.6,1.5.9.4.3.9.5,1.3.8.3.1.3.3.3.6,0,.5,0,1,0,1.5-.2,4.4-.7,8.8-1.4,13.2-.4,2.1-.7,4.1-1.2,6.2-.4,1.8-.9,3.6-1.3,5.3-.2.9-.5,1.9-.8,2.8-.4,1.3-.8,2.5-1.2,3.7-.6,1.8-1.2,3.6-1.9,5.4-.6,1.6-1.2,3.2-1.9,4.8-.6,1.4-1.2,2.8-1.8,4.1-.6,1.3-1.2,2.7-1.9,4-.4.9-.8,1.8-1.3,2.7-.5,1-1,2-1.6,3-.7,1.3-1.4,2.6-2.1,4-.6,1.2-1.3,2.3-1.9,3.5-.8,1.3-1.5,2.6-2.3,3.9-1,1.7-2,3.3-3.1,5-1.4,2.3-2.9,4.5-4.4,6.7-.1.2-.2.3-.3.5"
                 id="path25" />
              <path
                 d="M193.6,309c-.3,0-.4-.2-.5-.4-1.4-1.4-2.8-2.7-4.1-4.1-.2-.2-.3-.3-.5-.5l-.2-.2c0-.2.2-.3.3-.3.8-.4,1.6-.8,2.4-1.2,3.3-1.7,6.5-3.5,9.7-5.4,2.4-1.4,4.8-3,7.1-4.5,2-1.4,4.1-2.8,6-4.3,1.5-1.1,2.9-2.2,4.4-3.4,1.3-1,2.5-2,3.7-3.1.9-.8,1.8-1.6,2.6-2.3.8-.7,1.6-1.5,2.4-2.3.7-.6,1.3-1.3,2-1.9,1.1-1.1,2.2-2.2,3.2-3.4,1.2-1.3,2.3-2.6,3.5-3.9,1.1-1.3,2.1-2.6,3.1-3.9,3-3.8,5.7-7.7,8.2-11.8,1.5-2.5,2.9-5,4.3-7.5,0-.2.2-.3.3-.5.2,0,.3.2.4.4.4.5.7,1,1,1.5.3.4.6.9.9,1.2.2.2.2.4,0,.7-.2.5-.4.9-.7,1.4-2,4-4.2,7.8-6.6,11.5-1.2,1.8-2.4,3.5-3.6,5.2-1.1,1.5-2.2,2.9-3.4,4.3-.6.8-1.2,1.5-1.9,2.2-.9,1-1.7,2-2.6,3-1.3,1.4-2.6,2.8-4,4.2-1.2,1.2-2.4,2.4-3.7,3.6-1.1,1-2.2,2-3.3,3-1.1,1-2.2,2-3.3,2.9-.7.6-1.5,1.3-2.2,1.9-.9.7-1.8,1.4-2.7,2.1-1.2.9-2.3,1.9-3.5,2.8-1,.8-2.1,1.6-3.2,2.4-1.2.9-2.4,1.8-3.7,2.7-1.6,1.1-3.2,2.2-4.8,3.3-2.2,1.5-4.5,2.9-6.7,4.4-.2.1-.3.2-.5.3"
                 id="path26" />
              <path
                 d="M266.9,232.2c.3,0,.6.1.8.2.9.3,1.9.6,2.8.8,1.2.3,2.5.6,3.7.9,1.8.4,3.6.6,5.4.8,2.6.2,5.2.2,7.8-.2,4.9-.7,9.2-2.7,13-5.8,2.1-1.7,3.9-3.7,5.6-5.9.4-.5.7-1,1.1-1.5,0,0,0-.2.2-.3,0,0-.2-.1-.2-.2-.4-.2-.9-.3-1.3-.5-.7-.2-1.3-.4-2-.6-2.1-.6-4.2-1-6.3-1.3-3.7-.4-7.4-.2-11,.4-3.4.6-6.7,1.6-10,2.9-3.4,1.3-6.7,3-9.9,4.8-.1,0-.2.1-.4.2h-.1c0-.2.2-.3.3-.4.8-.9,1.7-1.7,2.6-2.4,2.6-2.2,5.4-4,8.5-5.4,3.2-1.4,6.6-2.3,10.1-2.8,4-.5,7.9-.5,11.9,0,2.3.3,4.7.7,7,1.2,1.7.4,3.5.9,5.2,1.4.2,0,.5,0,.7.3,0,.1-.1.3-.2.4-1.9,3.1-4,6.1-6.5,8.9-2,2.2-4.2,4.2-6.7,5.9-2.5,1.7-5.2,2.9-8.2,3.6-2.5.6-5,.8-7.5.6-1.5-.1-3-.4-4.5-.7-1.6-.4-3.1-.9-4.6-1.5-.9-.4-1.8-.8-2.7-1.2-.9-.4-1.8-.9-2.7-1.4-.6-.3-1.1-.6-1.6-1,0,0,0,0-.1-.2"
                 id="path27" />
              <path
                 d="M222.4,198.9c.1,0,.2,0,.3,0,1.6.8,3.2,1.6,4.8,2.4,2.5,1.4,4.9,2.9,7.2,4.5,2.4,1.8,4.7,3.8,6.8,6,1.8,1.9,3.4,4,4.8,6.3,1.6,2.6,2.8,5.4,3.7,8.4.8,2.8,1.3,5.7,1.4,8.6,0,.2,0,.4,0,.6-.2,0-.2-.2-.2-.3-.5-1.6-1.1-3.1-1.7-4.7-1.7-4.3-3.7-8.4-6.4-12.2-2-2.9-4.4-5.6-7.1-8-1.9-1.6-3.9-3-6-4.2-1.6-.9-3.3-1.7-5.1-2.4-.1,0-.3-.1-.5,0,0,.1,0,.3,0,.5-.4,2.8-.5,5.6-.2,8.4.3,2.7.9,5.3,1.9,7.7.9,2.2,2.1,4.2,3.5,6,1.8,2.3,3.8,4.2,6.1,6,1.8,1.4,3.7,2.6,5.7,3.7,1.1.6,2.1,1.2,3.3,1.7.7.3,1.4.7,2.2,1h.1c-.1.2-.3.2-.4.1-.5,0-.9-.2-1.3-.3-1-.3-2.1-.5-3.1-.8-.9-.3-1.8-.5-2.7-.9-.7-.3-1.4-.5-2.1-.8-.8-.4-1.6-.7-2.4-1.2-1.2-.6-2.4-1.3-3.5-2.2-2.4-1.8-4.5-3.9-6.1-6.5-1.3-2.1-2.3-4.4-3-6.7-.8-2.7-1.1-5.5-1.2-8.2-.1-3.4.2-6.8.7-10.2.1-.8.3-1.5.4-2.3,0,0,0-.2.1-.3"
                 id="path28" />
              <path
                 d="M272.1,228.4c.1,0,.3,0,.4,0,2.3-.1,4.6-.7,6.7-1.6,2.7-1.2,5-2.8,7.2-4.7.3-.2.6-.5.8-.7,0,0,.1,0,.2-.1-.2.5-.6,1.3-1.7,3-.6.9-1.3,1.8-2,2.7,0,.1.2,0,.3,0,1.4,0,2.7-.2,4.1-.4,4.1-.6,8.1-1.6,12.1-2.8.8-.3,1.7-.5,2.5-.8.1,0,.3,0,.4-.1,0,.2,0,.2-.2.2-.6.3-1.2.5-1.7.8-1.3.6-2.6,1.1-3.9,1.7-1,.4-2,.9-3,1.3-.1,0-.3,0-.4.3.2.2.7.5,1.4.7.5.2,1,.3,1.5.5.5.2,1,.2,1.5.4,0,.2-.2.1-.3.1-1.3,0-2.6,0-4-.2-1-.1-1.9-.3-2.8-.6-.2,0-.5,0-.7,0-.9.2-1.8.5-2.8.6-2.5.5-5,.6-7.5.6-2.7,0-5.4-.3-8-.8h-.2c0,0,0-.2,0-.2"
                 id="path29" />
              <path
                 d="M245.8,232.9c-.2-.1-.5-.3-.7-.4-2.4-1.6-4.7-3.2-6.8-5.1-2.3-2.1-4.3-4.4-6-7-.2-.2-.3-.4-.6-.5-2-1-3.8-2.4-5.5-3.9,0,0-.2-.2-.2-.3.7.4,1.4.7,2.1,1.1.7.3,1.5.6,2.3.7,0-.2,0-.3,0-.4-.5-1.2-1.1-2.4-1.6-3.5-.7-1.5-1.4-3-2-4.5,0-.2-.2-.3-.2-.5v-.2c.2,0,.2.2.3.3,1,1.8,2.1,3.5,3.2,5.2,1.8,2.7,3.6,5.3,5.7,7.7.7.8,1.5,1.6,2.2,2.4l.2.2c.2,0,.1-.2.1-.3,0-1.2.2-2.4.4-3.6.1-.8.3-1.6.5-2.5,0-.1,0-.2.1-.4.1,0,.1.2.1.3.1,1.4.3,2.9.7,4.3.4,2,1.1,4,2,5.9.9,1.8,2.1,3.5,3.6,4.9.1.1.2.2.3.3h0"
                 id="path30" />
            </g>
            <g
               id="g40">
              <path
                 class="cls-1"
                 d="M303.1,144.2c0,.2,0,.3,0,.5,0,3.1-.4,6.1-1,9.2-.3,1.4-.6,2.9-1,4.3-.6,2-1.3,4-2.2,5.9-1.4,3.1-3.2,6.1-5.3,8.8-1.4,1.8-2.9,3.5-4.5,5.2-1.3,1.4-2.6,2.6-4.1,3.8-1.4,1.2-2.9,2.2-4.6,3.1-2.9,1.5-6,2.3-9.2,2.1-1.6,0-3.1-.4-4.6-.8-1.1-.3-2.1-.7-3.1-1.1-1.2-.5-2.3-1.1-3.4-1.7-.4-.3-.8-.5-1.3-.8-.2-.1-.3-.3-.4-.5-.6-1.7-1.3-3.3-1.8-5-.6-2.1-.9-4.3-.8-6.4,0-1.3.3-2.5.6-3.8.2-.8.5-1.5.8-2.2.6-1.5,1.4-2.9,2.3-4.3.8-1.2,1.7-2.4,2.7-3.5l.2-.2c.2-.2.4-.3.7-.3,1.7,0,3.4-.1,5.1-.3,4-.3,7.9-.9,11.8-1.8,3.6-.9,7.1-2,10.5-3.5,4.1-1.7,8-3.9,11.8-6.3.2-.1.4-.3.8-.4"
                 id="path31" />
              <path
                 class="cls-1"
                 d="M240.1,145.6c0-.2,0-.4,0-.5,0-.5.1-1.1.3-1.6.4-1.1,1.1-1.9,2.1-2.4.6-.3,1.1-.4,1.7-.6,1-.2,2-.2,3-.3h.2c.1.2,0,.3,0,.4-.1.4-.3.7-.4,1.1-.4,1.1-.7,2.3-1,3.4-.8,3.1-1.3,6.3-1.3,9.6,0,2.8.5,5.6,1.3,8.3.9,2.8,2.1,5.4,3.5,7.9.8,1.4,1.7,2.8,2.6,4.1,0,.1.2.2.3.4h0s-.1-.2-.1-.2c-.7-1.4-1.5-2.7-2.1-4.1-1.2-2.4-2.2-4.8-2.9-7.4-.9-3.4-1.1-6.9-.6-10.5.3-1.7.6-3.3,1.1-4.9.3-1.2.7-2.3,1.1-3.5.6-1.7.9-3.6,1-5.4,0-1.7,0-3.4,0-5.1,0-.6,0-1.3,0-1.9,0-.1,0-.3,0-.4.2,0,.4,0,.6,0,1,.2,1.9.5,2.8.9,1.7.8,3.2,1.9,4.6,3.1,1.7,1.4,3.2,2.9,4.7,4.5,2.3,2.5,4.5,5.1,6.6,7.8,0,.1.2.2.3.4-.1,0-.2.2-.4.2-4.5,2.7-8.1,6.2-11,10.5-.7,1-1.3,2.1-1.8,3.1-.5,1-.9,2.1-1.3,3.2-.7,1.9-.9,3.9-.8,6,0,2.6.6,5.1,1.5,7.5,0,.2.2.3.1.5,0,.1-.2,0-.3,0-.9-.3-1.7-.7-2.5-1.1-2.8-1.4-5.3-3.3-7.5-5.6-1.6-1.7-3.1-3.4-4.5-5.3-1.3-1.8-2.7-3.6-4-5.4-.3-.4-.6-.8-.9-1.2-1.5-2.1-2.5-4.5-2.9-7.1-.1-1.1-.1-2.1.1-3.1.2-.9.7-1.8,1.3-2.5.8-.9,1.8-1.5,2.8-2,.5-.3,1.1-.5,1.7-.7.2,0,.4-.1.6-.2"
                 id="path32" />
              <path
                 class="cls-1"
                 d="M323.6,176.4c-.1,0-.2,0-.4,0-.5-.2-.9-.3-1.3-.5-2.8-.9-5.6-.9-8.4,0-1.9.7-3.5,1.7-5,3-.8.7-1.5,1.4-2.3,2.2-1.3,1.4-2.6,2.7-4.1,3.9-1.3,1-2.6,1.9-4.1,2.6-2.2,1-4.4,1.2-6.7.9-1.1-.2-2.1-.5-3.2-.9-1.6-.6-3-1.4-4.4-2.2-.1,0-.1,0-.3-.3,0,0,.2-.2.3-.2,2.7-1.8,5-3.9,7.2-6.3,1.2-1.3,2.4-2.6,3.5-4,1.3-1.7,2.6-3.4,3.7-5.3.6-1,1.1-2,1.7-3.1.3-.5.5-1.1.8-1.6.3-.6.6-1.3.8-1.9.3-.8.6-1.7.9-2.5.3-.9.6-1.9.8-2.8.4-1.4.7-2.9,1-4.4.2-.9.3-1.8.4-2.8,0-.1,0-.3,0-.4.2,0,.3,0,.4,0,.8.4,1.6.7,2.3,1.1,2.4,1.2,4.7,2.6,6.6,4.5,1.7,1.6,3.1,3.5,4.1,5.7.6,1.4,1.1,2.8,1.5,4.3.4,1.4.7,2.8,1.1,4.2.4,1.5.9,2.9,1.6,4.3.4.7.8,1.3,1.2,1.9,0,.1.2.2.2.4"
                 id="path33" />
              <path
                 class="cls-1"
                 d="M289.8,133c0-.2,0-.3,0-.5,0-.5,0-.9,0-1.4,0-1-.5-1.8-1-2.6-.5-.7-1-1.3-1.6-1.9-.7-.8-1.4-1.6-1.9-2.6,0-.2-.2-.4-.2-.6h.2c3.5-1.2,7.1-1.7,10.7-1.2,1.2.1,2.3.4,3.4.7,2.3.7,4.3,1.8,6,3.6,1.3,1.3,2.2,2.8,2.6,4.6.3,1.3.3,2.7,0,4-.5,2-1.5,3.6-2.8,5.1-1.1,1.2-2.3,2.2-3.6,3.1-3.1,2-6.4,3.9-9.7,5.4-3,1.4-6.1,2.6-9.3,3.5-4,1.2-8,1.9-12.1,2.4-1.9.2-3.8.3-5.6.4-.2,0-.3,0-.5,0,0-.2,0-.2.2-.3.5-.4,1-.9,1.5-1.3,2-1.6,4.1-2.9,6.4-4,2.7-1.3,5.5-2.3,8.3-3.2,1.7-.6,3.5-1.1,5.2-1.8,1.6-.6,3.1-1.3,4.7-1.9.8-.3,1.5-.6,2.3-1,.3-.1.5-.2.8-.4.6-.3.9-.8.9-1.5,0-1-.1-1.9-.6-2.8-.4-.8-1-1.6-1.7-2.2-.6-.5-1.2-1-1.8-1.4-.2-.1-.5-.2-.7-.4"
                 id="path34" />
              <path
                 class="cls-1"
                 d="M259,135c-.3-.3-.6-.5-.9-.7-1.1-.8-2.2-1.5-3.4-2.2-1.3-.7-2.6-1.2-4-1.3-.6,0-1.2-.1-1.8-.1-.1,0-.3,0-.4,0h-.1c-1.6-1.8-2.7-3.7-3-6-.2-1.6,0-3.2.7-4.7.9-2.1,2.5-3.6,4.6-4.6,1.5-.7,3.1-1,4.8-1,1.3,0,2.5.2,3.7.5.6.2,1.2.4,1.8.6,1.5.5,3,1.1,4.6,1.4,2,.5,4,.6,6,.3,1.2-.2,2.3-.3,3.5-.3.9,0,1.7,0,2.5.3,1.4.3,2.5,1.1,3.5,2.1.9.9,1.5,2,2.1,3.1.2.3.3.7.5,1v.2c0,.1-.1,0-.2,0-.6-.2-1.2-.3-1.8-.5-1.7-.4-3.4-.6-5.2-.5-1.3,0-2.6.3-3.8.6-2.1.5-4.2,1.1-6.3,1.8-.8.3-1.6.5-2.4.8-.5.2-.9.3-1.3.6-.3.2-.6.4-.8.7-.2.3-.4.6-.4.9,0,.4,0,.7,0,1.1,0,.5,0,.9,0,1.4,0,1.2-.4,2.3-1.1,3.2-.2.3-.5.6-.8.9,0,0-.2.1-.3.3"
                 id="path35" />
              <path
                 class="cls-1"
                 d="M260.3,136.1c0-.2.2-.3.3-.5.5-.5,1-1.1,1.3-1.7.1-.2.3-.3.5-.4,2-.3,4.1-.5,6.1-.3,2.8.3,5.3,1.4,7.4,3.3.1.1.3.3.4.4,1.7,2.2,3.5,4.5,5.2,6.7.1.1.2.3.3.4,0,.2-.2.2-.4.3-.9.3-1.7.6-2.6.9-2.5.8-5,1.6-7.5,2.5-.6.2-.5.2-.9-.3-1.6-2-3.2-4.1-5-6-1.5-1.7-3.1-3.4-4.8-4.9-.1-.1-.2-.2-.3-.3"
                 id="path36" />
              <path
                 class="cls-1"
                 d="M262.8,131.9c0-.1,0-.2,0-.3,0-.8.1-1.5,0-2.3,0-.2,0-.4,0-.6,0-.4.2-.8.6-1,.3-.1.5-.3.8-.4,2.7-.9,5.4-1.9,8.1-2.5,1.1-.3,2.1-.5,3.2-.6,2-.2,3.9,0,5.9.4,1.2.3,2.4.8,3.5,1.4,1.1.7,2.1,1.6,2.7,2.7.5,1,.7,2.1.7,3.3,0,0,0,.2,0,.3,0,0-.2,0-.3,0-.3-.1-.6-.2-1-.3-.7-.2-1.4-.4-2.1-.5-1.5-.2-3,0-4.4.6-1,.4-2,1-2.9,1.6-.5.3-1,.6-1.5,1-.1,0-.3-.1-.4-.2-.7-.5-1.5-1-2.3-1.4-.6-.3-1.3-.5-1.9-.7-2.6-.8-5.3-.8-7.9-.5-.2,0-.4,0-.7,0"
                 id="path37" />
              <path
                 class="cls-1"
                 d="M290.1,199.3c-.2,0-.3-.2-.4-.4-.7-.9-1.6-1.7-2.6-2.3-1-.6-2-1-3.1-1.4-.7-.2-1.4-.4-2-.7-.5-.2-1-.3-1.5-.4-.9-.2-1.8-.6-2.7-1-1-.4-1.9-1.1-2.8-1.8-.9-.8-1.6-1.6-2.3-2.6,0,0-.1-.2-.2-.3.2-.1.4,0,.6-.1.8,0,1.7-.1,2.5-.3,2.1-.4,4.2-1.1,6.1-2.2.4-.3.8-.3,1.2,0,1.4.9,2.8,1.9,4,3.1,1,1.1,1.9,2.3,2.5,3.6.6,1.4.9,2.9.9,4.5,0,.6,0,1.2-.1,1.8,0,0,0,.2,0,.3"
                 id="path38" />
              <path
                 class="cls-1"
                 d="M283.4,143.6c-.2-.2-.3-.4-.4-.6-.9-1.5-1.9-2.9-3-4.3-.7-.9-1.5-1.8-2.4-2.6,0,0-.2-.2-.2-.3v-.2c1.3-.8,2.4-1.5,3.7-2.1,1.1-.5,2.2-.8,3.4-.7.6,0,1.1.1,1.7.3.9.2,1.7.6,2.6,1,0,0,.2,0,.3.1,1.2.4,2.1,1.2,2.9,2.1.6.7,1,1.4,1.1,2.4,0,.3,0,.6,0,1,0,.2-.1.3-.3.4-.7.3-1.5.6-2.2.9-2.2.9-4.4,1.7-6.6,2.6-.2,0-.3.1-.6.2"
                 id="path39" />
              <path
                 class="cls-1"
                 d="M263.9,186.7c0,.1-.1.2-.2.3-1,1.2-2.1,2.2-3.4,3-1.1.6-2.2,1-3.4,1-1.4,0-2.8,0-4.2-.3-1.1-.1-2.2-.3-3.3-.4-1.5-.2-3,0-4.5.2-.2,0-.3.1-.5,0v-.2c1.5-1.9,3-3.6,4.9-5,2.3-1.6,4.9-2.3,7.7-2.3.3,0,.5.1.8.3.6.4,1.2.8,1.8,1.1,1.1.7,2.2,1.2,3.4,1.7.3.1.6.3.9.4"
                 id="path40" />
            </g>
          </g>
          <polyline
             class="cls-2"
             points="223.1 231 287.6 296.2 204.2 296.2 160.7 244.2"
             id="polyline41" />
        </g>
        <path
           d="M420.9,328.3c5.1,0,7.1,5.1,7.1,9.1s-3.1,9.2-7.2,9.2-7.2-3.9-7.2-9.1,2.2-9.2,7.3-9.2ZM421,325c-6.6,0-11.7,4.6-11.7,12.6s4.9,12.2,11.3,12.2,11.8-3.8,11.8-12.6-4.6-12.2-11.4-12.2ZM383.8,349.2h4.3v-14.2c0-.7,0-1.5.3-2,.7-2.4,2.9-4.4,5.8-4.4,4.1,0,5.5,3.2,5.5,7v13.6h4.3v-14.1c0-8.1-5.1-10.1-8.4-10.1s-6.7,2.2-7.8,4.5h0l-.2-3.9h-3.8c.1,2,.2,4,.2,6.4v17.3ZM374.5,316.2c-1.6,0-2.7,1.2-2.7,2.7s1.1,2.6,2.6,2.6,2.8-1.2,2.7-2.6c0-1.5-1-2.7-2.6-2.7ZM376.7,349.2v-23.7h-4.3v23.7h4.3ZM360.9,339.3c0,.7,0,1.3-.2,1.9-.8,3.2-3.4,5.1-6.3,5.1-4.6,0-7-4-7-8.8s2.6-9.1,7.1-9.1,5.6,2.2,6.2,5c.1.5.2,1.3.2,1.8v4.1ZM360.9,314.5v14.1h0c-1.1-1.9-3.5-3.6-7.1-3.6-5.8,0-10.7,4.8-10.6,12.7,0,7.2,4.4,12,10.1,12s6.7-2,8.1-4.6h0l.2,4.1h3.9c-.1-1.6-.2-4-.2-6.1v-28.6h-4.3ZM333.7,341.3c0,.4,0,.9-.2,1.4-.7,2-2.6,4-5.7,4s-4.1-1.3-4.1-4.1c0-4.6,5.3-5.4,10-5.3v4.1ZM338.2,349.2c-.3-1.6-.4-3.6-.4-5.7v-8.9c0-4.7-1.8-9.7-9-9.7s-5.8.8-7.8,2.1l1,2.8c1.7-1.1,4-1.8,6.2-1.8,4.8,0,5.4,3.5,5.4,5.5v.5c-9.1,0-14.2,3.1-14.2,8.8s2.4,6.8,7.2,6.8,5.9-1.7,7.2-3.5h.1l.3,3h3.9ZM306,319.9v5.7h-3.7v3.3h3.7v12.9c0,2.8.4,4.9,1.7,6.2,1,1.2,2.6,1.8,4.6,1.8s3-.2,3.8-.6l-.2-3.2c-.5.1-1.4.3-2.5.3-2.4,0-3.2-1.7-3.2-4.6v-12.8h6.2v-3.3h-6.2v-6.8l-4.2,1.1ZM289.8,319.9v5.7h-3.7v3.3h3.7v12.9c0,2.8.4,4.9,1.7,6.2,1,1.2,2.6,1.8,4.6,1.8s3-.2,3.8-.6l-.2-3.2c-.5.1-1.4.3-2.5.3-2.4,0-3.2-1.7-3.2-4.6v-12.8h6.2v-3.3h-6.2v-6.8l-4.2,1.1ZM279.6,316.2c-1.6,0-2.7,1.2-2.7,2.7s1.1,2.6,2.6,2.6,2.8-1.2,2.7-2.6c0-1.5-1-2.7-2.6-2.7ZM281.7,349.2v-23.7h-4.3v23.7h4.3ZM271.5,344.8c-1.7.8-4.4,1.4-6.9,1.4-8,0-12.7-5.2-12.7-13.3s5.1-13.6,12.9-13.6,5,.6,6.7,1.4l1-3.5c-1.1-.6-3.7-1.5-7.8-1.5-10.2,0-17.2,7-17.2,17.3s7,16.7,16.3,16.7,7.1-.8,8.7-1.6l-.9-3.4ZM221.9,328.3c5.1,0,7.1,5.1,7.1,9.1s-3.1,9.2-7.2,9.2-7.2-3.9-7.2-9.1,2.2-9.2,7.3-9.2ZM222,325c-6.6,0-11.7,4.6-11.7,12.6s4.9,12.2,11.3,12.2,11.8-3.8,11.8-12.6-4.6-12.2-11.4-12.2ZM202.7,316.2c-1.6,0-2.7,1.2-2.7,2.7s1.1,2.6,2.6,2.6,2.8-1.2,2.7-2.6c0-1.5-1-2.7-2.6-2.7ZM204.8,349.2v-23.7h-4.3v23.7h4.3ZM189,349.2h4.3v-34.7h-4.3v34.7ZM177.6,339.2c0,.7,0,1.6-.3,2.3-.9,2.7-3.3,4.4-6,4.4-4.6,0-7-3.9-7-8.5s2.9-9,7-9,5.2,2.1,6,4.5c.2.6.2,1.2.2,2v4.3ZM178.3,325.6l-.2,3.6h0c-1-2-3.3-4.1-7.4-4.1s-10.7,4.5-10.7,12.6,4.2,11.5,10.1,11.5,6.2-1.8,7.5-4h0v2.6c0,6-3.2,8.3-7.6,8.3s-5.4-.9-6.9-1.9l-1.1,3.3c1.9,1.3,5,2,7.9,2s6.3-.7,8.6-2.8c2.3-2.1,3.4-5.4,3.4-10.8v-13.7c0-2.9,0-4.8.2-6.5h-3.8ZM139.6,335.1c.3-3,2.2-7,6.6-7s6,4.3,6,7h-12.6ZM156.2,338.2c0-.4.1-1.1.1-2,0-4.4-2.1-11.2-9.8-11.2s-11.1,5.6-11.1,12.8,4.4,11.9,11.6,11.9,6.4-.8,7.9-1.5l-.7-3.1c-1.6.7-3.5,1.2-6.6,1.2s-8-2.4-8.1-8.2h16.6ZM111.2,325.6l9,23.7h4.1l9.3-23.7h-4.5l-4.6,13.3c-.8,2.2-1.5,4.1-2,6.1h-.1c-.5-2-1.1-3.9-1.9-6.1l-4.6-13.3h-4.6ZM93.1,348.1c1.7,1,4.1,1.6,6.7,1.6,5.6,0,8.9-2.9,8.9-7.1s-2.1-5.6-6.2-7.1c-3.1-1.2-4.5-2.1-4.5-4s1.4-3.2,4-3.2,3.9.8,4.8,1.4l1.1-3.1c-1.3-.8-3.4-1.5-5.8-1.5-5.1,0-8.2,3.1-8.2,6.9s2,5.2,6.3,6.7c3.2,1.2,4.4,2.3,4.4,4.4s-1.5,3.5-4.6,3.5-4.4-.9-5.7-1.7l-1.1,3.3ZM85.5,316.2c-1.6,0-2.7,1.2-2.7,2.7s1.1,2.6,2.6,2.6,2.8-1.2,2.7-2.6c0-1.5-1-2.7-2.6-2.7ZM87.6,349.2v-23.7h-4.3v23.7h4.3ZM60.9,319.7c.7-.2,2.2-.4,4.2-.4,4.5,0,7.6,1.9,7.6,6.2s-2.9,6.3-7.4,6.3h-4.4v-12ZM56.7,349.2h4.3v-14.3h4c3.9.1,5.6,1.9,6.6,6.4.9,4.1,1.7,6.9,2.2,7.9h4.4c-.7-1.3-1.5-4.5-2.5-9-.8-3.4-2.3-5.8-4.8-6.7h0c3.5-1.3,6.2-4.2,6.2-8.6s-.9-4.8-2.6-6.3c-2.1-1.9-5-2.7-9.5-2.7s-6,.2-8.2.7v32.5Z"
           id="path42" />
      </g>
    </g>
  </g>
</svg>
