<?xml version="1.0" encoding="UTF-8" standalone="no"?>
<svg
   height="506"
   viewBox="0 0 133.87902 133.87881"
   width="506"
   version="1.1"
   id="svg1"
   sodipodi:docname="logo_trasp.svg"
   inkscape:version="1.4-rc1 (61ec3f24, 2024-09-26)"
   xmlns:inkscape="http://www.inkscape.org/namespaces/inkscape"
   xmlns:sodipodi="http://sodipodi.sourceforge.net/DTD/sodipodi-0.dtd"
   xmlns="http://www.w3.org/2000/svg"
   xmlns:svg="http://www.w3.org/2000/svg">
  <defs
     id="defs1" />
  <sodipodi:namedview
     id="namedview1"
     pagecolor="#ffffff"
     bordercolor="#000000"
     borderopacity="0.25"
     inkscape:showpageshadow="2"
     inkscape:pageopacity="0.0"
     inkscape:pagecheckerboard="0"
     inkscape:deskcolor="#d1d1d1"
     inkscape:zoom="1.2973481"
     inkscape:cx="272.09352"
     inkscape:cy="254.75044"
     inkscape:current-layer="svg1" />
  <g
     id="g4"
     transform="matrix(0.26458305,0,0,0.26458305,0,-1.1067741e-4)">
    <path
       class="cls-5"
       d="M 253,506 C 185.4,506 121.9,479.7 74.1,431.9 26.3,384.1 0,320.6 0,253 0,185.4 26.3,121.9 74.1,74.1 121.9,26.3 185.4,0 253,0 320.6,0 384.1,26.3 431.9,74.1 479.7,121.9 506,185.4 506,253 506,320.6 479.7,384.1 431.9,431.9 384.1,479.7 320.6,506 253,506"
       id="path1"
       style="fill:#009640" />
    <path
       class="cls-4"
       d="M 253,500.4 C 186.9,500.4 124.8,474.7 78.1,428 31.4,381.2 5.7,319.1 5.7,253 5.7,186.9 31.4,124.8 78.1,78.1 124.8,31.4 187,5.7 253,5.7 c 66,0 128.2,25.7 174.9,72.4 46.7,46.7 72.4,108.8 72.4,174.9 0,66.1 -25.7,128.2 -72.4,174.9 -46.7,46.7 -108.8,72.4 -174.9,72.4"
       id="path2"
       style="fill:#ffffff" />
    <path
       class="cls-1"
       d="M 253,494.7 C 188.4,494.7 127.8,469.6 82.1,423.9 36.5,378.3 11.3,317.6 11.3,253 11.3,188.4 36.4,127.8 82.1,82.1 127.8,36.5 188.5,11.3 253,11.3 c 64.5,0 125.2,25.1 170.9,70.8 45.6,45.6 70.8,106.3 70.8,170.9 0,64.6 -25.1,125.2 -70.8,170.9 -45.6,45.6 -106.3,70.8 -170.9,70.8"
       id="path3"
       style="fill:#e42320" />
    <path
       class="cls-4"
       d="M 489,253 C 489,383.3 383.3,489 253,489 122.7,489 17,383.4 17,253 17,122.6 122.7,17 253,17 383.3,17 489,122.7 489,253"
       id="path4"
       style="fill:#ffffff" />
  </g>
  <g
     id="g22"
     transform="matrix(0.26458305,0,0,0.26458305,0,-1.1067741e-4)">
    <path
       class="cls-1"
       d="m 47.5,369 c 40.5,71.6 117.4,120 205.6,120 88.2,0 165,-48.4 205.6,-120 z"
       id="path5"
       style="fill:#e42320" />
    <g
       id="g21">
      <path
         class="cls-4"
         d="m 106.8,412.2 c -1.2,-0.5 -2.9,-1.7 -4.2,-3 -3.8,-3.9 -3.7,-8.5 0.1,-12.3 4.2,-4.2 9,-3.6 12.4,-0.2 1.5,1.5 2.4,3.1 2.9,4.3 l 4.3,-2.5 c -0.4,-1.2 -1.6,-3.3 -3.8,-5.5 -5.8,-5.8 -14,-6.8 -20.5,-0.3 -5.4,5.4 -6.2,12.9 0.4,19.5 2.3,2.3 4.5,3.7 5.7,4.1 l 2.7,-4 z"
         id="path6"
         style="fill:#ffffff" />
      <path
         class="cls-4"
         d="m 124.2,413.4 c 2.2,1.7 1.2,4.7 -0.7,7 -2.2,2.7 -4.9,3.6 -6.7,2.2 -2,-1.6 -1.5,-4.5 0.6,-7.1 2.1,-2.6 4.5,-3.9 6.8,-2.1 z m 2.8,-3.2 c -4.9,-3.9 -10.7,-3.4 -14.6,1.5 -3.9,4.9 -2.9,10.6 1.6,14.2 4.1,3.3 10.1,3.9 14.6,-1.7 4.5,-5.6 3.1,-10.3 -1.5,-14.1 z"
         id="path7"
         style="fill:#ffffff" />
      <path
         class="cls-4"
         d="m 126.7,435 5.1,3.4 5.5,-8.3 c 0.3,-0.4 0.6,-0.8 0.8,-1.1 1.4,-1.3 3.3,-1.5 5.2,-0.3 0.6,0.4 1,0.7 1.3,1 l 3.2,-4.8 c -0.3,-0.3 -0.6,-0.5 -1,-0.8 -1.6,-1 -4.2,-1.4 -6.6,0.5 h -0.1 c 0,0 1.8,-3.2 1.8,-3.2 l -4.4,-2.9 c -0.9,1.4 -1.8,3.1 -3.4,5.5 l -7.2,10.9 z"
         id="path8"
         style="fill:#ffffff" />
      <path
         class="cls-4"
         d="m 157,420.9 c -1.7,-1 -3.5,-0.5 -4.3,1.1 -0.9,1.4 -0.4,3.3 1.2,4.2 1.6,0.9 3.5,0.4 4.4,-1 0.8,-1.5 0.4,-3.3 -1.3,-4.3 z m -11.3,25.8 9.7,-17 -5.3,-3 -9.7,17 z"
         id="path9"
         style="fill:#ffffff" />
      <path
         class="cls-4"
         d="m 166.2,447.2 c -0.2,0.5 -0.5,1 -0.9,1.4 -1,1.1 -2.5,1.6 -3.9,0.9 -2.3,-1.1 -2.7,-3.8 -1.4,-6.4 1.5,-3.2 4,-4.3 6,-3.4 1.5,0.7 2.1,2.2 1.8,3.8 0,0.3 -0.2,0.7 -0.4,1.1 z m 5.4,-9.4 -1.2,2 v 0 c -0.2,-1.9 -1.3,-3.7 -3.7,-4.8 -4.4,-2 -9.7,-0.1 -12.4,5.6 -2.4,5.1 -0.9,10.1 3.5,12.2 2,0.9 4.1,0.9 5.9,0 v 0 c 0,0 -0.5,1.2 -0.5,1.2 -1.5,3.3 -4.2,3.8 -6.8,2.5 -2.1,-1 -3.7,-2.6 -4.5,-3.7 l -3,3.7 c 1.2,1.6 3.4,3.3 5.7,4.3 2.3,1 5.5,1.9 8.2,1.2 2.8,-0.8 4.8,-3.3 6.4,-6.7 l 4.6,-9.9 c 1.2,-2.6 2,-4.1 2.6,-5.2 l -4.8,-2.2 z"
         id="path10"
         style="fill:#ffffff" />
      <rect
         class="cls-4"
         x="167.5"
         y="444.5"
         width="28.4"
         height="6.0999999"
         transform="rotate(-69.9,181.46804,447.45752)"
         id="rect10"
         style="fill:#ffffff" />
      <path
         class="cls-4"
         d="m 196.3,437.9 c -1.9,-0.6 -3.5,0.3 -4,2 -0.5,1.6 0.3,3.3 2.1,3.8 1.8,0.5 3.5,-0.3 4,-1.9 0.5,-1.7 -0.3,-3.3 -2.2,-3.9 z m -5.4,27.7 5.7,-18.7 -5.8,-1.8 -5.7,18.7 z"
         id="path11"
         style="fill:#ffffff" />
      <path
         class="cls-4"
         d="m 208.6,462.7 c 0,0.4 -0.2,0.7 -0.3,1 -0.7,1.1 -2.1,1.8 -3.6,1.5 -1.3,-0.3 -2.2,-1.3 -1.8,-2.8 0.5,-2.3 3.1,-2.5 6.2,-1.8 z m 4.5,8.3 c 0,-1.1 0.4,-2.9 0.8,-4.7 l 1.5,-6.6 c 1,-4.5 -0.2,-8.7 -6.6,-10.1 -3.5,-0.8 -6.3,-0.4 -7.8,0 l 0.2,4.1 c 1.4,-0.5 3.6,-0.7 5.6,-0.3 2.9,0.7 3.2,2.2 2.9,3.2 v 0.3 c -6.8,-1.5 -11.8,-0.1 -12.9,4.8 -0.7,3 1,6.4 4.9,7.2 2.3,0.5 4.4,0.1 6,-1.1 h 0.1 c 0,0 0,2 0,2 z"
         id="path12"
         style="fill:#ffffff" />
      <path
         class="cls-4"
         d="m 219.4,472 6,0.7 1.2,-11.2 c 0,-0.6 0.2,-1.1 0.4,-1.5 0.5,-1.1 1.6,-2.1 3.3,-1.9 2.2,0.2 2.9,2 2.6,4.6 l -1.2,10.8 6,0.7 1.3,-11.5 c 0.6,-5.7 -2.1,-8.7 -6,-9.1 -3.2,-0.4 -5.4,1.3 -6.3,2.4 h -0.1 c 0,0 0,-2.7 0,-2.7 l -5.2,-0.6 c -0.1,1.7 -0.3,3.8 -0.5,6.2 l -1.5,13.2 z"
         id="path13"
         style="fill:#ffffff" />
      <path
         class="cls-4"
         d="m 253.7,458.7 c 2.8,0 3.9,2.9 4,5.8 0,3.5 -1.4,5.9 -3.8,5.9 -2.6,0 -4,-2.5 -4.1,-5.8 -0.1,-3.3 1,-5.9 3.9,-5.9 z m 0.1,-4.3 c -6.3,0.1 -10.4,4.2 -10.3,10.5 0.1,6.3 4.6,10 10.3,9.9 5.2,0 10.3,-3.4 10.2,-10.6 0,-5.9 -4.2,-9.9 -10.2,-9.8 z"
         id="path14"
         style="fill:#ffffff" />
      <path
         class="cls-4"
         d="m 280.9,450 c 0.4,-0.1 1.2,-0.4 2.7,-0.6 2.8,-0.4 4.6,0.6 5,3 0.4,2.3 -1.2,4.1 -4.2,4.6 l -2.4,0.4 z m -2.5,23.1 6,-0.9 -1.6,-10.5 1.8,-0.3 c 2.5,-0.3 3.7,0.4 5,3.6 1.3,3.2 2.3,5.2 2.8,5.9 l 6.2,-1 c -0.7,-0.9 -2,-4.3 -3.3,-7.2 -1.1,-2.3 -2.4,-4 -4.3,-4.4 v 0 c 2.2,-1.3 4.2,-4 3.7,-7.4 -0.4,-2.5 -1.5,-4.2 -3.3,-5.2 -2.1,-1.2 -5,-1.4 -8.9,-0.7 -3.2,0.5 -6,1.2 -7.9,1.8 l 4.1,26.3 z"
         id="path15"
         style="fill:#ffffff" />
      <path
         class="cls-4"
         d="m 308.1,451.3 c 2.7,-0.7 4.5,1.8 5.3,4.6 0.9,3.4 0.1,6.1 -2.2,6.7 -2.5,0.7 -4.5,-1.4 -5.4,-4.6 -0.9,-3.2 -0.5,-6 2.3,-6.7 z m -1,-4.3 c -6.1,1.7 -9,6.7 -7.3,12.8 1.7,6.1 6.9,8.5 12.4,7 5.1,-1.4 9.1,-5.9 7.2,-12.8 -1.6,-5.7 -6.5,-8.6 -12.3,-7 z"
         id="path16"
         style="fill:#ffffff" />
      <path
         class="cls-4"
         d="m 325.8,461.3 c 1.7,0.2 4,0 6.4,-1 5.2,-2 6.9,-5.6 5.6,-9 -1.1,-2.7 -3.2,-3.9 -7.1,-3.7 -2.5,0 -3.4,0 -3.8,-0.9 -0.4,-0.9 0.2,-1.8 1.6,-2.3 1.6,-0.6 3.4,-0.6 4.4,-0.5 l -0.5,-4.3 c -1.3,-0.1 -3.4,0.1 -5.6,0.9 -4.5,1.7 -6.4,5.4 -5.1,8.8 0.8,2.2 3.1,3.7 7.3,3.5 2.4,-0.1 3.1,0.1 3.5,1 0.4,0.9 -0.1,1.8 -1.8,2.5 -1.7,0.7 -4.1,0.7 -5.4,0.5 l 0.6,4.5 z"
         id="path17"
         style="fill:#ffffff" />
      <path
         class="cls-4"
         d="m 343.2,454.4 c 1.7,0 4,-0.4 6.3,-1.6 5,-2.5 6.4,-6.1 4.8,-9.4 -1.3,-2.6 -3.5,-3.6 -7.4,-3.1 -2.5,0.3 -3.4,0.2 -3.8,-0.6 -0.4,-0.9 0,-1.8 1.4,-2.5 1.5,-0.7 3.3,-0.9 4.3,-0.9 l -0.9,-4.2 c -1.3,0 -3.4,0.4 -5.5,1.4 -4.3,2.1 -5.9,6 -4.3,9.2 1,2.1 3.4,3.4 7.6,2.8 2.4,-0.3 3.1,-0.2 3.6,0.7 0.5,0.9 0,1.8 -1.6,2.6 -1.6,0.8 -4.1,1.1 -5.4,1 l 0.9,4.4 z"
         id="path18"
         style="fill:#ffffff" />
      <path
         class="cls-4"
         d="m 366.7,434.7 c 0.2,0.3 0.3,0.6 0.4,0.9 0.3,1.3 -0.2,2.8 -1.5,3.6 -1.3,0.8 -2.4,0.6 -3.3,-0.7 -1.2,-2 0.5,-4 3.2,-5.6 l 1.1,1.8 z m 9,2.8 c -0.7,-0.8 -1.7,-2.3 -2.7,-3.9 l -3.5,-5.8 c -2.4,-3.9 -6.2,-6.1 -11.7,-2.7 -5.5,3.4 -4.8,4.1 -5.6,5.4 l 3,2.8 c 0.7,-1.4 2.1,-3 3.8,-4.1 2.6,-1.6 3.8,-0.6 4.4,0.3 v 0.2 c -5.8,3.6 -8.4,8 -5.7,12.4 2.7,4.4 5.1,3.9 8.5,1.8 3.4,-2.1 3.2,-3 3.5,-5 h 0.1 c 0,0 1.3,1.4 1.3,1.4 l 4.7,-2.9 z"
         id="path19"
         style="fill:#ffffff" />
      <path
         class="cls-4"
         d="m 381,434 4.8,-3.7 -6.9,-8.9 c -0.3,-0.4 -0.6,-1 -0.7,-1.3 -0.4,-1.1 -0.3,-2.7 1,-3.7 1.7,-1.3 3.5,-0.5 5,1.5 l 6.6,8.6 4.8,-3.7 -7.1,-9.2 c -3.5,-4.6 -7.5,-4.8 -10.7,-2.4 -2.6,2 -3,4.7 -2.9,6.2 v 0 c 0,0 -1.9,-1.9 -1.9,-1.9 l -4.2,3.2 c 1.1,1.3 2.4,2.9 3.9,4.8 l 8.1,10.5 z"
         id="path20"
         style="fill:#ffffff" />
      <path
         class="cls-4"
         d="m 396.4,400.6 c 2,-1.9 4.8,-0.6 6.9,1.5 2.5,2.5 3,5.3 1.3,6.9 -1.9,1.8 -4.6,1 -7,-1.4 -2.4,-2.4 -3.3,-5 -1.2,-7 z m -2.9,-3.3 c -4.5,4.4 -4.7,10.2 -0.3,14.7 4.4,4.5 10.2,4.2 14.3,0.2 3.8,-3.6 5.1,-9.5 0.1,-14.7 -4.1,-4.2 -9.8,-4.4 -14.1,-0.2 z"
         id="path21"
         style="fill:#ffffff" />
    </g>
  </g>
  <g
     id="g42"
     transform="matrix(0.26458305,0,0,0.26458305,0,-1.1067741e-4)">
    <g
       id="g23">
      <path
         class="cls-3"
         d="m 370.3,245.6 c -16.9,0 -32.4,-5.3 -43,-15 -9,-8.3 -14.5,-19.7 -14.3,-33.8 0,-14.3 6.3,-25.7 16.3,-33.7 11.3,-9.1 27.4,-13.9 44.5,-13.9 h 30.8 l 24.1,-51.6 h -66.3 c -28.3,0 -57.9,10 -79.3,28.4 -2.5,2.1 -4.9,4.4 -7.1,6.8 5.8,10.3 8.8,22 8.8,34.7 0,20.2 -5.3,36.8 -15.7,49.3 -3.4,4 -7.3,7.6 -11.7,10.8 6.4,18.3 18,32.1 33.2,44.1 19.4,15.4 44.7,24.4 72.1,24.4 h 66 l -23.5,-50.3 h -34.8 z"
         id="path22"
         style="fill:#52dd80" />
      <path
         class="cls-2"
         d="m 56.5,149.4 35,-51.6 h 90.6 c 23,0 46,5.8 63.3,17.4 17.5,11.7 29.2,29.1 29.2,52.3 0,23.2 -4.9,32.7 -13.4,42.8 -9.1,10.8 -22.3,17.4 -38.1,20.7 l 64.5,65.2 h -83.4 l -43.5,-52 H 118.1 V 297 H 56.5 V 195 h 117 c 10.9,0 20.4,-1.5 27.1,-5.2 6.7,-3.6 10.8,-9.3 10.8,-17.6 0,-8.3 -2.8,-12.6 -7.8,-16.2 -6.4,-4.7 -16.4,-6.6 -28.8,-6.6 z"
         id="path23"
         style="fill:#0070b0" />
    </g>
    <g
       id="g41">
      <path
         class="cls-4"
         d="m 326.5,175.78561 c -0.2,-0.50457 -0.4,-0.80732 -0.5,-1.00915 0,0 0,0 -0.1,-0.10091 -0.3,-0.50458 -0.7,-0.90824 -0.9,-1.51373 v 0 c -0.6,-1.11006 -1,-2.32104 -1.4,-3.63294 -0.4,-1.41281 -0.7,-2.82562 -1.1,-4.23843 -0.4,-1.61464 -1,-3.22928 -1.7,-4.84392 v 0 c -1.1,-2.52288 -2.8,-4.84392 -4.8,-6.66039 -2.3,-2.11922 -4.8,-3.73386 -7.4,-5.04575 -0.9,-0.40366 -1.7,-0.80732 -2.4,-1.11007 0,0 0,0 0,0 0,-0.80732 0,-1.71555 0.1,-2.52287 v 0 c 0,-0.50458 0,-0.60549 0,-0.70641 0,-0.10091 0,-0.30274 0,-0.40366 0.5,-0.50457 1.1,-1.00915 1.5,-1.51372 1.6,-1.71556 2.9,-3.83477 3.5,-6.45856 0.2,-0.90824 0.3,-1.81648 0.3,-2.72471 0,-0.90824 -0.1,-1.91739 -0.3,-2.82562 -0.6,-2.42196 -1.8,-4.44026 -3.4,-6.0549 -2.1,-2.11922 -4.7,-3.53203 -7.3,-4.33935 -1.3,-0.40366 -2.7,-0.7064 -4,-0.90823 -1,-0.10092 -2.1,-0.20183 -3.1,-0.20183 -2.8,0 -5.5,0.50457 -8.1,1.21098 -0.6,-1.00915 -1.2,-2.0183 -2.1,-3.02745 -1.3,-1.41281 -3,-2.52288 -5,-3.02745 -1.1,-0.30275 -2.1,-0.40366 -3.1,-0.40366 H 275 c -1.4,0 -2.7,0.20183 -3.9,0.40366 v 0 c -0.6,0 -1.1,0.10091 -1.7,0.10091 -1,0 -2,-0.10091 -3.1,-0.40366 -1.3,-0.30274 -2.7,-0.80732 -4.3,-1.41281 -0.5,-0.20183 -1.2,-0.40366 -2,-0.60549 -1.4,-0.40366 -2.9,-0.60549 -4.5,-0.60549 v 0 h -0.2 c -2,0 -4,0.30275 -6,1.3119 -1.3,0.60549 -2.6,1.41281 -3.6,2.52287 -1,1.00915 -1.9,2.32105 -2.5,3.73386 -0.6,1.51372 -1,3.12836 -1,4.743 0,0.50458 0,1.11007 0.1,1.61464 v 0 c 0.2,1.51373 0.7,2.92654 1.3,4.23843 0.7,1.3119 1.5,2.42196 2.5,3.43111 0.1,0.10092 0.3,0.30275 0.4,0.40366 h 0.1 c 0.1,0.20183 0.3,0.30275 0.4,0.30275 0,0.30274 0,0.60549 0,0.90823 v 0 c 0,0.10092 0,0.10092 0,0.10092 0,0.7064 0,1.3119 0,1.91739 0,0.30274 0,0.60549 0,0.90823 -1.1,0 -2.2,0 -3.4,0.30275 -0.8,0.20183 -1.7,0.40366 -2.5,0.80732 -0.8,0.40366 -1.6,1.00915 -2.2,1.71555 -0.6,0.70641 -1.1,1.61464 -1.4,2.52288 v 0 c 0,0.30274 -0.2,0.60549 -0.2,0.90823 -0.3,0.10092 -0.5,0.20183 -0.8,0.40366 -1.3,0.60549 -2.6,1.51373 -3.7,2.72471 -1,1.11006 -1.7,2.52287 -2.1,3.93568 -0.2,0.80732 -0.3,1.71556 -0.3,2.52288 0,0.60549 0,1.21098 0.1,1.71555 0.4,3.12837 1.6,5.95399 3.4,8.47687 v 0 c 0.3,0.50457 0.6,0.90823 0.9,1.31189 v 0 c 1.3,1.81647 2.6,3.63294 4,5.44941 1.4,1.91739 3,3.83477 4.7,5.65124 2.2,2.22013 4.6,4.23843 7.5,5.75216 -1.2,0.50457 -2.4,1.11006 -3.5,1.81647 -2.3,1.61464 -4.1,3.63294 -5.6,5.65124 -0.2,0.20183 -0.3,0.50458 -0.4,0.70641 v 0.20183 c -0.7,1.51372 0,3.12836 1.4,3.93568 0.5,0.30275 1.1,0.40366 1.6,0.40366 0.4,0 0.7,0 0.9,-0.10091 v 0 c 0.8,-0.10092 1.6,-0.20183 2.3,-0.20183 0.7,0 0.8,0 1.2,0 v 0 c 1.1,0.10091 2.1,0.20183 3.2,0.40366 v 0 c 1.2,0.20183 2.6,0.30274 3.9,0.30274 0.3,0 0.5,0 0.8,0 v 0 c 1.8,0 3.4,-0.60549 4.8,-1.41281 v 0 c 0.7,-0.40366 1.3,-0.90823 1.9,-1.41281 -0.2,2.11922 -0.4,4.33935 -0.7,6.45856 -0.6,4.74301 -1.5,9.3851 -2.6,13.92628 -0.4,1.61464 -0.8,3.12836 -1.3,4.743 -0.5,1.61464 -1,3.3302 -1.5,4.94484 -0.5,1.41281 -1,2.92653 -1.6,4.33934 -0.3,0.80732 -0.6,1.61464 -1,2.52288 -0.4,0.90823 -0.7,1.71555 -1,2.52287 -0.3,-1.61464 -0.6,-3.12836 -1,-4.64209 -0.9,-3.22928 -2.3,-6.35764 -4,-9.28418 -1.5,-2.52287 -3.3,-4.743 -5.2,-6.86222 -2.2,-2.42196 -4.7,-4.54118 -7.2,-6.45856 -2.4,-1.81647 -4.9,-3.3302 -7.5,-4.74301 -1.6,-0.90823 -3.3,-1.71555 -4.9,-2.52287 v 0 c -0.4,-0.20183 -0.6,-0.20183 -0.8,-0.30275 h -0.1 c 0,0 0,0 0,0 v 0 c -1.5,-0.40366 -3,0.40366 -3.6,1.81647 v 0 c 0,0 0,0 0,0.20183 0,0.10092 -0.1,0.40366 -0.2,0.70641 -0.1,0.7064 -0.3,1.51372 -0.4,2.32104 -0.5,3.02745 -0.7,6.0549 -0.7,9.08236 0,0.60549 0,1.11006 0,1.71555 0.1,3.02745 0.5,6.0549 1.3,9.08235 0.7,2.62379 1.8,5.24758 3.3,7.56863 1.8,2.92653 4.2,5.3485 6.9,7.3668 1.2,0.90823 2.5,1.71555 3.8,2.42196 0.9,0.50457 1.8,0.90823 2.6,1.31189 0.8,0.40366 1.6,0.60549 2.2,0.90824 v 0 c 1.1,0.40366 2.1,0.7064 3,1.00915 v 0 c 1.1,0.30274 2.2,0.60549 3.2,0.80732 v 0 c 0.6,0.10091 1.1,0.20183 1.5,0.30274 v 0 c 0,0 0.3,0 0.8,0 0.3,0 0.6,0 0.9,-0.10091 0.2,0 0.4,-0.10092 0.5,-0.20183 -0.2,0.40366 -0.4,0.80732 -0.7,1.21098 -1.2,2.11921 -2.4,4.23843 -3.7,6.25673 -1.5,2.32104 -3,4.64209 -4.6,6.96313 -2.1,3.02746 -4.3,5.95399 -6.6,8.77961 -0.5,0.70641 -1.1,1.3119 -1.6,2.0183 0,0 -0.2,0.20183 -0.4,0.50458 -0.1,0.20183 -0.2,0.50457 -0.3,0.80732 0,0.30274 -0.1,0.50457 -0.1,0.80732 -0.1,0.20183 -0.3,0.30274 -0.4,0.50457 -1,1.11007 -2.1,2.22013 -3.2,3.3302 v 0 c -0.6,0.60549 -1.2,1.21098 -1.9,1.81647 v 0 c -0.8,0.80732 -1.6,1.51372 -2.4,2.22013 -0.8,0.80732 -1.7,1.51372 -2.6,2.32104 -1.1,1.00915 -2.3,2.0183 -3.6,3.02746 -1.4,1.11006 -2.8,2.22013 -4.3,3.33019 v 0 c -1.9,1.41281 -3.9,2.82562 -5.9,4.23843 -2.3,1.51373 -4.6,3.02745 -7,4.44026 -3.1,1.91739 -6.3,3.63294 -9.5,5.3485 -0.8,0.40366 -1.5,0.80732 -2.3,1.21098 0,0 0,0 -0.2,0 -0.2,0.10091 -0.6,0.30274 -1,0.80732 -0.4,0.40366 -0.7,1.11006 -0.8,1.61464 -0.2,0.90823 0,1.81647 0.6,2.52287 l 0.2,0.20184 0.2,0.20183 c 0.2,0.20183 0.4,0.40366 0.5,0.50457 1.4,1.41281 2.7,2.72471 4.1,4.13752 0,0 0.2,0.20183 0.5,0.50457 0.3,0.30275 0.9,0.60549 1.6,0.70641 0.8,0.20183 1.5,0 2.2,-0.40366 0,0 0.3,-0.20183 0.6,-0.40366 v 0 c 2.2,-1.51373 4.5,-2.92654 6.8,-4.44026 1.7,-1.11007 3.3,-2.22014 4.9,-3.43112 1.3,-0.90823 2.5,-1.81647 3.7,-2.7247 v 0 c 1.1,-0.80732 2.2,-1.61464 3.2,-2.42196 1.2,-0.90824 2.4,-1.91739 3.6,-2.82562 0.9,-0.70641 1.8,-1.41281 2.7,-2.22013 0.8,-0.70641 1.6,-1.3119 2.3,-2.0183 1.1,-1.00915 2.2,-1.91739 3.4,-3.02745 1.1,-1.00915 2.2,-2.0183 3.4,-3.12837 1.3,-1.21098 2.5,-2.52287 3.7,-3.73386 1.4,-1.41281 2.8,-2.92653 4.1,-4.33934 0.8,-0.80732 1.5,-1.71556 2.2,-2.52288 0.2,0 0.4,0 0.6,0 0.3,0 0.5,0 0.8,0 0.8,-0.20183 1.4,-0.60549 1.9,-1.21098 0,0 0.2,-0.30274 0.4,-0.60549 v 0 c 1.5,-2.22013 2.9,-4.54117 4.4,-6.86222 1.1,-1.71555 2.1,-3.43111 3.1,-5.14666 0.8,-1.3119 1.6,-2.72471 2.3,-4.03661 v 0 c 0.7,-1.21098 1.3,-2.32104 2,-3.53202 v 0 c 0.7,-1.3119 1.4,-2.72471 2.1,-4.0366 0.5,-1.00915 1.1,-2.0183 1.6,-3.12837 0.5,-0.90823 0.9,-1.81647 1.3,-2.7247 0.6,-1.3119 1.3,-2.72471 1.9,-4.13752 0.6,-1.41281 1.2,-2.82562 1.8,-4.23843 v 0 c 0.2,-0.50457 0.4,-1.11006 0.6,-1.61464 0,0 0,0 0,0 0,0 0.1,0.20183 0.3,0.40366 0.2,0.20183 0.4,0.40366 0.7,0.60549 v 0 c 0.5,0.30275 1.1,0.70641 1.7,1.00915 0.9,0.50458 1.8,1.00915 2.8,1.41281 0.9,0.40366 1.9,0.90824 2.9,1.3119 1.6,0.7064 3.3,1.21098 5,1.61464 v 0 c 1.6,0.40366 3.3,0.7064 5,0.80732 0.8,0 1.5,0 2.3,0 2.1,0 4.1,-0.20183 6.2,-0.70641 3.3,-0.80732 6.4,-2.22013 9.1,-4.13751 2.8,-1.81647 5.2,-4.03661 7.3,-6.45857 2.6,-2.92653 4.9,-6.15581 6.9,-9.38509 v 0 c 0.1,-0.20183 0.2,-0.40366 0.3,-0.50458 v 0 c 0,-0.10091 0,-0.10091 0,-0.10091 v 0 c 0.5,-1.11007 0.3,-2.52288 -0.5,-3.43111 -0.5,-0.50458 -1.1,-0.90824 -1.5,-1.00915 -0.2,0 -0.4,-0.10092 -0.5,-0.10092 v 0 c 0,0 0,0 0,0 v 0 c -1.8,-0.50457 -3.5,-1.00915 -5.3,-1.41281 v 0 c -2.4,-0.50457 -4.8,-1.00915 -7.3,-1.31189 -2.2,-0.30275 -4.4,-0.40366 -6.5,-0.40366 -2,0 -4.1,0.10091 -6.1,0.40366 -3.8,0.50457 -7.4,1.51372 -10.9,3.02745 -2.4,1.11006 -4.7,2.42196 -6.9,4.0366 0.1,-0.40366 0.3,-0.90824 0.4,-1.41281 v 0 c 0,0 0,0 0,0 0.5,-1.81647 0.9,-3.63294 1.3,-5.44941 0.5,-2.11922 0.9,-4.33935 1.3,-6.45857 0.7,-4.13751 1.2,-8.37594 1.4,-12.61437 0.9,0.7064 1.9,1.41281 3,1.81647 1,0.40366 2,0.80732 3.2,1.11006 v 0 c 0.4,0 0.8,0.20183 1.3,0.40366 v 0 c 0.7,0.20183 1.3,0.40366 2,0.60549 v 0 c 0.9,0.30275 1.8,0.70641 2.5,1.11007 v 0 c 0.7,0.40366 1.2,0.90823 1.7,1.61464 0,0.10091 0.2,0.30274 0.4,0.50457 0.2,0.20183 0.4,0.40366 0.7,0.60549 0.3,0.20183 0.6,0.30275 1,0.40366 1.5,0.40366 3,-0.50457 3.6,-1.91738 v 0 c 0,0 0,0 0,-0.30275 0,-0.20183 0.1,-0.40366 0.2,-0.80732 v 0 c 0,-0.50457 0.1,-1.21098 0.2,-2.0183 v 0 c 0,0 0,-0.20183 0,-0.30274 0,-1.81647 -0.4,-3.73386 -1.1,-5.44941 0.3,0 0.6,0 0.9,0 2.1,0 4.1,-0.40366 6.1,-1.3119 1.8,-0.80732 3.4,-1.81647 4.8,-3.02745 1.6,-1.31189 3.1,-2.82562 4.4,-4.23843 0.7,-0.70641 1.4,-1.41281 2,-2.0183 v 0 c 1.3,-1.11007 2.6,-2.0183 4.1,-2.52288 1.1,-0.40366 2.1,-0.60549 3.2,-0.60549 1,0 2.1,0.20183 3.2,0.50458 0.3,0.10091 0.7,0.30274 1.3,0.50457 0.3,0.10092 0.6,0.20183 0.7,0.20183 h 0.1 c 0,0 0,0 0,0 v 0 c 0.9,0.10092 1.9,-0.10091 2.5,-0.7064 0.7,-0.60549 1.1,-1.51373 1,-2.52288 0,-0.30274 0,-0.7064 -0.2,-1.00915 z"
         id="path24"
         style="fill:#ffffff;stroke-width:1.00456" />
      <g
         id="g30">
        <path
           d="m 240.4,271.9 c -0.3,0 -0.4,0 -0.6,-0.1 -1.8,-0.7 -3.6,-1.4 -5.4,-2.1 -0.2,0 -0.4,-0.2 -0.6,-0.2 0,0 -0.2,0 -0.2,-0.1 0,-0.2 0,-0.3 0.2,-0.4 0.6,-0.7 1.1,-1.4 1.7,-2.1 2.3,-2.9 4.5,-5.9 6.7,-8.9 1.6,-2.3 3.2,-4.6 4.7,-7 1.3,-2.1 2.6,-4.2 3.8,-6.4 0.9,-1.6 1.8,-3.2 2.6,-4.9 0.7,-1.4 1.5,-2.9 2.1,-4.4 0.5,-1.1 1,-2.1 1.4,-3.2 0.4,-1 0.9,-2 1.3,-3.1 0.3,-0.8 0.7,-1.7 1,-2.6 0.5,-1.5 1.1,-2.9 1.6,-4.4 0.6,-1.7 1.1,-3.3 1.6,-5 0.5,-1.6 0.9,-3.2 1.3,-4.8 1.2,-4.7 2.1,-9.4 2.7,-14.2 0.4,-2.9 0.7,-5.7 0.9,-8.6 0,-0.2 0,-0.4 0,-0.6 0.2,0 0.4,0.1 0.5,0.2 0.5,0.3 1,0.6 1.5,0.9 0.4,0.3 0.9,0.5 1.3,0.8 0.3,0.1 0.3,0.3 0.3,0.6 0,0.5 0,1 0,1.5 -0.2,4.4 -0.7,8.8 -1.4,13.2 -0.4,2.1 -0.7,4.1 -1.2,6.2 -0.4,1.8 -0.9,3.6 -1.3,5.3 -0.2,0.9 -0.5,1.9 -0.8,2.8 -0.4,1.3 -0.8,2.5 -1.2,3.7 -0.6,1.8 -1.2,3.6 -1.9,5.4 -0.6,1.6 -1.2,3.2 -1.9,4.8 -0.6,1.4 -1.2,2.8 -1.8,4.1 -0.6,1.3 -1.2,2.7 -1.9,4 -0.4,0.9 -0.8,1.8 -1.3,2.7 -0.5,1 -1,2 -1.6,3 -0.7,1.3 -1.4,2.6 -2.1,4 -0.6,1.2 -1.3,2.3 -1.9,3.5 -0.8,1.3 -1.5,2.6 -2.3,3.9 -1,1.7 -2,3.3 -3.1,5 -1.4,2.3 -2.9,4.5 -4.4,6.7 -0.1,0.2 -0.2,0.3 -0.3,0.5"
           id="path25" />
        <path
           d="m 193.6,309 c -0.3,0 -0.4,-0.2 -0.5,-0.4 -1.4,-1.4 -2.8,-2.7 -4.1,-4.1 -0.2,-0.2 -0.3,-0.3 -0.5,-0.5 l -0.2,-0.2 c 0,-0.2 0.2,-0.3 0.3,-0.3 0.8,-0.4 1.6,-0.8 2.4,-1.2 3.3,-1.7 6.5,-3.5 9.7,-5.4 2.4,-1.4 4.8,-3 7.1,-4.5 2,-1.4 4.1,-2.8 6,-4.3 1.5,-1.1 2.9,-2.2 4.4,-3.4 1.3,-1 2.5,-2 3.7,-3.1 0.9,-0.8 1.8,-1.6 2.6,-2.3 0.8,-0.7 1.6,-1.5 2.4,-2.3 0.7,-0.6 1.3,-1.3 2,-1.9 1.1,-1.1 2.2,-2.2 3.2,-3.4 1.2,-1.3 2.3,-2.6 3.5,-3.9 1.1,-1.3 2.1,-2.6 3.1,-3.9 3,-3.8 5.7,-7.7 8.2,-11.8 1.5,-2.5 2.9,-5 4.3,-7.5 0,-0.2 0.2,-0.3 0.3,-0.5 0.2,0 0.3,0.2 0.4,0.4 0.4,0.5 0.7,1 1,1.5 0.3,0.4 0.6,0.9 0.9,1.2 0.2,0.2 0.2,0.4 0,0.7 -0.2,0.5 -0.4,0.9 -0.7,1.4 -2,4 -4.2,7.8 -6.6,11.5 -1.2,1.8 -2.4,3.5 -3.6,5.2 -1.1,1.5 -2.2,2.9 -3.4,4.3 -0.6,0.8 -1.2,1.5 -1.9,2.2 -0.9,1 -1.7,2 -2.6,3 -1.3,1.4 -2.6,2.8 -4,4.2 -1.2,1.2 -2.4,2.4 -3.7,3.6 -1.1,1 -2.2,2 -3.3,3 -1.1,1 -2.2,2 -3.3,2.9 -0.7,0.6 -1.5,1.3 -2.2,1.9 -0.9,0.7 -1.8,1.4 -2.7,2.1 -1.2,0.9 -2.3,1.9 -3.5,2.8 -1,0.8 -2.1,1.6 -3.2,2.4 -1.2,0.9 -2.4,1.8 -3.7,2.7 -1.6,1.1 -3.2,2.2 -4.8,3.3 -2.2,1.5 -4.5,2.9 -6.7,4.4 -0.2,0.1 -0.3,0.2 -0.5,0.3"
           id="path26" />
        <path
           d="m 266.9,232.2 c 0.3,0 0.6,0.1 0.8,0.2 0.9,0.3 1.9,0.6 2.8,0.8 1.2,0.3 2.5,0.6 3.7,0.9 1.8,0.4 3.6,0.6 5.4,0.8 2.6,0.2 5.2,0.2 7.8,-0.2 4.9,-0.7 9.2,-2.7 13,-5.8 2.1,-1.7 3.9,-3.7 5.6,-5.9 0.4,-0.5 0.7,-1 1.1,-1.5 0,0 0,-0.2 0.2,-0.3 0,0 -0.2,-0.1 -0.2,-0.2 -0.4,-0.2 -0.9,-0.3 -1.3,-0.5 -0.7,-0.2 -1.3,-0.4 -2,-0.6 -2.1,-0.6 -4.2,-1 -6.3,-1.3 -3.7,-0.4 -7.4,-0.2 -11,0.4 -3.4,0.6 -6.7,1.6 -10,2.9 -3.4,1.3 -6.7,3 -9.9,4.8 -0.1,0 -0.2,0.1 -0.4,0.2 h -0.1 c 0,-0.2 0.2,-0.3 0.3,-0.4 0.8,-0.9 1.7,-1.7 2.6,-2.4 2.6,-2.2 5.4,-4 8.5,-5.4 3.2,-1.4 6.6,-2.3 10.1,-2.8 4,-0.5 7.9,-0.5 11.9,0 2.3,0.3 4.7,0.7 7,1.2 1.7,0.4 3.5,0.9 5.2,1.4 0.2,0 0.5,0 0.7,0.3 0,0.1 -0.1,0.3 -0.2,0.4 -1.9,3.1 -4,6.1 -6.5,8.9 -2,2.2 -4.2,4.2 -6.7,5.9 -2.5,1.7 -5.2,2.9 -8.2,3.6 -2.5,0.6 -5,0.8 -7.5,0.6 -1.5,-0.1 -3,-0.4 -4.5,-0.7 -1.6,-0.4 -3.1,-0.9 -4.6,-1.5 -0.9,-0.4 -1.8,-0.8 -2.7,-1.2 -0.9,-0.4 -1.8,-0.9 -2.7,-1.4 -0.6,-0.3 -1.1,-0.6 -1.6,-1 0,0 0,0 -0.1,-0.2"
           id="path27" />
        <path
           d="m 222.4,198.9 c 0.1,0 0.2,0 0.3,0 1.6,0.8 3.2,1.6 4.8,2.4 2.5,1.4 4.9,2.9 7.2,4.5 2.4,1.8 4.7,3.8 6.8,6 1.8,1.9 3.4,4 4.8,6.3 1.6,2.6 2.8,5.4 3.7,8.4 0.8,2.8 1.3,5.7 1.4,8.6 0,0.2 0,0.4 0,0.6 -0.2,0 -0.2,-0.2 -0.2,-0.3 -0.5,-1.6 -1.1,-3.1 -1.7,-4.7 -1.7,-4.3 -3.7,-8.4 -6.4,-12.2 -2,-2.9 -4.4,-5.6 -7.1,-8 -1.9,-1.6 -3.9,-3 -6,-4.2 -1.6,-0.9 -3.3,-1.7 -5.1,-2.4 -0.1,0 -0.3,-0.1 -0.5,0 0,0.1 0,0.3 0,0.5 -0.4,2.8 -0.5,5.6 -0.2,8.4 0.3,2.7 0.9,5.3 1.9,7.7 0.9,2.2 2.1,4.2 3.5,6 1.8,2.3 3.8,4.2 6.1,6 1.8,1.4 3.7,2.6 5.7,3.7 1.1,0.6 2.1,1.2 3.3,1.7 0.7,0.3 1.4,0.7 2.2,1 h 0.1 c -0.1,0.2 -0.3,0.2 -0.4,0.1 -0.5,0 -0.9,-0.2 -1.3,-0.3 -1,-0.3 -2.1,-0.5 -3.1,-0.8 -0.9,-0.3 -1.8,-0.5 -2.7,-0.9 -0.7,-0.3 -1.4,-0.5 -2.1,-0.8 -0.8,-0.4 -1.6,-0.7 -2.4,-1.2 -1.2,-0.6 -2.4,-1.3 -3.5,-2.2 -2.4,-1.8 -4.5,-3.9 -6.1,-6.5 -1.3,-2.1 -2.3,-4.4 -3,-6.7 -0.8,-2.7 -1.1,-5.5 -1.2,-8.2 -0.1,-3.4 0.2,-6.8 0.7,-10.2 0.1,-0.8 0.3,-1.5 0.4,-2.3 0,0 0,-0.2 0.1,-0.3"
           id="path28" />
        <path
           d="m 272.1,228.4 c 0.1,0 0.3,0 0.4,0 2.3,-0.1 4.6,-0.7 6.7,-1.6 2.7,-1.2 5,-2.8 7.2,-4.7 0.3,-0.2 0.6,-0.5 0.8,-0.7 0,0 0.1,0 0.2,-0.1 -0.2,0.5 -0.6,1.3 -1.7,3 -0.6,0.9 -1.3,1.8 -2,2.7 0,0.1 0.2,0 0.3,0 1.4,0 2.7,-0.2 4.1,-0.4 4.1,-0.6 8.1,-1.6 12.1,-2.8 0.8,-0.3 1.7,-0.5 2.5,-0.8 0.1,0 0.3,0 0.4,-0.1 0,0.2 0,0.2 -0.2,0.2 -0.6,0.3 -1.2,0.5 -1.7,0.8 -1.3,0.6 -2.6,1.1 -3.9,1.7 -1,0.4 -2,0.9 -3,1.3 -0.1,0 -0.3,0 -0.4,0.3 0.2,0.2 0.7,0.5 1.4,0.7 0.5,0.2 1,0.3 1.5,0.5 0.5,0.2 1,0.2 1.5,0.4 0,0.2 -0.2,0.1 -0.3,0.1 -1.3,0 -2.6,0 -4,-0.2 -1,-0.1 -1.9,-0.3 -2.8,-0.6 -0.2,0 -0.5,0 -0.7,0 -0.9,0.2 -1.8,0.5 -2.8,0.6 -2.5,0.5 -5,0.6 -7.5,0.6 -2.7,0 -5.4,-0.3 -8,-0.8 H 272 c 0,0 0,-0.2 0,-0.2"
           id="path29" />
        <path
           d="m 245.8,232.9 c -0.2,-0.1 -0.5,-0.3 -0.7,-0.4 -2.4,-1.6 -4.7,-3.2 -6.8,-5.1 -2.3,-2.1 -4.3,-4.4 -6,-7 -0.2,-0.2 -0.3,-0.4 -0.6,-0.5 -2,-1 -3.8,-2.4 -5.5,-3.9 0,0 -0.2,-0.2 -0.2,-0.3 0.7,0.4 1.4,0.7 2.1,1.1 0.7,0.3 1.5,0.6 2.3,0.7 0,-0.2 0,-0.3 0,-0.4 -0.5,-1.2 -1.1,-2.4 -1.6,-3.5 -0.7,-1.5 -1.4,-3 -2,-4.5 0,-0.2 -0.2,-0.3 -0.2,-0.5 v -0.2 c 0.2,0 0.2,0.2 0.3,0.3 1,1.8 2.1,3.5 3.2,5.2 1.8,2.7 3.6,5.3 5.7,7.7 0.7,0.8 1.5,1.6 2.2,2.4 l 0.2,0.2 c 0.2,0 0.1,-0.2 0.1,-0.3 0,-1.2 0.2,-2.4 0.4,-3.6 0.1,-0.8 0.3,-1.6 0.5,-2.5 0,-0.1 0,-0.2 0.1,-0.4 0.1,0 0.1,0.2 0.1,0.3 0.1,1.4 0.3,2.9 0.7,4.3 0.4,2 1.1,4 2,5.9 0.9,1.8 2.1,3.5 3.6,4.9 0.1,0.1 0.2,0.2 0.3,0.3 v 0"
           id="path30" />
      </g>
      <g
         id="g40">
        <path
           class="cls-1"
           d="m 303.1,144.2 c 0,0.2 0,0.3 0,0.5 0,3.1 -0.4,6.1 -1,9.2 -0.3,1.4 -0.6,2.9 -1,4.3 -0.6,2 -1.3,4 -2.2,5.9 -1.4,3.1 -3.2,6.1 -5.3,8.8 -1.4,1.8 -2.9,3.5 -4.5,5.2 -1.3,1.4 -2.6,2.6 -4.1,3.8 -1.4,1.2 -2.9,2.2 -4.6,3.1 -2.9,1.5 -6,2.3 -9.2,2.1 -1.6,0 -3.1,-0.4 -4.6,-0.8 -1.1,-0.3 -2.1,-0.7 -3.1,-1.1 -1.2,-0.5 -2.3,-1.1 -3.4,-1.7 -0.4,-0.3 -0.8,-0.5 -1.3,-0.8 -0.2,-0.1 -0.3,-0.3 -0.4,-0.5 -0.6,-1.7 -1.3,-3.3 -1.8,-5 -0.6,-2.1 -0.9,-4.3 -0.8,-6.4 0,-1.3 0.3,-2.5 0.6,-3.8 0.2,-0.8 0.5,-1.5 0.8,-2.2 0.6,-1.5 1.4,-2.9 2.3,-4.3 0.8,-1.2 1.7,-2.4 2.7,-3.5 l 0.2,-0.2 c 0.2,-0.2 0.4,-0.3 0.7,-0.3 1.7,0 3.4,-0.1 5.1,-0.3 4,-0.3 7.9,-0.9 11.8,-1.8 3.6,-0.9 7.1,-2 10.5,-3.5 4.1,-1.7 8,-3.9 11.8,-6.3 0.2,-0.1 0.4,-0.3 0.8,-0.4"
           id="path31"
           style="fill:#e42320" />
        <path
           class="cls-1"
           d="m 240.1,145.6 c 0,-0.2 0,-0.4 0,-0.5 0,-0.5 0.1,-1.1 0.3,-1.6 0.4,-1.1 1.1,-1.9 2.1,-2.4 0.6,-0.3 1.1,-0.4 1.7,-0.6 1,-0.2 2,-0.2 3,-0.3 h 0.2 c 0.1,0.2 0,0.3 0,0.4 -0.1,0.4 -0.3,0.7 -0.4,1.1 -0.4,1.1 -0.7,2.3 -1,3.4 -0.8,3.1 -1.3,6.3 -1.3,9.6 0,2.8 0.5,5.6 1.3,8.3 0.9,2.8 2.1,5.4 3.5,7.9 0.8,1.4 1.7,2.8 2.6,4.1 0,0.1 0.2,0.2 0.3,0.4 v 0 c 0,0 -0.1,-0.2 -0.1,-0.2 -0.7,-1.4 -1.5,-2.7 -2.1,-4.1 -1.2,-2.4 -2.2,-4.8 -2.9,-7.4 -0.9,-3.4 -1.1,-6.9 -0.6,-10.5 0.3,-1.7 0.6,-3.3 1.1,-4.9 0.3,-1.2 0.7,-2.3 1.1,-3.5 0.6,-1.7 0.9,-3.6 1,-5.4 0,-1.7 0,-3.4 0,-5.1 0,-0.6 0,-1.3 0,-1.9 0,-0.1 0,-0.3 0,-0.4 0.2,0 0.4,0 0.6,0 1,0.2 1.9,0.5 2.8,0.9 1.7,0.8 3.2,1.9 4.6,3.1 1.7,1.4 3.2,2.9 4.7,4.5 2.3,2.5 4.5,5.1 6.6,7.8 0,0.1 0.2,0.2 0.3,0.4 -0.1,0 -0.2,0.2 -0.4,0.2 -4.5,2.7 -8.1,6.2 -11,10.5 -0.7,1 -1.3,2.1 -1.8,3.1 -0.5,1 -0.9,2.1 -1.3,3.2 -0.7,1.9 -0.9,3.9 -0.8,6 0,2.6 0.6,5.1 1.5,7.5 0,0.2 0.2,0.3 0.1,0.5 0,0.1 -0.2,0 -0.3,0 -0.9,-0.3 -1.7,-0.7 -2.5,-1.1 -2.8,-1.4 -5.3,-3.3 -7.5,-5.6 -1.6,-1.7 -3.1,-3.4 -4.5,-5.3 -1.3,-1.8 -2.7,-3.6 -4,-5.4 -0.3,-0.4 -0.6,-0.8 -0.9,-1.2 -1.5,-2.1 -2.5,-4.5 -2.9,-7.1 -0.1,-1.1 -0.1,-2.1 0.1,-3.1 0.2,-0.9 0.7,-1.8 1.3,-2.5 0.8,-0.9 1.8,-1.5 2.8,-2 0.5,-0.3 1.1,-0.5 1.7,-0.7 0.2,0 0.4,-0.1 0.6,-0.2"
           id="path32"
           style="fill:#e42320" />
        <path
           class="cls-1"
           d="m 323.6,176.4 c -0.1,0 -0.2,0 -0.4,0 -0.5,-0.2 -0.9,-0.3 -1.3,-0.5 -2.8,-0.9 -5.6,-0.9 -8.4,0 -1.9,0.7 -3.5,1.7 -5,3 -0.8,0.7 -1.5,1.4 -2.3,2.2 -1.3,1.4 -2.6,2.7 -4.1,3.9 -1.3,1 -2.6,1.9 -4.1,2.6 -2.2,1 -4.4,1.2 -6.7,0.9 -1.1,-0.2 -2.1,-0.5 -3.2,-0.9 -1.6,-0.6 -3,-1.4 -4.4,-2.2 -0.1,0 -0.1,0 -0.3,-0.3 0,0 0.2,-0.2 0.3,-0.2 2.7,-1.8 5,-3.9 7.2,-6.3 1.2,-1.3 2.4,-2.6 3.5,-4 1.3,-1.7 2.6,-3.4 3.7,-5.3 0.6,-1 1.1,-2 1.7,-3.1 0.3,-0.5 0.5,-1.1 0.8,-1.6 0.3,-0.6 0.6,-1.3 0.8,-1.9 0.3,-0.8 0.6,-1.7 0.9,-2.5 0.3,-0.9 0.6,-1.9 0.8,-2.8 0.4,-1.4 0.7,-2.9 1,-4.4 0.2,-0.9 0.3,-1.8 0.4,-2.8 0,-0.1 0,-0.3 0,-0.4 0.2,0 0.3,0 0.4,0 0.8,0.4 1.6,0.7 2.3,1.1 2.4,1.2 4.7,2.6 6.6,4.5 1.7,1.6 3.1,3.5 4.1,5.7 0.6,1.4 1.1,2.8 1.5,4.3 0.4,1.4 0.7,2.8 1.1,4.2 0.4,1.5 0.9,2.9 1.6,4.3 0.4,0.7 0.8,1.3 1.2,1.9 0,0.1 0.2,0.2 0.2,0.4"
           id="path33"
           style="fill:#e42320" />
        <path
           class="cls-1"
           d="m 289.8,133 c 0,-0.2 0,-0.3 0,-0.5 0,-0.5 0,-0.9 0,-1.4 0,-1 -0.5,-1.8 -1,-2.6 -0.5,-0.7 -1,-1.3 -1.6,-1.9 -0.7,-0.8 -1.4,-1.6 -1.9,-2.6 0,-0.2 -0.2,-0.4 -0.2,-0.6 h 0.2 c 3.5,-1.2 7.1,-1.7 10.7,-1.2 1.2,0.1 2.3,0.4 3.4,0.7 2.3,0.7 4.3,1.8 6,3.6 1.3,1.3 2.2,2.8 2.6,4.6 0.3,1.3 0.3,2.7 0,4 -0.5,2 -1.5,3.6 -2.8,5.1 -1.1,1.2 -2.3,2.2 -3.6,3.1 -3.1,2 -6.4,3.9 -9.7,5.4 -3,1.4 -6.1,2.6 -9.3,3.5 -4,1.2 -8,1.9 -12.1,2.4 -1.9,0.2 -3.8,0.3 -5.6,0.4 -0.2,0 -0.3,0 -0.5,0 0,-0.2 0,-0.2 0.2,-0.3 0.5,-0.4 1,-0.9 1.5,-1.3 2,-1.6 4.1,-2.9 6.4,-4 2.7,-1.3 5.5,-2.3 8.3,-3.2 1.7,-0.6 3.5,-1.1 5.2,-1.8 1.6,-0.6 3.1,-1.3 4.7,-1.9 0.8,-0.3 1.5,-0.6 2.3,-1 0.3,-0.1 0.5,-0.2 0.8,-0.4 0.6,-0.3 0.9,-0.8 0.9,-1.5 0,-1 -0.1,-1.9 -0.6,-2.8 -0.4,-0.8 -1,-1.6 -1.7,-2.2 -0.6,-0.5 -1.2,-1 -1.8,-1.4 -0.2,-0.1 -0.5,-0.2 -0.7,-0.4"
           id="path34"
           style="fill:#e42320" />
        <path
           class="cls-1"
           d="m 259,135 c -0.3,-0.3 -0.6,-0.5 -0.9,-0.7 -1.1,-0.8 -2.2,-1.5 -3.4,-2.2 -1.3,-0.7 -2.6,-1.2 -4,-1.3 -0.6,0 -1.2,-0.1 -1.8,-0.1 -0.1,0 -0.3,0 -0.4,0 h -0.1 c -1.6,-1.8 -2.7,-3.7 -3,-6 -0.2,-1.6 0,-3.2 0.7,-4.7 0.9,-2.1 2.5,-3.6 4.6,-4.6 1.5,-0.7 3.1,-1 4.8,-1 1.3,0 2.5,0.2 3.7,0.5 0.6,0.2 1.2,0.4 1.8,0.6 1.5,0.5 3,1.1 4.6,1.4 2,0.5 4,0.6 6,0.3 1.2,-0.2 2.3,-0.3 3.5,-0.3 0.9,0 1.7,0 2.5,0.3 1.4,0.3 2.5,1.1 3.5,2.1 0.9,0.9 1.5,2 2.1,3.1 0.2,0.3 0.3,0.7 0.5,1 v 0.2 c 0,0.1 -0.1,0 -0.2,0 -0.6,-0.2 -1.2,-0.3 -1.8,-0.5 -1.7,-0.4 -3.4,-0.6 -5.2,-0.5 -1.3,0 -2.6,0.3 -3.8,0.6 -2.1,0.5 -4.2,1.1 -6.3,1.8 -0.8,0.3 -1.6,0.5 -2.4,0.8 -0.5,0.2 -0.9,0.3 -1.3,0.6 -0.3,0.2 -0.6,0.4 -0.8,0.7 -0.2,0.3 -0.4,0.6 -0.4,0.9 0,0.4 0,0.7 0,1.1 0,0.5 0,0.9 0,1.4 0,1.2 -0.4,2.3 -1.1,3.2 -0.2,0.3 -0.5,0.6 -0.8,0.9 0,0 -0.2,0.1 -0.3,0.3"
           id="path35"
           style="fill:#e42320" />
        <path
           class="cls-1"
           d="m 260.3,136.1 c 0,-0.2 0.2,-0.3 0.3,-0.5 0.5,-0.5 1,-1.1 1.3,-1.7 0.1,-0.2 0.3,-0.3 0.5,-0.4 2,-0.3 4.1,-0.5 6.1,-0.3 2.8,0.3 5.3,1.4 7.4,3.3 0.1,0.1 0.3,0.3 0.4,0.4 1.7,2.2 3.5,4.5 5.2,6.7 0.1,0.1 0.2,0.3 0.3,0.4 0,0.2 -0.2,0.2 -0.4,0.3 -0.9,0.3 -1.7,0.6 -2.6,0.9 -2.5,0.8 -5,1.6 -7.5,2.5 -0.6,0.2 -0.5,0.2 -0.9,-0.3 -1.6,-2 -3.2,-4.1 -5,-6 -1.5,-1.7 -3.1,-3.4 -4.8,-4.9 -0.1,-0.1 -0.2,-0.2 -0.3,-0.3"
           id="path36"
           style="fill:#e42320" />
        <path
           class="cls-1"
           d="m 262.8,131.9 c 0,-0.1 0,-0.2 0,-0.3 0,-0.8 0.1,-1.5 0,-2.3 0,-0.2 0,-0.4 0,-0.6 0,-0.4 0.2,-0.8 0.6,-1 0.3,-0.1 0.5,-0.3 0.8,-0.4 2.7,-0.9 5.4,-1.9 8.1,-2.5 1.1,-0.3 2.1,-0.5 3.2,-0.6 2,-0.2 3.9,0 5.9,0.4 1.2,0.3 2.4,0.8 3.5,1.4 1.1,0.7 2.1,1.6 2.7,2.7 0.5,1 0.7,2.1 0.7,3.3 0,0 0,0.2 0,0.3 0,0 -0.2,0 -0.3,0 -0.3,-0.1 -0.6,-0.2 -1,-0.3 -0.7,-0.2 -1.4,-0.4 -2.1,-0.5 -1.5,-0.2 -3,0 -4.4,0.6 -1,0.4 -2,1 -2.9,1.6 -0.5,0.3 -1,0.6 -1.5,1 -0.1,0 -0.3,-0.1 -0.4,-0.2 -0.7,-0.5 -1.5,-1 -2.3,-1.4 -0.6,-0.3 -1.3,-0.5 -1.9,-0.7 -2.6,-0.8 -5.3,-0.8 -7.9,-0.5 -0.2,0 -0.4,0 -0.7,0"
           id="path37"
           style="fill:#e42320" />
        <path
           class="cls-1"
           d="m 290.1,199.3 c -0.2,0 -0.3,-0.2 -0.4,-0.4 -0.7,-0.9 -1.6,-1.7 -2.6,-2.3 -1,-0.6 -2,-1 -3.1,-1.4 -0.7,-0.2 -1.4,-0.4 -2,-0.7 -0.5,-0.2 -1,-0.3 -1.5,-0.4 -0.9,-0.2 -1.8,-0.6 -2.7,-1 -1,-0.4 -1.9,-1.1 -2.8,-1.8 -0.9,-0.8 -1.6,-1.6 -2.3,-2.6 0,0 -0.1,-0.2 -0.2,-0.3 0.2,-0.1 0.4,0 0.6,-0.1 0.8,0 1.7,-0.1 2.5,-0.3 2.1,-0.4 4.2,-1.1 6.1,-2.2 0.4,-0.3 0.8,-0.3 1.2,0 1.4,0.9 2.8,1.9 4,3.1 1,1.1 1.9,2.3 2.5,3.6 0.6,1.4 0.9,2.9 0.9,4.5 0,0.6 0,1.2 -0.1,1.8 0,0 0,0.2 0,0.3"
           id="path38"
           style="fill:#e42320" />
        <path
           class="cls-1"
           d="m 283.4,143.6 c -0.2,-0.2 -0.3,-0.4 -0.4,-0.6 -0.9,-1.5 -1.9,-2.9 -3,-4.3 -0.7,-0.9 -1.5,-1.8 -2.4,-2.6 0,0 -0.2,-0.2 -0.2,-0.3 v -0.2 c 1.3,-0.8 2.4,-1.5 3.7,-2.1 1.1,-0.5 2.2,-0.8 3.4,-0.7 0.6,0 1.1,0.1 1.7,0.3 0.9,0.2 1.7,0.6 2.6,1 0,0 0.2,0 0.3,0.1 1.2,0.4 2.1,1.2 2.9,2.1 0.6,0.7 1,1.4 1.1,2.4 0,0.3 0,0.6 0,1 0,0.2 -0.1,0.3 -0.3,0.4 -0.7,0.3 -1.5,0.6 -2.2,0.9 -2.2,0.9 -4.4,1.7 -6.6,2.6 -0.2,0 -0.3,0.1 -0.6,0.2"
           id="path39"
           style="fill:#e42320" />
        <path
           class="cls-1"
           d="m 263.9,186.7 c 0,0.1 -0.1,0.2 -0.2,0.3 -1,1.2 -2.1,2.2 -3.4,3 -1.1,0.6 -2.2,1 -3.4,1 -1.4,0 -2.8,0 -4.2,-0.3 -1.1,-0.1 -2.2,-0.3 -3.3,-0.4 -1.5,-0.2 -3,0 -4.5,0.2 -0.2,0 -0.3,0.1 -0.5,0 v -0.2 c 1.5,-1.9 3,-3.6 4.9,-5 2.3,-1.6 4.9,-2.3 7.7,-2.3 0.3,0 0.5,0.1 0.8,0.3 0.6,0.4 1.2,0.8 1.8,1.1 1.1,0.7 2.2,1.2 3.4,1.7 0.3,0.1 0.6,0.3 0.9,0.4"
           id="path40"
           style="fill:#e42320" />
      </g>
    </g>
    <polyline
       class="cls-2"
       points="223.1 231 287.6 296.2 204.2 296.2 160.7 244.2"
       id="polyline41"
       style="fill:#0070b0" />
  </g>
  <path
     d="m 111.363,86.862504 c 1.34938,0 1.87854,1.349374 1.87854,2.407706 0,1.058332 -0.82021,2.434164 -1.905,2.434164 -1.08479,0 -1.90499,-1.031874 -1.90499,-2.407706 0,-1.375831 0.58208,-2.434164 1.93145,-2.434164 z m 0.0265,-0.873124 c -1.74625,0 -3.09562,1.217082 -3.09562,3.333747 0,2.116664 1.29646,3.227913 2.98979,3.227913 1.69333,0 3.12208,-1.005416 3.12208,-3.333747 0,-2.32833 -1.21708,-3.227913 -3.01625,-3.227913 z m -9.84249,6.40291 h 1.13771 v -3.757079 c 0,-0.185208 0,-0.396875 0.0794,-0.529166 0.18521,-0.635 0.76729,-1.164166 1.53459,-1.164166 1.08479,0 1.4552,0.846666 1.4552,1.852082 v 3.598329 h 1.13771 v -3.730621 c 0,-2.143123 -1.34937,-2.672289 -2.2225,-2.672289 -0.87312,0 -1.7727,0.582083 -2.06375,1.190624 v 0 l -0.0529,-1.031874 h -1.00542 c 0.0265,0.529166 0.0529,1.058332 0.0529,1.693332 v 4.577286 z m -2.460619,-8.731241 c -0.42333,0 -0.71438,0.3175 -0.71438,0.714375 0,0.396874 0.29105,0.687916 0.68792,0.687916 0.39688,0 0.74083,-0.3175 0.71438,-0.687916 0,-0.396875 -0.26459,-0.714375 -0.68792,-0.714375 z m 0.58208,8.731241 v -6.270618 h -1.13771 v 6.270618 z m -4.18041,-2.619372 c 0,0.185208 0,0.343958 -0.0529,0.502708 -0.21166,0.846665 -0.89958,1.349373 -1.66687,1.349373 -1.21708,0 -1.85208,-1.058332 -1.85208,-2.328331 0,-1.269998 0.68791,-2.407705 1.87854,-2.407705 1.19062,0 1.48166,0.582082 1.64041,1.322915 0.0265,0.132291 0.0529,0.343958 0.0529,0.476249 z m 0,-6.56166 v 3.730621 0 c -0.29104,-0.502708 -0.92604,-0.952499 -1.87854,-0.952499 -1.53458,0 -2.83104,1.269999 -2.80458,3.360205 0,1.904998 1.16417,3.174997 2.67229,3.174997 1.50812,0 1.7727,-0.529167 2.14312,-1.217082 v 0 l 0.0529,1.08479 h 1.03187 c -0.0265,-0.423333 -0.0529,-1.058332 -0.0529,-1.613957 v -7.567075 h -1.13771 z m -7.19666,7.090826 c 0,0.105833 0,0.238125 -0.0529,0.370416 -0.1852,0.529166 -0.68791,1.058332 -1.50812,1.058332 -0.82021,0 -1.08479,-0.343958 -1.08479,-1.08479 0,-1.217082 1.40229,-1.428749 2.64583,-1.40229 v 1.08479 z m 1.19062,2.090206 c -0.0794,-0.423333 -0.10583,-0.952499 -0.10583,-1.508123 v -2.354789 c 0,-1.243541 -0.47625,-2.566456 -2.38125,-2.566456 -1.90499,0 -1.53458,0.211666 -2.06374,0.555624 l 0.26458,0.740833 c 0.44979,-0.291041 1.05833,-0.47625 1.64041,-0.47625 1.27,0 1.42875,0.926041 1.42875,1.455207 v 0.132292 c -2.4077,0 -3.75708,0.820207 -3.75708,2.328331 0,1.508123 0.635,1.799164 1.905,1.799164 1.27,0 1.56104,-0.449791 1.905,-0.92604 h 0.0265 l 0.0794,0.793749 h 1.03188 z m -8.51957,-7.752283 v 1.508123 h -0.97896 v 0.873124 h 0.97896 v 3.413121 c 0,0.740833 0.10583,1.296457 0.44979,1.640415 0.26458,0.3175 0.68792,0.47625 1.21708,0.47625 0.52917,0 0.79375,-0.05292 1.00542,-0.15875 l -0.0529,-0.846666 c -0.13229,0.02646 -0.37041,0.07937 -0.66146,0.07937 -0.63499,0 -0.84666,-0.449791 -0.84666,-1.217082 v -3.386663 h 1.64041 v -0.873124 h -1.64041 V 84.34896 Z m -4.28624,0 v 1.508123 h -0.97896 v 0.873124 h 0.97896 v 3.413121 c 0,0.740833 0.10583,1.296457 0.44979,1.640415 0.26458,0.3175 0.68791,0.47625 1.21708,0.47625 0.52916,0 0.79375,-0.05292 1.00541,-0.15875 l -0.0529,-0.846666 c -0.13229,0.02646 -0.37042,0.07937 -0.66146,0.07937 -0.635,0 -0.84666,-0.449791 -0.84666,-1.217082 v -3.386663 h 1.64041 V 86.14813 h -1.64046 v -1.799165 z m -2.69879,-0.978958 c -0.42333,0 -0.71437,0.3175 -0.71437,0.714375 0,0.396874 0.29104,0.687916 0.68791,0.687916 0.39688,0 0.74083,-0.3175 0.71438,-0.687916 0,-0.396875 -0.26459,-0.714375 -0.68792,-0.714375 z m 0.55562,8.731241 v -6.270618 h -1.1377 v 6.270618 z m -2.69874,-1.164165 c -0.44979,0.211666 -1.16417,0.370416 -1.82563,0.370416 -2.11666,0 -3.3602,-1.375832 -3.3602,-3.518955 0,-2.143122 1.34937,-3.598329 3.41312,-3.598329 2.06375,0 1.32292,0.15875 1.77271,0.370416 l 0.26458,-0.926041 c -0.29104,-0.158749 -0.97896,-0.396874 -2.06375,-0.396874 -2.69875,0 -4.55083,1.852081 -4.55083,4.577287 0,2.725205 1.85208,4.418537 4.31271,4.418537 2.46062,0 1.87854,-0.211667 2.30187,-0.423333 l -0.23813,-0.899583 z m -13.12332,-4.365621 c 1.34937,0 1.87854,1.349374 1.87854,2.407706 0,1.058332 -0.82021,2.434164 -1.905,2.434164 -1.08479,0 -1.905,-1.031874 -1.905,-2.407706 0,-1.375831 0.58208,-2.434164 1.93146,-2.434164 z m 0.0265,-0.873124 c -1.74625,0 -3.09562,1.217082 -3.09562,3.333747 0,2.116664 1.29645,3.227913 2.98978,3.227913 1.69334,0 3.12208,-1.005416 3.12208,-3.333747 0,-2.32833 -1.21708,-3.227913 -3.01624,-3.227913 z m -5.10646,-2.328331 c -0.42333,0 -0.71437,0.3175 -0.71437,0.714375 0,0.396874 0.29104,0.687916 0.68791,0.687916 0.39688,0 0.74084,-0.3175 0.71438,-0.687916 0,-0.396875 -0.26458,-0.714375 -0.68792,-0.714375 z m 0.55563,8.731241 v -6.270618 h -1.13771 v 6.270618 z m -4.180415,0 h 1.137705 V 83.211258 H 50.006236 Z M 46.98999,89.74646 c 0,0.185208 0,0.423332 -0.07937,0.608541 -0.238125,0.714374 -0.873124,1.164165 -1.587499,1.164165 -1.217082,0 -1.852081,-1.031874 -1.852081,-2.248956 0,-1.217082 0.767291,-2.381247 1.852081,-2.381247 1.084791,0 1.375832,0.555624 1.587499,1.190623 0.05292,0.15875 0.05292,0.3175 0.05292,0.529166 v 1.137708 z m 0.185208,-3.59833 -0.05292,0.952499 v 0 c -0.264583,-0.529166 -0.873124,-1.08479 -1.957914,-1.08479 -1.084791,0 -2.831039,1.190623 -2.831039,3.333746 0,2.143123 1.111249,3.042705 2.672289,3.042705 1.56104,0 1.640415,-0.476249 1.984373,-1.058332 v 0 0.687916 c 0,1.587498 -0.846666,2.196039 -2.010832,2.196039 -1.164165,0 -1.428748,-0.238125 -1.825623,-0.502708 l -0.291041,0.873124 c 0.502708,0.343958 1.322915,0.529166 2.090206,0.529166 0.767291,0 1.666873,-0.185208 2.275414,-0.740832 0.608541,-0.555624 0.899583,-1.428749 0.899583,-2.857497 v -3.624788 c 0,-0.767291 0,-1.269998 0.05292,-1.71979 h -1.005416 z m -10.239364,2.513539 c 0.07937,-0.793749 0.582082,-1.852081 1.746248,-1.852081 1.164165,0 1.587498,1.137707 1.587498,1.852081 z m 4.392078,0.820208 c 0,-0.105834 0.02646,-0.291042 0.02646,-0.529167 0,-1.164165 -0.555625,-2.96333 -2.592914,-2.96333 -2.03729,0 -2.936872,1.481665 -2.936872,3.386663 0,1.904998 1.164165,3.148539 3.069163,3.148539 1.904998,0 1.693332,-0.211667 2.090206,-0.396875 L 40.798747,91.3075 c -0.423333,0.185208 -0.92604,0.317499 -1.746248,0.317499 -0.820207,0 -2.116664,-0.634999 -2.143123,-2.169581 h 4.392079 z m -11.906237,-3.333747 2.381248,6.270618 h 1.08479 l 2.460622,-6.270618 h -1.190623 l -1.217082,3.518955 c -0.211667,0.582082 -0.396875,1.08479 -0.529166,1.613956 h -0.02646 c -0.13229,-0.529166 -0.29104,-1.031874 -0.502706,-1.613956 L 30.665215,86.14813 h -1.217082 z m -4.788953,5.953119 c 0.449791,0.264583 1.08479,0.423333 1.772706,0.423333 1.481665,0 2.35479,-0.767291 2.35479,-1.87854 0,-1.111249 -0.555625,-1.481665 -1.640415,-1.87854 -0.820208,-0.317499 -1.190624,-0.555624 -1.190624,-1.058332 0,-0.502708 0.370416,-0.846666 1.058332,-0.846666 0.687916,0 1.031874,0.211667 1.269999,0.370417 l 0.291001,-0.820208 c -0.343958,-0.211666 -0.899582,-0.396874 -1.534582,-0.396874 -1.349373,0 -2.169581,0.820207 -2.169581,1.825623 0,1.005415 0.529166,1.375831 1.666874,1.772706 0.846665,0.3175 1.164165,0.608541 1.164165,1.164165 0,0.555625 -0.396875,0.926041 -1.217082,0.926041 -0.820207,0 -1.164165,-0.238125 -1.508123,-0.449791 l -0.291042,0.873124 z m -2.010831,-8.4402 c -0.423333,0 -0.714374,0.3175 -0.714374,0.714375 0,0.396874 0.291041,0.687916 0.687915,0.687916 0.396875,0 0.740833,-0.3175 0.714375,-0.687916 0,-0.396875 -0.264583,-0.714375 -0.687916,-0.714375 z m 0.555624,8.731241 v -6.270618 h -1.137707 v 6.270618 z m -7.064367,-7.8052 c 0.185208,-0.05292 0.582082,-0.105833 1.111249,-0.105833 1.190623,0 2.010831,0.502708 2.010831,1.640415 0,1.137707 -0.767291,1.666873 -1.957915,1.666873 h -1.164165 v -3.174997 z m -1.111249,7.8052 h 1.137707 v -3.783538 h 1.058332 c 1.031874,0.02646 1.481665,0.502708 1.746248,1.693332 0.238125,1.08479 0.449792,1.825623 0.582083,2.090206 h 1.164166 C 20.505226,92.048332 20.29356,91.201666 20.028977,90.011043 19.81731,89.11146 19.420436,88.476461 18.758978,88.238336 v 0 c 0.926041,-0.343958 1.640415,-1.111249 1.640415,-2.275414 0,-1.164165 -0.238125,-1.269999 -0.687916,-1.666873 -0.555624,-0.502708 -1.322915,-0.714375 -2.513539,-0.714375 -1.190623,0 -1.587498,0.05292 -2.169581,0.185209 v 8.598949 z"
     id="path42"
     style="stroke-width:0.264583" />
</svg>
